M48
; DRILL file {KiCad (5.99.0-10161-g3a96736b1f)} date Sunday, June 27, 2021 at 10:25:01 PM
; FORMAT={-:-/ absolute / inch / decimal}
; #@! TF.CreationDate,2021-06-27T22:25:01+03:00
; #@! TF.GenerationSoftware,Kicad,Pcbnew,(5.99.0-10161-g3a96736b1f)
; #@! TF.FileFunction,Plated,1,2,PTH
FMAT,2
INCH
; #@! TA.AperFunction,Plated,PTH,ViaDrill
T1C0.0157
; #@! TA.AperFunction,Plated,PTH,ComponentDrill
T2C0.0157
; #@! TA.AperFunction,Plated,PTH,ComponentDrill
T3C0.0197
; #@! TA.AperFunction,Plated,PTH,ComponentDrill
T4C0.0236
; #@! TA.AperFunction,Plated,PTH,ComponentDrill
T5C0.0335
; #@! TA.AperFunction,Plated,PTH,ComponentDrill
T6C0.0394
; #@! TA.AperFunction,Plated,PTH,ComponentDrill
T7C0.0827
%
G90
G05
T1
X3.5544Y-3.4567
X3.5555Y-2.4027
X3.6209Y-3.822
X3.6217Y-3.6472
X3.6684Y-4.2182
X3.7248Y-3.6823
X3.7254Y-4.1825
X3.7565Y-3.7813
X3.7579Y-3.0578
X3.7843Y-4.4673
X3.7905Y-3.5965
X3.8407Y-4.2455
X3.8466Y-3.5033
X3.8474Y-3.5593
X3.8624Y-3.8435
X3.874Y-4.4915
X3.9233Y-4.2685
X3.9511Y-3.5516
X3.9563Y-2.72
X3.9563Y-3.3456
X4.0159Y-4.003
X4.0293Y-3.7132
X4.0807Y-4.3881
X4.1162Y-4.4708
X4.1372Y-3.7751
X4.1417Y-4.2051
X4.1624Y-4.1814
X4.164Y-4.349
X4.1657Y-3.6823
X4.1721Y-3.9082
X4.174Y-3.9717
X4.1841Y-4.1588
X4.1992Y-3.6937
X4.2148Y-3.7755
X4.2255Y-3.6623
X4.2293Y-4.4157
X4.252Y-4.4393
X4.2608Y-4.1795
X4.2746Y-4.46
X4.2863Y-3.874
X4.332Y-4.6424
X4.3447Y-3.846
X4.4104Y-4.5641
X4.4144Y-3.9659
X4.4147Y-4.6281
X4.437Y-4.2513
X4.4455Y-3.7291
X4.4577Y-4.5204
X4.4764Y-4.0289
X4.4765Y-3.59
X4.4882Y-4.3734
X4.4892Y-4.2976
X4.5189Y-2.7035
X4.5325Y-4.2041
X4.5595Y-3.9358
X4.5748Y-4.2828
X4.5887Y-3.6494
X4.5982Y-4.1283
X4.5984Y-4.3931
X4.6132Y-4.3645
X4.6368Y-4.2208
X4.6376Y-4.5234
X4.6393Y-2.7945
X4.7187Y-4.4774
X4.7458Y-4.1199
X4.9006Y-4.6293
X4.9131Y-4.8542
X4.9209Y-4.6697
X5.0899Y-5.0021
X5.1103Y-4.6535
X5.186Y-4.5813
X5.1929Y-4.924
X5.1962Y-4.6628
X5.2057Y-4.5518
X5.2219Y-4.9486
X5.3025Y-4.1292
X5.3234Y-4.5781
X5.5056Y-4.7948
X5.6036Y-4.4921
X5.6092Y-4.9604
X5.6143Y-3.549
X5.6772Y-4.7767
X5.7663Y-4.7065
X5.7667Y-4.7435
X5.7685Y-4.8484
X5.8713Y-4.5952
X5.993Y-5.0673
X6.0045Y-4.2557
X6.2661Y-4.2567
X6.3047Y-4.2059
X6.352Y-4.9118
X6.4852Y-3.4561
X6.5112Y-3.4793
X6.5364Y-3.5037
X6.6315Y-4.5452
X6.6455Y-4.7139
X6.6584Y-4.2132
X6.8672Y-3.8437
X7.0704Y-4.7193
X7.077Y-3.573
X7.1033Y-3.5364
X7.1068Y-4.7192
X7.2076Y-4.7159
X7.2721Y-2.496
X7.341Y-4.9149
X7.3525Y-3.4283
X7.4063Y-3.1875
X7.4635Y-3.1793
X7.6125Y-2.5192
X7.7122Y-2.6291
X7.8773Y-5.0041
X7.9725Y-2.4242
X7.9737Y-2.324
X8.0725Y-2.3842
X8.1804Y-2.5952
X8.3096Y-4.697
X8.326Y-2.7258
X8.345Y-4.697
X8.4028Y-2.433
X8.4275Y-2.6048
X8.5007Y-2.7258
X8.5119Y-4.5763
X8.5669Y-2.7149
X8.8206Y-2.4715
X8.878Y-4.6875
X9.0772Y-3.9071
X9.0772Y-4.9252
X9.1217Y-4.611
X9.1406Y-3.3047
X9.1887Y-2.4341
X9.1887Y-2.5915
X9.2335Y-2.6409
X9.2492Y-2.3267
X9.3805Y-2.3317
X9.415Y-4.7338
X9.5931Y-4.8565
X9.6361Y-2.2406
X9.6398Y-4.748
X9.7225Y-4.9063
X9.7493Y-2.5236
X9.8059Y-4.5311
X10.5788Y-4.8011
X11.2524Y-4.8484
X11.6282Y-5.0067
X11.7891Y-4.7344
X12.0938Y-2.3672
X13.2656Y-4.7344
X13.4297Y-4.0547
X13.5681Y-5.0476
X13.6875Y-3.375
X14.7855Y-2.4759
X15.0235Y-3.5625
X15.1634Y-4.6039
X15.439Y-5.0334
X15.5556Y-2.4819
T2
X3.9981Y-3.457
X3.9981Y-4.957
X4.0215Y-3.4005
X4.0215Y-3.5136
X4.0215Y-4.9005
X4.0215Y-5.0136
X4.0781Y-3.377
X4.0781Y-3.537
X4.0781Y-4.877
X4.0781Y-5.037
X4.1347Y-3.4005
X4.1347Y-3.5136
X4.1347Y-4.9005
X4.1347Y-5.0136
X4.1581Y-3.457
X4.1581Y-4.957
X5.3575Y-2.707
X5.3809Y-2.6505
X5.3809Y-2.7636
X5.4375Y-2.627
X5.4375Y-2.787
X5.494Y-2.6505
X5.494Y-2.7636
X5.5175Y-2.707
X7.42Y-4.957
X7.4434Y-4.9005
X7.4434Y-5.0136
X7.5Y-4.877
X7.5Y-5.037
X7.5566Y-4.9005
X7.5566Y-5.0136
X7.58Y-4.957
X7.795Y-3.457
X7.8184Y-3.4005
X7.8184Y-3.5136
X7.875Y-3.377
X7.875Y-3.537
X7.9316Y-3.4005
X7.9316Y-3.5136
X7.955Y-3.457
X11.3106Y-4.957
X11.3341Y-4.9005
X11.3341Y-5.0136
X11.3906Y-4.877
X11.3906Y-5.037
X11.4472Y-4.9005
X11.4472Y-5.0136
X11.4706Y-4.957
X11.545Y-3.457
X11.5684Y-3.4005
X11.5684Y-3.5136
X11.625Y-3.377
X11.625Y-3.537
X11.6816Y-3.4005
X11.6816Y-3.5136
X11.705Y-3.457
X13.6075Y-2.707
X13.6309Y-2.6505
X13.6309Y-2.7636
X13.6875Y-2.627
X13.6875Y-2.787
X13.744Y-2.6505
X13.744Y-2.7636
X13.7675Y-2.707
X15.1075Y-3.457
X15.1075Y-4.957
X15.1309Y-3.4005
X15.1309Y-3.5136
X15.1309Y-4.9005
X15.1309Y-5.0136
X15.1875Y-3.377
X15.1875Y-3.537
X15.1875Y-4.877
X15.1875Y-5.037
X15.244Y-3.4005
X15.244Y-3.5136
X15.244Y-4.9005
X15.244Y-5.0136
X15.2675Y-3.457
X15.2675Y-4.957
T3
X3.2649Y-2.525
X3.3586Y-3.275
X3.3586Y-4.775
X3.5461Y-4.025
X3.8101Y-2.425
X3.9039Y-3.175
X3.9039Y-4.675
X4.0149Y-2.525
X4.0914Y-3.925
X4.2024Y-3.275
X4.2024Y-4.775
X4.5602Y-2.425
X4.5774Y-4.025
X4.7476Y-3.175
X4.7476Y-4.675
X4.7649Y-2.525
X4.9524Y-3.275
X5.0461Y-4.775
X5.1226Y-3.925
X5.3102Y-2.425
X5.3274Y-4.025
X5.4976Y-3.175
X5.5149Y-2.525
X5.5914Y-4.675
X5.7024Y-3.275
X5.8726Y-3.925
X6.0602Y-2.425
X6.0774Y-4.025
X6.2476Y-3.175
X6.2649Y-2.525
X6.3586Y-4.775
X6.4524Y-3.275
X6.6226Y-3.925
X6.8102Y-2.425
X6.8274Y-4.025
X6.9039Y-4.675
X6.9976Y-3.175
X7.0149Y-2.525
X7.2024Y-3.275
X7.3726Y-3.925
X7.5602Y-2.425
X7.5774Y-4.025
X7.6711Y-4.775
X7.7476Y-3.175
X7.7649Y-2.525
X7.9524Y-3.275
X8.1226Y-3.925
X8.2164Y-4.675
X8.2336Y-4.775
X8.3102Y-2.425
X8.3274Y-4.025
X8.3774Y-5.075
X8.4976Y-3.175
X8.5149Y-2.525
X8.7024Y-3.275
X8.7789Y-4.675
X8.8726Y-3.925
X8.9226Y-4.975
X9.0602Y-2.425
X9.0774Y-4.025
X9.1711Y-4.775
X9.2476Y-3.175
X9.2649Y-2.525
X9.4524Y-3.275
X9.6226Y-3.925
X9.7164Y-4.675
X9.7336Y-4.775
X9.8102Y-2.425
X9.8274Y-4.025
X9.9976Y-3.175
X10.0149Y-2.525
X10.2024Y-3.275
X10.2789Y-4.675
X10.3726Y-3.925
X10.5602Y-2.425
X10.5774Y-4.025
X10.6711Y-4.775
X10.7476Y-3.175
X10.7649Y-2.525
X10.9524Y-3.275
X11.1226Y-3.925
X11.2164Y-4.675
X11.3102Y-2.425
X11.3274Y-4.025
X11.4711Y-4.325
X11.4976Y-3.175
X11.5149Y-4.775
X11.5649Y-2.825
X11.7024Y-3.275
X11.8726Y-3.925
X11.8898Y-2.525
X12.0164Y-4.225
X12.0336Y-3.575
X12.0602Y-4.675
X12.1102Y-2.725
X12.1711Y-4.025
X12.2476Y-3.175
X12.2649Y-4.775
X12.3149Y-2.825
X12.3149Y-4.325
X12.4351Y-2.425
X12.5789Y-3.475
X12.7164Y-3.925
X12.7336Y-3.275
X12.8102Y-4.675
X12.8602Y-2.725
X12.8602Y-4.225
X13.0149Y-2.525
X13.0149Y-4.025
X13.0149Y-4.775
X13.0649Y-3.575
X13.2789Y-3.175
X13.5602Y-2.425
X13.5602Y-3.925
X13.5602Y-4.675
X13.6102Y-3.475
X13.7649Y-2.525
X13.7649Y-3.275
X13.7649Y-4.025
X13.7649Y-4.775
X14.1898Y-5.075
X14.3102Y-2.425
X14.3102Y-3.175
X14.3102Y-3.925
X14.3102Y-4.675
X14.5149Y-2.525
X14.5149Y-3.275
X14.5149Y-4.025
X14.5149Y-4.775
X14.7351Y-4.975
X15.0602Y-2.425
X15.0602Y-3.175
X15.0602Y-3.925
X15.0602Y-4.675
X15.2649Y-2.525
X15.2649Y-3.275
X15.2649Y-4.025
X15.2649Y-4.775
X15.8102Y-2.425
X15.8102Y-3.175
X15.8102Y-3.925
X15.8102Y-4.675
T5
X5.8328Y-4.775
X5.8328Y-4.875
X5.8328Y-4.975
X5.9328Y-4.775
X5.9328Y-4.875
X5.9328Y-4.975
T6
X3.298Y-3.5996
X3.298Y-3.7168
X3.298Y-3.834
X3.298Y-3.9511
T7
X4.0781Y-3.457
X4.0781Y-4.957
X5.4375Y-2.707
X7.5Y-4.957
X7.875Y-3.457
X11.3906Y-4.957
X11.625Y-3.457
X13.6875Y-2.707
X15.1875Y-3.457
X15.1875Y-4.957
T4
G00X9.3924Y-2.0765
M15
G01X9.3924Y-2.1001
M16
G05
G00X9.3924Y-2.2312
M15
G01X9.3924Y-2.2745
M16
G05
G00X9.7326Y-2.0765
M15
G01X9.7326Y-2.1001
M16
G05
G00X9.7326Y-2.2312
M15
G01X9.7326Y-2.2745
M16
G05
T0
M30
