G04 #@! TF.GenerationSoftware,KiCad,Pcbnew,(5.99.0-11177-g6c67dfa032)*
G04 #@! TF.CreationDate,2021-08-04T18:31:12+03:00*
G04 #@! TF.ProjectId,lyra_alpha,6c797261-5f61-46c7-9068-612e6b696361,rev?*
G04 #@! TF.SameCoordinates,Original*
G04 #@! TF.FileFunction,Soldermask,Top*
G04 #@! TF.FilePolarity,Negative*
%FSLAX46Y46*%
G04 Gerber Fmt 4.6, Leading zero omitted, Abs format (unit mm)*
G04 Created by KiCad (PCBNEW (5.99.0-11177-g6c67dfa032)) date 2021-08-04 18:31:12*
%MOMM*%
%LPD*%
G01*
G04 APERTURE LIST*
%ADD10C,1.701800*%
%ADD11C,3.000000*%
%ADD12C,3.987800*%
%ADD13C,4.000000*%
%ADD14C,3.050000*%
%ADD15R,1.600000X0.850000*%
%ADD16C,0.600000*%
%ADD17C,4.800000*%
%ADD18C,2.000000*%
%ADD19C,0.650000*%
%ADD20O,1.000000X2.100000*%
%ADD21O,1.000000X1.600000*%
%ADD22R,1.700000X1.700000*%
%ADD23O,1.700000X1.700000*%
G04 APERTURE END LIST*
D10*
X283686000Y-123825000D03*
D11*
X274796000Y-121285000D03*
D10*
X273526000Y-123825000D03*
D12*
X278606000Y-123825000D03*
D11*
X281146000Y-118745000D03*
D13*
X378612000Y-115585000D03*
D14*
X378612000Y-130825000D03*
D13*
X354812000Y-115585000D03*
D14*
X354812000Y-130825000D03*
D15*
X244638000Y-53262400D03*
X244638000Y-51512400D03*
X241138000Y-51512400D03*
X241138000Y-53262400D03*
D16*
X139548841Y-70195441D03*
X136675159Y-67321759D03*
X140144000Y-68758600D03*
X136675159Y-70195441D03*
X139548841Y-67321759D03*
X136080000Y-68758600D03*
X138112000Y-66726600D03*
D17*
X138112000Y-68758600D03*
D16*
X138112000Y-70790600D03*
D13*
X157169000Y-115585000D03*
D14*
X180969000Y-130825000D03*
X157169000Y-130825000D03*
D13*
X180969000Y-115585000D03*
X228594000Y-115585000D03*
X204794000Y-115585000D03*
D14*
X228594000Y-130825000D03*
X204794000Y-130825000D03*
X297662000Y-59675000D03*
X321462000Y-59675000D03*
D13*
X321462000Y-74915000D03*
X297662000Y-74915000D03*
D11*
X86677500Y-64135000D03*
D12*
X90487500Y-66675000D03*
D10*
X95567500Y-66675000D03*
X85407500Y-66675000D03*
D11*
X93027500Y-61595000D03*
X124778000Y-64135000D03*
D10*
X133668000Y-66675000D03*
X123508000Y-66675000D03*
D12*
X128588000Y-66675000D03*
D11*
X131128000Y-61595000D03*
D10*
X161608000Y-66675000D03*
D11*
X169228000Y-61595000D03*
X162878000Y-64135000D03*
D12*
X166688000Y-66675000D03*
D10*
X171768000Y-66675000D03*
D11*
X207328000Y-61595000D03*
D10*
X209868000Y-66675000D03*
D11*
X200978000Y-64135000D03*
D10*
X199708000Y-66675000D03*
D12*
X204788000Y-66675000D03*
D11*
X245428000Y-61595000D03*
D10*
X237808000Y-66675000D03*
X247968000Y-66675000D03*
D11*
X239078000Y-64135000D03*
D12*
X242888000Y-66675000D03*
D10*
X286068000Y-66675000D03*
X275908000Y-66675000D03*
D12*
X280988000Y-66675000D03*
D11*
X283528000Y-61595000D03*
X277178000Y-64135000D03*
D12*
X319088000Y-66675000D03*
D10*
X314008000Y-66675000D03*
D11*
X322898000Y-69215000D03*
D10*
X324168000Y-66675000D03*
D11*
X316548000Y-71755000D03*
D10*
X362268000Y-66675000D03*
D11*
X353378000Y-64135000D03*
D12*
X357188000Y-66675000D03*
D11*
X359728000Y-61595000D03*
D10*
X352108000Y-66675000D03*
X390208000Y-66675000D03*
D11*
X391478000Y-64135000D03*
D12*
X395288000Y-66675000D03*
D10*
X400368000Y-66675000D03*
D11*
X397828000Y-61595000D03*
D12*
X92868800Y-85725000D03*
D11*
X89058800Y-83185000D03*
D10*
X87788800Y-85725000D03*
X97948800Y-85725000D03*
D11*
X95408800Y-80645000D03*
X135890000Y-80645000D03*
D10*
X128270000Y-85725000D03*
D12*
X133350000Y-85725000D03*
D10*
X138430000Y-85725000D03*
D11*
X129540000Y-83185000D03*
X167640000Y-83185000D03*
X173990000Y-80645000D03*
D12*
X171450000Y-85725000D03*
D10*
X166370000Y-85725000D03*
X176530000Y-85725000D03*
X252730000Y-85725000D03*
X242570000Y-85725000D03*
D12*
X247650000Y-85725000D03*
D11*
X243840000Y-83185000D03*
X250190000Y-80645000D03*
D10*
X290830000Y-85725000D03*
D11*
X281940000Y-83185000D03*
D12*
X285750000Y-85725000D03*
D10*
X280670000Y-85725000D03*
D11*
X288290000Y-80645000D03*
D10*
X325914000Y-85725000D03*
D11*
X333534000Y-80645000D03*
X327184000Y-83185000D03*
D10*
X336074000Y-85725000D03*
D12*
X330994000Y-85725000D03*
D10*
X362268000Y-85725000D03*
D12*
X357188000Y-85725000D03*
D11*
X353378000Y-83185000D03*
D10*
X352108000Y-85725000D03*
D11*
X359728000Y-80645000D03*
D12*
X395288000Y-85725000D03*
D11*
X391478000Y-83185000D03*
D10*
X390208000Y-85725000D03*
D11*
X397828000Y-80645000D03*
D10*
X400368000Y-85725000D03*
D11*
X93821200Y-102235000D03*
X100171200Y-99695000D03*
D10*
X102711200Y-104775000D03*
X92551200Y-104775000D03*
D12*
X97631200Y-104775000D03*
X142875000Y-104775000D03*
D11*
X139065000Y-102235000D03*
D10*
X147955000Y-104775000D03*
X137795000Y-104775000D03*
D11*
X145415000Y-99695000D03*
D10*
X186055000Y-104775000D03*
X175895000Y-104775000D03*
D11*
X177165000Y-102235000D03*
X183515000Y-99695000D03*
D12*
X180975000Y-104775000D03*
D10*
X224155000Y-104775000D03*
D11*
X221615000Y-99695000D03*
D10*
X213995000Y-104775000D03*
D11*
X215265000Y-102235000D03*
D12*
X219075000Y-104775000D03*
X257175000Y-104775000D03*
D10*
X262255000Y-104775000D03*
D11*
X253365000Y-102235000D03*
X259715000Y-99695000D03*
D10*
X252095000Y-104775000D03*
X290195000Y-104775000D03*
X300355000Y-104775000D03*
D11*
X291465000Y-102235000D03*
X297815000Y-99695000D03*
D12*
X295275000Y-104775000D03*
X338138000Y-104775000D03*
D11*
X334328000Y-102235000D03*
D10*
X333058000Y-104775000D03*
D11*
X340678000Y-99695000D03*
D10*
X343218000Y-104775000D03*
D11*
X353378000Y-102235000D03*
D10*
X362268000Y-104775000D03*
D12*
X357188000Y-104775000D03*
D10*
X352108000Y-104775000D03*
D11*
X359728000Y-99695000D03*
D10*
X400368000Y-104775000D03*
X390208000Y-104775000D03*
D11*
X391478000Y-102235000D03*
D12*
X395288000Y-104775000D03*
D11*
X397828000Y-99695000D03*
D10*
X87788800Y-123825000D03*
D11*
X95408800Y-118745000D03*
X89058800Y-121285000D03*
D10*
X97948800Y-123825000D03*
D12*
X92868800Y-123825000D03*
D11*
X131921000Y-121285000D03*
D12*
X135731000Y-123825000D03*
D10*
X130651000Y-123825000D03*
X140811000Y-123825000D03*
D11*
X138271000Y-118745000D03*
D12*
X338138000Y-85725000D03*
D10*
X333058000Y-85725000D03*
D11*
X335598000Y-90805000D03*
D10*
X343218000Y-85725000D03*
D11*
X341948000Y-88265000D03*
X204946000Y-118745000D03*
D10*
X197326000Y-123825000D03*
D11*
X198596000Y-121285000D03*
D12*
X202406000Y-123825000D03*
D10*
X207486000Y-123825000D03*
D11*
X236696000Y-121285000D03*
D10*
X235426000Y-123825000D03*
X245586000Y-123825000D03*
D11*
X243046000Y-118745000D03*
D12*
X240506000Y-123825000D03*
D10*
X324168000Y-123825000D03*
D11*
X321628000Y-118745000D03*
D12*
X319088000Y-123825000D03*
D10*
X314008000Y-123825000D03*
D11*
X315278000Y-121285000D03*
D10*
X362268000Y-123825000D03*
X352108000Y-123825000D03*
D11*
X353378000Y-121285000D03*
D12*
X357188000Y-123825000D03*
D11*
X359728000Y-118745000D03*
X397828000Y-118745000D03*
X391478000Y-121285000D03*
D10*
X400368000Y-123825000D03*
X390208000Y-123825000D03*
D12*
X395288000Y-123825000D03*
D11*
X112078000Y-61595000D03*
D10*
X114618000Y-66675000D03*
D12*
X109538000Y-66675000D03*
D10*
X104458000Y-66675000D03*
D11*
X105728000Y-64135000D03*
D12*
X147638000Y-66675000D03*
D11*
X143828000Y-64135000D03*
X150178000Y-61595000D03*
D10*
X142558000Y-66675000D03*
X152718000Y-66675000D03*
D11*
X188278000Y-61595000D03*
X181928000Y-64135000D03*
D12*
X185738000Y-66675000D03*
D10*
X190818000Y-66675000D03*
X180658000Y-66675000D03*
D12*
X223838000Y-66675000D03*
D11*
X226378000Y-61595000D03*
X220028000Y-64135000D03*
D10*
X218758000Y-66675000D03*
X228918000Y-66675000D03*
D12*
X261938000Y-66675000D03*
D10*
X256858000Y-66675000D03*
X267018000Y-66675000D03*
D11*
X258128000Y-64135000D03*
X264478000Y-61595000D03*
D10*
X305118000Y-66675000D03*
D12*
X300038000Y-66675000D03*
D11*
X297498000Y-71755000D03*
D10*
X294958000Y-66675000D03*
D11*
X303848000Y-69215000D03*
D10*
X343218000Y-66675000D03*
D11*
X340678000Y-61595000D03*
X334328000Y-64135000D03*
D10*
X333058000Y-66675000D03*
D12*
X338138000Y-66675000D03*
D11*
X378778000Y-61595000D03*
D12*
X376238000Y-66675000D03*
D11*
X372428000Y-64135000D03*
D10*
X381318000Y-66675000D03*
X371158000Y-66675000D03*
X371792000Y-123825000D03*
D11*
X364172000Y-128905000D03*
D12*
X366712000Y-123825000D03*
D10*
X361632000Y-123825000D03*
D11*
X370522000Y-126365000D03*
D10*
X109220000Y-85725000D03*
D11*
X116840000Y-80645000D03*
D10*
X119380000Y-85725000D03*
D11*
X110490000Y-83185000D03*
D12*
X114300000Y-85725000D03*
D11*
X148590000Y-83185000D03*
X154940000Y-80645000D03*
D12*
X152400000Y-85725000D03*
D10*
X157480000Y-85725000D03*
X147320000Y-85725000D03*
X195580000Y-85725000D03*
D11*
X186690000Y-83185000D03*
D12*
X190500000Y-85725000D03*
D11*
X193040000Y-80645000D03*
D10*
X185420000Y-85725000D03*
X233680000Y-85725000D03*
X223520000Y-85725000D03*
D11*
X224790000Y-83185000D03*
X231140000Y-80645000D03*
D12*
X228600000Y-85725000D03*
D11*
X262890000Y-83185000D03*
X269240000Y-80645000D03*
D10*
X261620000Y-85725000D03*
D12*
X266700000Y-85725000D03*
D10*
X271780000Y-85725000D03*
D12*
X304800000Y-85725000D03*
D10*
X299720000Y-85725000D03*
X309880000Y-85725000D03*
D11*
X300990000Y-83185000D03*
X307340000Y-80645000D03*
D10*
X306864000Y-85725000D03*
D11*
X315754000Y-88265000D03*
D10*
X317024000Y-85725000D03*
D11*
X309404000Y-90805000D03*
D12*
X311944000Y-85725000D03*
X376238000Y-85725000D03*
D11*
X378778000Y-80645000D03*
D10*
X371158000Y-85725000D03*
D11*
X372428000Y-83185000D03*
D10*
X381318000Y-85725000D03*
X292576000Y-104775000D03*
D11*
X295116000Y-109855000D03*
D10*
X302736000Y-104775000D03*
D12*
X297656000Y-104775000D03*
D11*
X301466000Y-107315000D03*
D12*
X123825000Y-104775000D03*
D11*
X126365000Y-99695000D03*
X120015000Y-102235000D03*
D10*
X128905000Y-104775000D03*
X118745000Y-104775000D03*
D12*
X161925000Y-104775000D03*
D10*
X167005000Y-104775000D03*
X156845000Y-104775000D03*
D11*
X158115000Y-102235000D03*
X164465000Y-99695000D03*
X196215000Y-102235000D03*
D10*
X194945000Y-104775000D03*
D12*
X200025000Y-104775000D03*
D10*
X205105000Y-104775000D03*
D11*
X202565000Y-99695000D03*
X240665000Y-99695000D03*
X234315000Y-102235000D03*
D10*
X243205000Y-104775000D03*
X233045000Y-104775000D03*
D12*
X238125000Y-104775000D03*
D10*
X281305000Y-104775000D03*
D11*
X278765000Y-99695000D03*
D10*
X271145000Y-104775000D03*
D11*
X272415000Y-102235000D03*
D12*
X276225000Y-104775000D03*
D11*
X312896000Y-102235000D03*
D10*
X311626000Y-104775000D03*
D12*
X316706000Y-104775000D03*
D10*
X321786000Y-104775000D03*
D11*
X319246000Y-99695000D03*
D10*
X314642000Y-66675000D03*
X304482000Y-66675000D03*
D11*
X305752000Y-64135000D03*
D12*
X309562000Y-66675000D03*
D11*
X312102000Y-61595000D03*
X378778000Y-99695000D03*
D10*
X371158000Y-104775000D03*
D12*
X376238000Y-104775000D03*
D11*
X372428000Y-102235000D03*
D10*
X381318000Y-104775000D03*
D11*
X322898000Y-107315000D03*
D10*
X314008000Y-104775000D03*
D12*
X319088000Y-104775000D03*
D10*
X324168000Y-104775000D03*
D11*
X316548000Y-109855000D03*
X110490000Y-121285000D03*
X116840000Y-118745000D03*
D10*
X109220000Y-123825000D03*
X119380000Y-123825000D03*
D12*
X114300000Y-123825000D03*
X169069000Y-123825000D03*
D11*
X171609000Y-118745000D03*
X165259000Y-121285000D03*
D10*
X163989000Y-123825000D03*
X174149000Y-123825000D03*
X221774000Y-123825000D03*
D11*
X212884000Y-121285000D03*
D12*
X216694000Y-123825000D03*
D10*
X211614000Y-123825000D03*
D11*
X219234000Y-118745000D03*
D12*
X219075000Y-123825000D03*
D11*
X216535000Y-128905000D03*
X222885000Y-126365000D03*
D10*
X213995000Y-123825000D03*
X224155000Y-123825000D03*
D12*
X254794000Y-123825000D03*
D11*
X250984000Y-121285000D03*
D10*
X259874000Y-123825000D03*
D11*
X257334000Y-118745000D03*
D10*
X249714000Y-123825000D03*
X294958000Y-123825000D03*
D11*
X296228000Y-121285000D03*
X302578000Y-118745000D03*
D12*
X300038000Y-123825000D03*
D10*
X305118000Y-123825000D03*
D12*
X338138000Y-123825000D03*
D10*
X333058000Y-123825000D03*
D11*
X334328000Y-121285000D03*
D10*
X343218000Y-123825000D03*
D11*
X340678000Y-118745000D03*
D12*
X376238000Y-123825000D03*
D11*
X378778000Y-118745000D03*
D10*
X371158000Y-123825000D03*
X381318000Y-123825000D03*
D11*
X372428000Y-121285000D03*
D14*
X257169000Y-130825000D03*
X157169000Y-130825000D03*
D13*
X257169000Y-115585000D03*
X157169000Y-115585000D03*
D16*
X349098841Y-67321759D03*
X347662000Y-66726600D03*
X346225159Y-67321759D03*
X349694000Y-68758600D03*
X347662000Y-70790600D03*
X349098841Y-70195441D03*
X346225159Y-70195441D03*
X345630000Y-68758600D03*
D17*
X347662000Y-68758600D03*
D11*
X212090000Y-80645000D03*
D10*
X204470000Y-85725000D03*
X214630000Y-85725000D03*
D12*
X209550000Y-85725000D03*
D11*
X205740000Y-83185000D03*
D17*
X200025000Y-87808600D03*
D16*
X198588159Y-89245441D03*
X198588159Y-86371759D03*
X200025000Y-85776600D03*
X197993000Y-87808600D03*
X200025000Y-89840600D03*
X202057000Y-87808600D03*
X201461841Y-89245441D03*
X201461841Y-86371759D03*
X102147159Y-89245441D03*
X101552000Y-87808600D03*
X103584000Y-85776600D03*
X103584000Y-89840600D03*
X105616000Y-87808600D03*
X105020841Y-89245441D03*
X102147159Y-86371759D03*
D17*
X103584000Y-87808600D03*
D16*
X105020841Y-86371759D03*
X297307000Y-87808600D03*
X295275000Y-85776600D03*
X293838159Y-86371759D03*
D17*
X295275000Y-87808600D03*
D16*
X296711841Y-89245441D03*
X293838159Y-89245441D03*
X296711841Y-86371759D03*
X293243000Y-87808600D03*
X295275000Y-89840600D03*
X384325159Y-89245441D03*
X387198841Y-86371759D03*
X385762000Y-85776600D03*
D17*
X385762000Y-87808600D03*
D16*
X387794000Y-87808600D03*
X383730000Y-87808600D03*
X387198841Y-89245441D03*
X384325159Y-86371759D03*
X385762000Y-89840600D03*
X105020841Y-124472159D03*
X103584000Y-123877000D03*
X102147159Y-124472159D03*
X105020841Y-127345841D03*
X102147159Y-127345841D03*
X103584000Y-127941000D03*
X105616000Y-125909000D03*
X101552000Y-125909000D03*
D17*
X103584000Y-125909000D03*
D16*
X289322000Y-123877000D03*
X291354000Y-125909000D03*
X290758841Y-127345841D03*
D17*
X289322000Y-125909000D03*
D16*
X289322000Y-127941000D03*
X287885159Y-127345841D03*
X290758841Y-124472159D03*
X287290000Y-125909000D03*
X287885159Y-124472159D03*
X192532000Y-125909000D03*
D17*
X190500000Y-125909000D03*
D16*
X191936841Y-124472159D03*
X189063159Y-127345841D03*
X190500000Y-127941000D03*
X191936841Y-127345841D03*
X190500000Y-123877000D03*
X188468000Y-125909000D03*
X189063159Y-124472159D03*
X384325159Y-124472159D03*
X383730000Y-125909000D03*
X385762000Y-127941000D03*
X387198841Y-124472159D03*
X387794000Y-125909000D03*
D17*
X385762000Y-125909000D03*
D16*
X384325159Y-127345841D03*
X385762000Y-123877000D03*
X387198841Y-127345841D03*
D14*
X228606000Y-130825000D03*
D13*
X252406000Y-115585000D03*
D14*
X252406000Y-130825000D03*
D13*
X228606000Y-115585000D03*
D18*
X83770000Y-94406400D03*
X83770100Y-100359000D03*
X83770100Y-97382900D03*
D19*
X239998000Y-56692170D03*
X245778000Y-56692170D03*
D20*
X247208000Y-57222170D03*
X238568000Y-57222170D03*
D21*
X247208000Y-53042170D03*
X238568000Y-53042170D03*
D18*
X83770000Y-91429800D03*
D22*
X150693000Y-121285000D03*
D23*
X148153000Y-121285000D03*
X150693000Y-123825000D03*
X148153000Y-123825000D03*
X150693000Y-126365000D03*
X148153000Y-126365000D03*
M02*
