G04 #@! TF.GenerationSoftware,KiCad,Pcbnew,(5.99.0-10161-g3a96736b1f)*
G04 #@! TF.CreationDate,2021-06-27T22:24:53+03:00*
G04 #@! TF.ProjectId,lyra_alpha,6c797261-5f61-46c7-9068-612e6b696361,rev?*
G04 #@! TF.SameCoordinates,Original*
G04 #@! TF.FileFunction,Profile,NP*
%FSLAX46Y46*%
G04 Gerber Fmt 4.6, Leading zero omitted, Abs format (unit mm)*
G04 Created by KiCad (PCBNEW (5.99.0-10161-g3a96736b1f)) date 2021-06-27 22:24:53*
%MOMM*%
%LPD*%
G01*
G04 APERTURE LIST*
%ADD10C,0.200000*%
G04 APERTURE END LIST*
D10*
X83862100Y-132550000D02*
X146052599Y-132550000D01*
X293412900Y-58450000D02*
X293397927Y-58746503D01*
X293353981Y-59034443D01*
X293282519Y-59312361D01*
X293185000Y-59578800D01*
X293062880Y-59832300D01*
X292917618Y-60071406D01*
X292750672Y-60294658D01*
X292563500Y-60500600D01*
X292357558Y-60687772D01*
X292134306Y-60854718D01*
X291895200Y-60999980D01*
X291641700Y-61122100D01*
X291375261Y-61219619D01*
X291097343Y-61291081D01*
X290809403Y-61335027D01*
X290512900Y-61350000D01*
X353829800Y-132550000D02*
X354014864Y-132468105D01*
X354079800Y-132300000D01*
X257917800Y-132300000D02*
X257999694Y-132485064D01*
X258167800Y-132550000D01*
X204793200Y-131325699D02*
X205016222Y-131359418D01*
X205212526Y-131453790D01*
X205371932Y-131598634D01*
X205484259Y-131783770D01*
X205539327Y-131999018D01*
X205543200Y-132075699D01*
X297681000Y-59174300D02*
X297457977Y-59140580D01*
X297261673Y-59046208D01*
X297102267Y-58901364D01*
X296989940Y-58716228D01*
X296934872Y-58500980D01*
X296931000Y-58424300D01*
X287612900Y-58452300D02*
X287613000Y-58444500D01*
X388662900Y-58433700D02*
X388663100Y-58450000D01*
X382863100Y-58452300D02*
X382863200Y-58444500D01*
X102912000Y-58433700D02*
X102912200Y-58450000D01*
X229605500Y-132550000D02*
X251406200Y-132550000D01*
X146052599Y-132550000D02*
X146268089Y-132501348D01*
X146436788Y-132369897D01*
X146536111Y-132177406D01*
X146553000Y-132052100D01*
X269599200Y-132048900D02*
X269599100Y-132071700D01*
X347663000Y-129150000D02*
X347959503Y-129164972D01*
X348247443Y-129208916D01*
X348525361Y-129280373D01*
X348791800Y-129377882D01*
X349045300Y-129499985D01*
X349284406Y-129645222D01*
X349507658Y-129812134D01*
X349713600Y-129999262D01*
X349900772Y-130205145D01*
X350067718Y-130428324D01*
X350212980Y-130667341D01*
X350335100Y-130920735D01*
X350432619Y-131187047D01*
X350504081Y-131464819D01*
X350548027Y-131752589D01*
X350563000Y-132048900D01*
X229355500Y-132300000D02*
X229437394Y-132485064D01*
X229605500Y-132550000D01*
X82256599Y-117200200D02*
X82041822Y-117251178D01*
X81874730Y-117384012D01*
X81777612Y-117576142D01*
X81762100Y-117700200D01*
X351062400Y-132550000D02*
X353829800Y-132550000D01*
X350563000Y-132048900D02*
X350562900Y-132071700D01*
X263298900Y-132550000D02*
X263514389Y-132501348D01*
X263683087Y-132369897D01*
X263782410Y-132177406D01*
X263799300Y-132052100D01*
X400611900Y-114298100D02*
X400626872Y-114001596D01*
X400670816Y-113713656D01*
X400742273Y-113435738D01*
X400839782Y-113169300D01*
X400961885Y-112915799D01*
X401107123Y-112676693D01*
X401274035Y-112453441D01*
X401461162Y-112247500D01*
X401667045Y-112060327D01*
X401890225Y-111893381D01*
X402129241Y-111748119D01*
X402382635Y-111626000D01*
X402648948Y-111528480D01*
X402926719Y-111457018D01*
X403214489Y-111413072D01*
X403510800Y-111398100D01*
X152852300Y-132550000D02*
X156168200Y-132550000D01*
X270098600Y-132550000D02*
X344262700Y-132550000D01*
X377860300Y-132300000D02*
X377860300Y-132075699D01*
X227855500Y-132075699D02*
X227889219Y-131852676D01*
X227983591Y-131656372D01*
X228128435Y-131496966D01*
X228313571Y-131384639D01*
X228528819Y-131329571D01*
X228605500Y-131325699D01*
X296931000Y-58200000D02*
X296849105Y-58014935D01*
X296681000Y-57950000D01*
X157168200Y-131325699D02*
X157391222Y-131359418D01*
X157587526Y-131453790D01*
X157746932Y-131598634D01*
X157859259Y-131783770D01*
X157914327Y-131999018D01*
X157918200Y-132075699D01*
X100012200Y-61350000D02*
X99715695Y-61335027D01*
X99427755Y-61291085D01*
X99149837Y-61219634D01*
X98883399Y-61122135D01*
X98629898Y-61000050D01*
X98390793Y-60854840D01*
X98167540Y-60687965D01*
X97961599Y-60500887D01*
X97774427Y-60295067D01*
X97607480Y-60071967D01*
X97462219Y-59833048D01*
X97340099Y-59579770D01*
X97242580Y-59313595D01*
X97171118Y-59035984D01*
X97127172Y-58748399D01*
X97112200Y-58452300D01*
X181968000Y-132550000D02*
X203793200Y-132550000D01*
X344763000Y-132050000D02*
X344777972Y-131753495D01*
X344821918Y-131465555D01*
X344893380Y-131187637D01*
X344990900Y-130921199D01*
X345113019Y-130667698D01*
X345258281Y-130428593D01*
X345425227Y-130205340D01*
X345612400Y-129999399D01*
X345818341Y-129812227D01*
X346041593Y-129645280D01*
X346280699Y-129500019D01*
X346534200Y-129377899D01*
X346800638Y-129280380D01*
X347078556Y-129208918D01*
X347366496Y-129164972D01*
X347663000Y-129150000D01*
X344763100Y-132052100D02*
X344763000Y-132050000D01*
X290512900Y-61350000D02*
X290216396Y-61335027D01*
X289928456Y-61291085D01*
X289650538Y-61219634D01*
X289384100Y-61122135D01*
X289130599Y-61000050D01*
X288891493Y-60854840D01*
X288668241Y-60687965D01*
X288462300Y-60500887D01*
X288275127Y-60295067D01*
X288108181Y-60071967D01*
X287962919Y-59833048D01*
X287840800Y-59579770D01*
X287743280Y-59313595D01*
X287671818Y-59035984D01*
X287627872Y-58748399D01*
X287612900Y-58452300D01*
X404011899Y-110898700D02*
X404011899Y-60050000D01*
X181718000Y-132300000D02*
X181799894Y-132485064D01*
X181968000Y-132550000D01*
X403511899Y-117198100D02*
X403215395Y-117183127D01*
X402927455Y-117139181D01*
X402649537Y-117067719D01*
X402383099Y-116970200D01*
X402129598Y-116848080D01*
X401890493Y-116702818D01*
X401667241Y-116535872D01*
X401461299Y-116348700D01*
X401274127Y-116142758D01*
X401107181Y-115919506D01*
X400961919Y-115680400D01*
X400839799Y-115426900D01*
X400742280Y-115160461D01*
X400670818Y-114882543D01*
X400626872Y-114594603D01*
X400611900Y-114298100D01*
X293412700Y-58433700D02*
X293412900Y-58450000D01*
X355579800Y-132300000D02*
X355661693Y-132485064D01*
X355829800Y-132550000D01*
X180968000Y-131325699D02*
X181191022Y-131359418D01*
X181387326Y-131453790D01*
X181546732Y-131598634D01*
X181659059Y-131783770D01*
X181714127Y-131999018D01*
X181718000Y-132075699D01*
X205543200Y-132075699D02*
X205543200Y-132300000D01*
X298681000Y-57950000D02*
X298495935Y-58031894D01*
X298431000Y-58200000D01*
X385763100Y-61350000D02*
X385466596Y-61335027D01*
X385178656Y-61291085D01*
X384900738Y-61219634D01*
X384634300Y-61122135D01*
X384380799Y-61000050D01*
X384141693Y-60854840D01*
X383918441Y-60687965D01*
X383712500Y-60500887D01*
X383525327Y-60295067D01*
X383358381Y-60071967D01*
X383213119Y-59833048D01*
X383091000Y-59579770D01*
X382993480Y-59313595D01*
X382922018Y-59035984D01*
X382878072Y-58748399D01*
X382863100Y-58452300D01*
X238011000Y-50449900D02*
X237790923Y-50472503D01*
X237585198Y-50537218D01*
X237398446Y-50639406D01*
X237235287Y-50774425D01*
X237100342Y-50937634D01*
X236998232Y-51124393D01*
X236933578Y-51330062D01*
X236911000Y-51550000D01*
X320461500Y-57950000D02*
X319788215Y-57950000D01*
X319114931Y-57950000D01*
X318441646Y-57950000D01*
X317768362Y-57950000D01*
X317095078Y-57950000D01*
X316421793Y-57950000D01*
X315748509Y-57950000D01*
X315075225Y-57950000D01*
X314401940Y-57950000D01*
X313728656Y-57950000D01*
X313055371Y-57950000D01*
X312382087Y-57950000D01*
X311708803Y-57950000D01*
X311035518Y-57950000D01*
X310362234Y-57950000D01*
X309688950Y-57950000D01*
X309015665Y-57950000D01*
X308342381Y-57950000D01*
X307669096Y-57950000D01*
X306995812Y-57950000D01*
X306322528Y-57950000D01*
X305649243Y-57950000D01*
X304975959Y-57950000D01*
X304302675Y-57950000D01*
X303629390Y-57950000D01*
X302956106Y-57950000D01*
X302282821Y-57950000D01*
X301609537Y-57950000D01*
X300936253Y-57950000D01*
X300262968Y-57950000D01*
X299589684Y-57950000D01*
X298916400Y-57950000D01*
X156418200Y-132075699D02*
X156451919Y-131852676D01*
X156546291Y-131656372D01*
X156691135Y-131496966D01*
X156876271Y-131384639D01*
X157091519Y-131329571D01*
X157168200Y-131325699D01*
X228605500Y-131325699D02*
X228828522Y-131359418D01*
X229024826Y-131453790D01*
X229184232Y-131598634D01*
X229296559Y-131783770D01*
X229351627Y-131999018D01*
X229355500Y-132075699D01*
X146553000Y-132052100D02*
X146552900Y-132050000D01*
X355829800Y-132550000D02*
X377610300Y-132550000D01*
X404011899Y-130449999D02*
X404011899Y-117698399D01*
X149452900Y-129150000D02*
X149749403Y-129164972D01*
X150037343Y-129208916D01*
X150315261Y-129280373D01*
X150581700Y-129377882D01*
X150835200Y-129499985D01*
X151074306Y-129645222D01*
X151297558Y-129812134D01*
X151503500Y-129999262D01*
X151690672Y-130205145D01*
X151857618Y-130428324D01*
X152002880Y-130667341D01*
X152125000Y-130920735D01*
X152222519Y-131187047D01*
X152293981Y-131464819D01*
X152337927Y-131752589D01*
X152352900Y-132048900D01*
X296681000Y-57950000D02*
X296421464Y-57950000D01*
X296161934Y-57950000D01*
X295902406Y-57950000D01*
X295642881Y-57950000D01*
X295383357Y-57950000D01*
X295123834Y-57950000D01*
X294864310Y-57950000D01*
X294604784Y-57950000D01*
X294345255Y-57950000D01*
X294085723Y-57950000D01*
X293912700Y-57950000D01*
X248863100Y-51550000D02*
X248840665Y-51328942D01*
X248776360Y-51122748D01*
X248674685Y-50935920D01*
X248540137Y-50772962D01*
X248377216Y-50638377D01*
X248190420Y-50536670D01*
X247984248Y-50472343D01*
X247763200Y-50449900D01*
X251406200Y-132550000D02*
X251591264Y-132468105D01*
X251656200Y-132300000D01*
X404011899Y-60050000D02*
X404001002Y-59836110D01*
X403969029Y-59628211D01*
X403917058Y-59427380D01*
X403846167Y-59234693D01*
X403757433Y-59051229D01*
X403651934Y-58878066D01*
X403530746Y-58716280D01*
X403394949Y-58566950D01*
X403245618Y-58431152D01*
X403083832Y-58309964D01*
X402910669Y-58204465D01*
X402727205Y-58115731D01*
X402534519Y-58044840D01*
X402333687Y-57992869D01*
X402125788Y-57960896D01*
X401911900Y-57950000D01*
X203793200Y-132550000D02*
X203978264Y-132468105D01*
X204043200Y-132300000D01*
X377860300Y-132075699D02*
X377894019Y-131852676D01*
X377988391Y-131656372D01*
X378133235Y-131496966D01*
X378318371Y-131384639D01*
X378533619Y-131329571D01*
X378610300Y-131325699D01*
X258167800Y-132550000D02*
X263298900Y-132550000D01*
X157918200Y-132300000D02*
X158000094Y-132485064D01*
X158168200Y-132550000D01*
X192359200Y-58452300D02*
X192359300Y-58444500D01*
X354079800Y-132075699D02*
X354113519Y-131852676D01*
X354207891Y-131656372D01*
X354352735Y-131496966D01*
X354537871Y-131384639D01*
X354753119Y-131329571D01*
X354829800Y-131325699D01*
X82262100Y-111400300D02*
X82558603Y-111415272D01*
X82846543Y-111459218D01*
X83124461Y-111530680D01*
X83390900Y-111628200D01*
X83644400Y-111750319D01*
X83883506Y-111895581D01*
X84106758Y-112062527D01*
X84312700Y-112249700D01*
X84499872Y-112455641D01*
X84666818Y-112678893D01*
X84812080Y-112917999D01*
X84934200Y-113171500D01*
X85031719Y-113437938D01*
X85103181Y-113715856D01*
X85147127Y-114003796D01*
X85162100Y-114300300D01*
X103412000Y-57950000D02*
X103200826Y-57996698D01*
X103033645Y-58123588D01*
X102932094Y-58310860D01*
X102912000Y-58433700D01*
X263799199Y-132050000D02*
X263814171Y-131753495D01*
X263858117Y-131465555D01*
X263929579Y-131187637D01*
X264027099Y-130921199D01*
X264149218Y-130667698D01*
X264294480Y-130428593D01*
X264461426Y-130205340D01*
X264648599Y-129999399D01*
X264854540Y-129812227D01*
X265077793Y-129645280D01*
X265316898Y-129500019D01*
X265570399Y-129377899D01*
X265836838Y-129280380D01*
X266114756Y-129208918D01*
X266402696Y-129164972D01*
X266699200Y-129150000D01*
X296931000Y-58424300D02*
X296931000Y-58200000D01*
X82245800Y-111400500D02*
X82262100Y-111400300D01*
X256417800Y-132300000D02*
X256417800Y-132075699D01*
X204043200Y-132075699D02*
X204076919Y-131852676D01*
X204171291Y-131656372D01*
X204316135Y-131496966D01*
X204501271Y-131384639D01*
X204716519Y-131329571D01*
X204793200Y-131325699D01*
X401911900Y-132550000D02*
X402125690Y-132539096D01*
X402333515Y-132507105D01*
X402534296Y-132455108D01*
X402726952Y-132384184D01*
X402910403Y-132295413D01*
X403083569Y-132189876D01*
X403245369Y-132068653D01*
X403394724Y-131932824D01*
X403530553Y-131783469D01*
X403651776Y-131621669D01*
X403757313Y-131448503D01*
X403846083Y-131265052D01*
X403917007Y-131072396D01*
X403969004Y-130871615D01*
X404000995Y-130663789D01*
X404011899Y-130449999D01*
X377610300Y-132550000D02*
X377795364Y-132468105D01*
X377860300Y-132300000D01*
X344262700Y-132550000D02*
X344478189Y-132501348D01*
X344646887Y-132369897D01*
X344746210Y-132177406D01*
X344763100Y-132052100D01*
X81762100Y-60050000D02*
X81762100Y-110900500D01*
X195259200Y-61350000D02*
X194962696Y-61335027D01*
X194674756Y-61291085D01*
X194396838Y-61219634D01*
X194130400Y-61122135D01*
X193876899Y-61000050D01*
X193637793Y-60854840D01*
X193414541Y-60687965D01*
X193208600Y-60500887D01*
X193021427Y-60295067D01*
X192854481Y-60071967D01*
X192709219Y-59833048D01*
X192587100Y-59579770D01*
X192489580Y-59313595D01*
X192418118Y-59035984D01*
X192374172Y-58748399D01*
X192359200Y-58452300D01*
X247763200Y-50449900D02*
X247458446Y-50449900D01*
X247153692Y-50449900D01*
X246848938Y-50449900D01*
X246544183Y-50449900D01*
X246239427Y-50449900D01*
X245934672Y-50449900D01*
X245629915Y-50449900D01*
X245325159Y-50449900D01*
X245020402Y-50449900D01*
X244715645Y-50449900D01*
X244410888Y-50449900D01*
X244106130Y-50449900D01*
X243801373Y-50449900D01*
X243496615Y-50449900D01*
X243191857Y-50449900D01*
X242887100Y-50449900D01*
X242582342Y-50449900D01*
X242277584Y-50449900D01*
X241972826Y-50449900D01*
X241668069Y-50449900D01*
X241363311Y-50449900D01*
X241058554Y-50449900D01*
X240753797Y-50449900D01*
X240449040Y-50449900D01*
X240144284Y-50449900D01*
X239839527Y-50449900D01*
X239534772Y-50449900D01*
X239230016Y-50449900D01*
X238925261Y-50449900D01*
X238620507Y-50449900D01*
X238315753Y-50449900D01*
X238011000Y-50449900D01*
X83862100Y-57950000D02*
X83648144Y-57960892D01*
X83440196Y-57992853D01*
X83239331Y-58044805D01*
X83046624Y-58115675D01*
X82863152Y-58204384D01*
X82689990Y-58309859D01*
X82528214Y-58431023D01*
X82378899Y-58566800D01*
X82243122Y-58716114D01*
X82121959Y-58877890D01*
X82016484Y-59051052D01*
X81927774Y-59234525D01*
X81856905Y-59427231D01*
X81804953Y-59628096D01*
X81772992Y-59836044D01*
X81762100Y-60050000D01*
X156168200Y-132550000D02*
X156353264Y-132468105D01*
X156418200Y-132300000D01*
X227605500Y-132550000D02*
X227790564Y-132468105D01*
X227855500Y-132300000D01*
X320711500Y-58424300D02*
X320711500Y-58200000D01*
X198159200Y-58450000D02*
X198144227Y-58746503D01*
X198100281Y-59034443D01*
X198028819Y-59312361D01*
X197931299Y-59578800D01*
X197809180Y-59832300D01*
X197663918Y-60071406D01*
X197496972Y-60294658D01*
X197309799Y-60500600D01*
X197103858Y-60687772D01*
X196880605Y-60854718D01*
X196641500Y-60999980D01*
X196387999Y-61122100D01*
X196121561Y-61219619D01*
X195843643Y-61291081D01*
X195555703Y-61335027D01*
X195259200Y-61350000D01*
X256417800Y-132075699D02*
X256451519Y-131852676D01*
X256545891Y-131656372D01*
X256690735Y-131496966D01*
X256875871Y-131384639D01*
X257091119Y-131329571D01*
X257167800Y-131325699D01*
X263799300Y-132052100D02*
X263799199Y-132050000D01*
X158168200Y-132550000D02*
X179968000Y-132550000D01*
X181718000Y-132075699D02*
X181718000Y-132300000D01*
X322211500Y-58424300D02*
X322177780Y-58647322D01*
X322083408Y-58843626D01*
X321938564Y-59003032D01*
X321753428Y-59115359D01*
X321538180Y-59170427D01*
X321461500Y-59174300D01*
X382863200Y-58444500D02*
X382812221Y-58229723D01*
X382679387Y-58062630D01*
X382487257Y-57965512D01*
X382363200Y-57950000D01*
X321461500Y-59174300D02*
X321238477Y-59140580D01*
X321042173Y-59046208D01*
X320882767Y-58901364D01*
X320770440Y-58716228D01*
X320715372Y-58500980D01*
X320711500Y-58424300D01*
X227855500Y-132300000D02*
X227855500Y-132075699D01*
X382363200Y-57950000D02*
X380491274Y-57950000D01*
X378619348Y-57950000D01*
X376747422Y-57950000D01*
X374875495Y-57950000D01*
X373003568Y-57950000D01*
X371131640Y-57950000D01*
X369259712Y-57950000D01*
X367387784Y-57950000D01*
X365515855Y-57950000D01*
X363643926Y-57950000D01*
X361771997Y-57950000D01*
X359900068Y-57950000D01*
X358028138Y-57950000D01*
X356156209Y-57950000D01*
X354284279Y-57950000D01*
X352412350Y-57950000D01*
X350540420Y-57950000D01*
X348668490Y-57950000D01*
X346796561Y-57950000D01*
X344924631Y-57950000D01*
X343052702Y-57950000D01*
X341180773Y-57950000D01*
X339308844Y-57950000D01*
X337436915Y-57950000D01*
X335564987Y-57950000D01*
X333693059Y-57950000D01*
X331821131Y-57950000D01*
X329949204Y-57950000D01*
X328077277Y-57950000D01*
X326205351Y-57950000D01*
X324333425Y-57950000D01*
X322461500Y-57950000D01*
X253406200Y-132550000D02*
X256167800Y-132550000D01*
X257917800Y-132075699D02*
X257917800Y-132300000D01*
X81762100Y-110900500D02*
X81808798Y-111111672D01*
X81935688Y-111278853D01*
X82122960Y-111380405D01*
X82245800Y-111400500D01*
X85162100Y-114300300D02*
X85147127Y-114596803D01*
X85103185Y-114884743D01*
X85031734Y-115162661D01*
X84934235Y-115429100D01*
X84812150Y-115682600D01*
X84666940Y-115921706D01*
X84500065Y-116144958D01*
X84312987Y-116350900D01*
X84107167Y-116538072D01*
X83884067Y-116705018D01*
X83645148Y-116850280D01*
X83391870Y-116972400D01*
X83125695Y-117069919D01*
X82848084Y-117141381D01*
X82560499Y-117185327D01*
X82264400Y-117200300D01*
X322461500Y-57950000D02*
X322276435Y-58031894D01*
X322211500Y-58200000D01*
X152352800Y-132071700D02*
X152408417Y-132280476D01*
X152541644Y-132441826D01*
X152730896Y-132535142D01*
X152852300Y-132550000D01*
X96612300Y-57950000D02*
X83862100Y-57950000D01*
X401911900Y-57950000D02*
X389162900Y-57950000D01*
X403510800Y-111398100D02*
X403533600Y-111398200D01*
X204043200Y-132300000D02*
X204043200Y-132075699D01*
X82264400Y-117200300D02*
X82256599Y-117200200D01*
X180218000Y-132300000D02*
X180218000Y-132075699D01*
X287613000Y-58444500D02*
X287562021Y-58229723D01*
X287429187Y-58062630D01*
X287237057Y-57965512D01*
X287113000Y-57950000D01*
X191859300Y-57950000D02*
X103412000Y-57950000D01*
X156418200Y-132300000D02*
X156418200Y-132075699D01*
X97112200Y-58452300D02*
X97112300Y-58444500D01*
X236911000Y-51550000D02*
X236910800Y-56049600D01*
X320711500Y-58200000D02*
X320629605Y-58014935D01*
X320461500Y-57950000D01*
X102912200Y-58450000D02*
X102897227Y-58746503D01*
X102853281Y-59034443D01*
X102781819Y-59312361D01*
X102684300Y-59578800D01*
X102562180Y-59832300D01*
X102416918Y-60071406D01*
X102249972Y-60294658D01*
X102062800Y-60500600D01*
X101856858Y-60687772D01*
X101633606Y-60854718D01*
X101394500Y-60999980D01*
X101141000Y-61122100D01*
X100874561Y-61219619D01*
X100596643Y-61291081D01*
X100308703Y-61335027D01*
X100012200Y-61350000D01*
X253156200Y-132300000D02*
X253238094Y-132485064D01*
X253406200Y-132550000D01*
X293912700Y-57950000D02*
X293701527Y-57996698D01*
X293534346Y-58123588D01*
X293432794Y-58310860D01*
X293412700Y-58433700D01*
X379610300Y-132550000D02*
X401911900Y-132550000D01*
X252406200Y-131325699D02*
X252629222Y-131359418D01*
X252825526Y-131453790D01*
X252984932Y-131598634D01*
X253097259Y-131783770D01*
X253152327Y-131999018D01*
X253156200Y-132075699D01*
X257167800Y-131325699D02*
X257390822Y-131359418D01*
X257587126Y-131453790D01*
X257746532Y-131598634D01*
X257858859Y-131783770D01*
X257913927Y-131999018D01*
X257917800Y-132075699D01*
X355579800Y-132075699D02*
X355579800Y-132300000D01*
X192359300Y-58444500D02*
X192308321Y-58229723D01*
X192175487Y-58062630D01*
X191983357Y-57965512D01*
X191859300Y-57950000D01*
X404011899Y-117698399D02*
X403963247Y-117482910D01*
X403831797Y-117314211D01*
X403639306Y-117214888D01*
X403514000Y-117198000D01*
X180218000Y-132075699D02*
X180251719Y-131852676D01*
X180346091Y-131656372D01*
X180490935Y-131496966D01*
X180676071Y-131384639D01*
X180891319Y-131329571D01*
X180968000Y-131325699D01*
X251656200Y-132300000D02*
X251656200Y-132075699D01*
X205543200Y-132300000D02*
X205625094Y-132485064D01*
X205793200Y-132550000D01*
X378610300Y-131325699D02*
X378833322Y-131359418D01*
X379029626Y-131453790D01*
X379189032Y-131598634D01*
X379301359Y-131783770D01*
X379356427Y-131999018D01*
X379360300Y-132075699D01*
X152352900Y-132048900D02*
X152352800Y-132071700D01*
X388663100Y-58450000D02*
X388648127Y-58746503D01*
X388604181Y-59034443D01*
X388532719Y-59312361D01*
X388435200Y-59578800D01*
X388313080Y-59832300D01*
X388167818Y-60071406D01*
X388000872Y-60294658D01*
X387813700Y-60500600D01*
X387607758Y-60687772D01*
X387384506Y-60854718D01*
X387145400Y-60999980D01*
X386891900Y-61122100D01*
X386625461Y-61219619D01*
X386347543Y-61291081D01*
X386059603Y-61335027D01*
X385763100Y-61350000D01*
X198659000Y-57950000D02*
X198447827Y-57996698D01*
X198280646Y-58123588D01*
X198179094Y-58310860D01*
X198159000Y-58433700D01*
X253156200Y-132075699D02*
X253156200Y-132300000D01*
X322211500Y-58200000D02*
X322211500Y-58424300D01*
X97112300Y-58444500D02*
X97061321Y-58229723D01*
X96928487Y-58062630D01*
X96736357Y-57965512D01*
X96612300Y-57950000D01*
X205793200Y-132550000D02*
X227605500Y-132550000D01*
X235087100Y-57949200D02*
X198659000Y-57950000D01*
X403533600Y-111398200D02*
X403742375Y-111342581D01*
X403903726Y-111209354D01*
X403997041Y-111020103D01*
X404011899Y-110898700D01*
X250686900Y-57950000D02*
X250400319Y-57925365D01*
X250130356Y-57854776D01*
X249879537Y-57743204D01*
X249650390Y-57595619D01*
X249445440Y-57416993D01*
X249267214Y-57212296D01*
X249118240Y-56986500D01*
X249001045Y-56744576D01*
X248918154Y-56491494D01*
X248872095Y-56232227D01*
X248863100Y-56058400D01*
X236910800Y-56049600D02*
X236890766Y-56310589D01*
X236832323Y-56568986D01*
X236737956Y-56819750D01*
X236610150Y-57057842D01*
X236451392Y-57278222D01*
X236264168Y-57475849D01*
X236050963Y-57645686D01*
X235814262Y-57782690D01*
X235556552Y-57881824D01*
X235280319Y-57938046D01*
X235087100Y-57949200D01*
X298431000Y-58200000D02*
X298431000Y-58424300D01*
X379360300Y-132300000D02*
X379442194Y-132485064D01*
X379610300Y-132550000D01*
X350562900Y-132071700D02*
X350618518Y-132280476D01*
X350751745Y-132441826D01*
X350940996Y-132535142D01*
X351062400Y-132550000D01*
X389162900Y-57950000D02*
X388951727Y-57996698D01*
X388784546Y-58123588D01*
X388682994Y-58310860D01*
X388662900Y-58433700D01*
X179968000Y-132550000D02*
X180153064Y-132468105D01*
X180218000Y-132300000D01*
X354829800Y-131325699D02*
X355052822Y-131359418D01*
X355249126Y-131453790D01*
X355408532Y-131598634D01*
X355520859Y-131783770D01*
X355575927Y-131999018D01*
X355579800Y-132075699D01*
X251656200Y-132075699D02*
X251689919Y-131852676D01*
X251784291Y-131656372D01*
X251929135Y-131496966D01*
X252114271Y-131384639D01*
X252329519Y-131329571D01*
X252406200Y-131325699D01*
X298916400Y-57950000D02*
X298681000Y-57950000D01*
X269599100Y-132071700D02*
X269654718Y-132280476D01*
X269787945Y-132441826D01*
X269977196Y-132535142D01*
X270098600Y-132550000D01*
X287113000Y-57950000D02*
X250686900Y-57950000D01*
X81762100Y-130449999D02*
X81773000Y-130663855D01*
X81804981Y-130871730D01*
X81856965Y-131072545D01*
X81927873Y-131265221D01*
X82016625Y-131448681D01*
X82122143Y-131621845D01*
X82243349Y-131783636D01*
X82379162Y-131932974D01*
X82528505Y-132068783D01*
X82690298Y-132189982D01*
X82863462Y-132295494D01*
X83046920Y-132384240D01*
X83239591Y-132455142D01*
X83440397Y-132507122D01*
X83648260Y-132539100D01*
X83862100Y-132550000D01*
X146552900Y-132050000D02*
X146567872Y-131753495D01*
X146611818Y-131465555D01*
X146683280Y-131187637D01*
X146780799Y-130921199D01*
X146902919Y-130667698D01*
X147048180Y-130428593D01*
X147215127Y-130205340D01*
X147402299Y-129999399D01*
X147608240Y-129812227D01*
X147831493Y-129645280D01*
X148070598Y-129500019D01*
X148324099Y-129377899D01*
X148590537Y-129280380D01*
X148868455Y-129208918D01*
X149156395Y-129164972D01*
X149452900Y-129150000D01*
X198159000Y-58433700D02*
X198159200Y-58450000D01*
X256167800Y-132550000D02*
X256352864Y-132468105D01*
X256417800Y-132300000D01*
X248863100Y-56058400D02*
X248863100Y-51550000D01*
X266699200Y-129150000D02*
X266995703Y-129164972D01*
X267283643Y-129208916D01*
X267561561Y-129280373D01*
X267827999Y-129377882D01*
X268081500Y-129499985D01*
X268320605Y-129645222D01*
X268543858Y-129812134D01*
X268749799Y-129999262D01*
X268936972Y-130205145D01*
X269103918Y-130428324D01*
X269249180Y-130667341D01*
X269371299Y-130920735D01*
X269468819Y-131187047D01*
X269540281Y-131464819D01*
X269584227Y-131752589D01*
X269599200Y-132048900D01*
X379360300Y-132075699D02*
X379360300Y-132300000D01*
X81762100Y-117700200D02*
X81762100Y-130449999D01*
X298431000Y-58424300D02*
X298397280Y-58647322D01*
X298302908Y-58843626D01*
X298158064Y-59003032D01*
X297972928Y-59115359D01*
X297757680Y-59170427D01*
X297681000Y-59174300D01*
X157918200Y-132075699D02*
X157918200Y-132300000D01*
X229355500Y-132075699D02*
X229355500Y-132300000D01*
X403514000Y-117198000D02*
X403511899Y-117198100D01*
X354079800Y-132300000D02*
X354079800Y-132075699D01*
M02*
