M48
; DRILL file {KiCad (5.99.0-11177-g6c67dfa032)} date Wednesday, August 04, 2021 at 06:31:08 PM
; FORMAT={-:-/ absolute / inch / decimal}
; #@! TF.CreationDate,2021-08-04T18:31:08+03:00
; #@! TF.GenerationSoftware,Kicad,Pcbnew,(5.99.0-11177-g6c67dfa032)
; #@! TF.FileFunction,NonPlated,1,2,NPTH
FMAT,2
INCH
; #@! TA.AperFunction,NonPlated,NPTH,ComponentDrill
T1C0.0256
; #@! TA.AperFunction,NonPlated,NPTH,ComponentDrill
T2C0.0670
; #@! TA.AperFunction,NonPlated,NPTH,ComponentDrill
T3C0.1181
; #@! TA.AperFunction,NonPlated,NPTH,ComponentDrill
T4C0.1201
; #@! TA.AperFunction,NonPlated,NPTH,ComponentDrill
T5C0.1570
; #@! TA.AperFunction,NonPlated,NPTH,ComponentDrill
T6C0.1575
%
G90
G05
T1
X9.4487Y-2.232
X9.6763Y-2.232
T2
X3.3625Y-2.625
X3.4563Y-3.375
X3.4563Y-4.875
X3.6437Y-4.125
X3.7625Y-2.625
X3.8563Y-3.375
X3.8563Y-4.875
X4.0437Y-4.125
X4.1125Y-2.625
X4.3Y-3.375
X4.3Y-4.875
X4.5125Y-2.625
X4.675Y-4.125
X4.7Y-3.375
X4.7Y-4.875
X4.8625Y-2.625
X5.05Y-3.375
X5.075Y-4.125
X5.1437Y-4.875
X5.2625Y-2.625
X5.425Y-4.125
X5.45Y-3.375
X5.5437Y-4.875
X5.6125Y-2.625
X5.8Y-3.375
X5.825Y-4.125
X6.0125Y-2.625
X6.175Y-4.125
X6.2Y-3.375
X6.3625Y-2.625
X6.4563Y-4.875
X6.55Y-3.375
X6.575Y-4.125
X6.7625Y-2.625
X6.8563Y-4.875
X6.925Y-4.125
X6.95Y-3.375
X7.1125Y-2.625
X7.3Y-3.375
X7.325Y-4.125
X7.5125Y-2.625
X7.675Y-4.125
X7.7Y-3.375
X7.7687Y-4.875
X7.8625Y-2.625
X8.05Y-3.375
X8.075Y-4.125
X8.1687Y-4.875
X8.2625Y-2.625
X8.3313Y-4.875
X8.425Y-4.125
X8.425Y-4.875
X8.45Y-3.375
X8.6125Y-2.625
X8.7313Y-4.875
X8.8Y-3.375
X8.825Y-4.125
X8.825Y-4.875
X9.0125Y-2.625
X9.175Y-4.125
X9.2Y-3.375
X9.2687Y-4.875
X9.3625Y-2.625
X9.55Y-3.375
X9.575Y-4.125
X9.6687Y-4.875
X9.7625Y-2.625
X9.8313Y-4.875
X9.925Y-4.125
X9.95Y-3.375
X10.1125Y-2.625
X10.2313Y-4.875
X10.3Y-3.375
X10.325Y-4.125
X10.5125Y-2.625
X10.675Y-4.125
X10.7Y-3.375
X10.7687Y-4.875
X10.8625Y-2.625
X11.05Y-3.375
X11.075Y-4.125
X11.1687Y-4.875
X11.2625Y-2.625
X11.425Y-4.125
X11.45Y-3.375
X11.5187Y-4.125
X11.6125Y-2.625
X11.6125Y-4.875
X11.8Y-3.375
X11.825Y-4.125
X11.9187Y-4.125
X11.9875Y-2.625
X12.0125Y-2.625
X12.0125Y-4.875
X12.0813Y-3.375
X12.2Y-3.375
X12.2687Y-4.125
X12.3625Y-2.625
X12.3625Y-4.125
X12.3625Y-4.875
X12.3875Y-2.625
X12.4813Y-3.375
X12.6687Y-4.125
X12.7625Y-2.625
X12.7625Y-4.125
X12.7625Y-4.875
X12.8313Y-3.375
X13.1125Y-2.625
X13.1125Y-3.375
X13.1125Y-4.125
X13.1125Y-4.875
X13.2313Y-3.375
X13.5125Y-2.625
X13.5125Y-3.375
X13.5125Y-4.125
X13.5125Y-4.875
X13.8625Y-2.625
X13.8625Y-3.375
X13.8625Y-4.125
X13.8625Y-4.875
X14.2375Y-4.875
X14.2625Y-2.625
X14.2625Y-3.375
X14.2625Y-4.125
X14.2625Y-4.875
X14.6125Y-2.625
X14.6125Y-3.375
X14.6125Y-4.125
X14.6125Y-4.875
X14.6375Y-4.875
X15.0125Y-2.625
X15.0125Y-3.375
X15.0125Y-4.125
X15.0125Y-4.875
X15.3625Y-2.625
X15.3625Y-3.375
X15.3625Y-4.125
X15.3625Y-4.875
X15.7625Y-2.625
X15.7625Y-3.375
X15.7625Y-4.125
X15.7625Y-4.875
T3
X3.4125Y-2.525
X3.5063Y-3.275
X3.5063Y-4.775
X3.6625Y-2.425
X3.6937Y-4.025
X3.7563Y-3.175
X3.7563Y-4.675
X3.9437Y-3.925
X4.1625Y-2.525
X4.35Y-3.275
X4.35Y-4.775
X4.4125Y-2.425
X4.6Y-3.175
X4.6Y-4.675
X4.725Y-4.025
X4.9125Y-2.525
X4.975Y-3.925
X5.1Y-3.275
X5.1625Y-2.425
X5.1937Y-4.775
X5.35Y-3.175
X5.4437Y-4.675
X5.475Y-4.025
X5.6625Y-2.525
X5.725Y-3.925
X5.85Y-3.275
X5.9125Y-2.425
X6.1Y-3.175
X6.225Y-4.025
X6.4125Y-2.525
X6.475Y-3.925
X6.5063Y-4.775
X6.6Y-3.275
X6.6625Y-2.425
X6.7563Y-4.675
X6.85Y-3.175
X6.975Y-4.025
X7.1625Y-2.525
X7.225Y-3.925
X7.35Y-3.275
X7.4125Y-2.425
X7.6Y-3.175
X7.725Y-4.025
X7.8187Y-4.775
X7.9125Y-2.525
X7.975Y-3.925
X8.0687Y-4.675
X8.1Y-3.275
X8.1625Y-2.425
X8.35Y-3.175
X8.3813Y-4.775
X8.475Y-4.025
X8.525Y-5.075
X8.6313Y-4.675
X8.6625Y-2.525
X8.725Y-3.925
X8.775Y-4.975
X8.85Y-3.275
X8.9125Y-2.425
X9.1Y-3.175
X9.225Y-4.025
X9.3187Y-4.775
X9.4125Y-2.525
X9.475Y-3.925
X9.5687Y-4.675
X9.6Y-3.275
X9.6625Y-2.425
X9.85Y-3.175
X9.8813Y-4.775
X9.975Y-4.025
X10.1313Y-4.675
X10.1625Y-2.525
X10.225Y-3.925
X10.35Y-3.275
X10.4125Y-2.425
X10.6Y-3.175
X10.725Y-4.025
X10.8187Y-4.775
X10.9125Y-2.525
X10.975Y-3.925
X11.0687Y-4.675
X11.1Y-3.275
X11.1625Y-2.425
X11.35Y-3.175
X11.475Y-4.025
X11.6187Y-4.325
X11.6625Y-4.775
X11.7125Y-2.825
X11.725Y-3.925
X11.85Y-3.275
X11.8687Y-4.225
X11.9125Y-4.675
X11.9625Y-2.725
X12.0375Y-2.525
X12.1Y-3.175
X12.1813Y-3.575
X12.2875Y-2.425
X12.3187Y-4.025
X12.4125Y-4.775
X12.4313Y-3.475
X12.4625Y-2.825
X12.4625Y-4.325
X12.5687Y-3.925
X12.6625Y-4.675
X12.7125Y-2.725
X12.7125Y-4.225
X12.8813Y-3.275
X13.1313Y-3.175
X13.1625Y-2.525
X13.1625Y-4.025
X13.1625Y-4.775
X13.2125Y-3.575
X13.4125Y-2.425
X13.4125Y-3.925
X13.4125Y-4.675
X13.4625Y-3.475
X13.9125Y-2.525
X13.9125Y-3.275
X13.9125Y-4.025
X13.9125Y-4.775
X14.1625Y-2.425
X14.1625Y-3.175
X14.1625Y-3.925
X14.1625Y-4.675
X14.3375Y-5.075
X14.5875Y-4.975
X14.6625Y-2.525
X14.6625Y-3.275
X14.6625Y-4.025
X14.6625Y-4.775
X14.9125Y-2.425
X14.9125Y-3.175
X14.9125Y-3.925
X14.9125Y-4.675
X15.4125Y-2.525
X15.4125Y-3.275
X15.4125Y-4.025
X15.4125Y-4.775
X15.6625Y-2.425
X15.6625Y-3.175
X15.6625Y-3.925
X15.6625Y-4.675
T4
X6.1878Y-5.1506
X6.1878Y-5.1506
X7.1248Y-5.1506
X8.0628Y-5.1506
X8.9998Y-5.1506
X9.0002Y-5.1506
X9.9372Y-5.1506
X10.1248Y-5.1506
X11.719Y-2.3494
X12.656Y-2.3494
X13.969Y-5.1506
X14.906Y-5.1506
T5
X3.5625Y-2.625
X3.6563Y-3.375
X3.6563Y-4.875
X3.8437Y-4.125
X4.3125Y-2.625
X4.5Y-3.375
X4.5Y-4.875
X4.875Y-4.125
X5.0625Y-2.625
X5.25Y-3.375
X5.3437Y-4.875
X5.625Y-4.125
X5.8125Y-2.625
X6.0Y-3.375
X6.375Y-4.125
X6.5625Y-2.625
X6.6563Y-4.875
X6.75Y-3.375
X7.125Y-4.125
X7.3125Y-2.625
X7.5Y-3.375
X7.875Y-4.125
X7.9687Y-4.875
X8.0625Y-2.625
X8.25Y-3.375
X8.5313Y-4.875
X8.625Y-4.125
X8.625Y-4.875
X8.8125Y-2.625
X9.0Y-3.375
X9.375Y-4.125
X9.4687Y-4.875
X9.5625Y-2.625
X9.75Y-3.375
X10.0313Y-4.875
X10.125Y-4.125
X10.3125Y-2.625
X10.5Y-3.375
X10.875Y-4.125
X10.9687Y-4.875
X11.0625Y-2.625
X11.25Y-3.375
X11.625Y-4.125
X11.7187Y-4.125
X11.8125Y-2.625
X11.8125Y-4.875
X12.0Y-3.375
X12.1875Y-2.625
X12.2813Y-3.375
X12.4687Y-4.125
X12.5625Y-2.625
X12.5625Y-4.125
X12.5625Y-4.875
X13.0313Y-3.375
X13.3125Y-2.625
X13.3125Y-3.375
X13.3125Y-4.125
X13.3125Y-4.875
X14.0625Y-2.625
X14.0625Y-3.375
X14.0625Y-4.125
X14.0625Y-4.875
X14.4375Y-4.875
X14.8125Y-2.625
X14.8125Y-3.375
X14.8125Y-4.125
X14.8125Y-4.875
X15.5625Y-2.625
X15.5625Y-3.375
X15.5625Y-4.125
X15.5625Y-4.875
T6
X6.1878Y-4.5506
X6.1878Y-4.5506
X7.1248Y-4.5506
X8.0628Y-4.5506
X8.9998Y-4.5506
X9.0002Y-4.5506
X9.9372Y-4.5506
X10.1248Y-4.5506
X11.719Y-2.9494
X12.656Y-2.9494
X13.969Y-4.5506
X14.906Y-4.5506
T0
M30
