G04 #@! TF.GenerationSoftware,KiCad,Pcbnew,(5.99.0-11177-g6c67dfa032)*
G04 #@! TF.CreationDate,2021-08-04T18:31:12+03:00*
G04 #@! TF.ProjectId,lyra_alpha,6c797261-5f61-46c7-9068-612e6b696361,rev?*
G04 #@! TF.SameCoordinates,Original*
G04 #@! TF.FileFunction,Paste,Bot*
G04 #@! TF.FilePolarity,Positive*
%FSLAX46Y46*%
G04 Gerber Fmt 4.6, Leading zero omitted, Abs format (unit mm)*
G04 Created by KiCad (PCBNEW (5.99.0-11177-g6c67dfa032)) date 2021-08-04 18:31:12*
%MOMM*%
%LPD*%
G01*
G04 APERTURE LIST*
G04 Aperture macros list*
%AMRoundRect*
0 Rectangle with rounded corners*
0 $1 Rounding radius*
0 $2 $3 $4 $5 $6 $7 $8 $9 X,Y pos of 4 corners*
0 Add a 4 corners polygon primitive as box body*
4,1,4,$2,$3,$4,$5,$6,$7,$8,$9,$2,$3,0*
0 Add four circle primitives for the rounded corners*
1,1,$1+$1,$2,$3*
1,1,$1+$1,$4,$5*
1,1,$1+$1,$6,$7*
1,1,$1+$1,$8,$9*
0 Add four rect primitives between the rounded corners*
20,1,$1+$1,$2,$3,$4,$5,0*
20,1,$1+$1,$4,$5,$6,$7,0*
20,1,$1+$1,$6,$7,$8,$9,0*
20,1,$1+$1,$8,$9,$2,$3,0*%
%AMRotRect*
0 Rectangle, with rotation*
0 The origin of the aperture is its center*
0 $1 length*
0 $2 width*
0 $3 Rotation angle, in degrees counterclockwise*
0 Add horizontal line*
21,1,$1,$2,0,0,$3*%
G04 Aperture macros list end*
%ADD10R,2.550000X2.500000*%
%ADD11R,1.700000X1.000000*%
%ADD12R,1.300000X1.000000*%
%ADD13R,0.600000X1.450000*%
%ADD14R,0.300000X1.450000*%
%ADD15R,0.600000X1.200000*%
%ADD16RoundRect,0.250000X0.450000X-0.325000X0.450000X0.325000X-0.450000X0.325000X-0.450000X-0.325000X0*%
%ADD17R,1.250000X1.000000*%
%ADD18R,1.000000X1.300000*%
%ADD19R,1.000000X1.250000*%
%ADD20R,1.300000X1.500000*%
%ADD21RotRect,1.500000X0.550000X225.000000*%
%ADD22RotRect,1.500000X0.550000X135.000000*%
%ADD23RoundRect,0.250000X-0.450000X0.325000X-0.450000X-0.325000X0.450000X-0.325000X0.450000X0.325000X0*%
G04 APERTURE END LIST*
D10*
X284896000Y-118745000D03*
X271046000Y-121285000D03*
X96777500Y-61595000D03*
X82927500Y-64135000D03*
X134878000Y-61595000D03*
X121028000Y-64135000D03*
X172978000Y-61595000D03*
X159128000Y-64135000D03*
X211078000Y-61595000D03*
X197228000Y-64135000D03*
X249178000Y-61595000D03*
X235328000Y-64135000D03*
X287278000Y-61595000D03*
X273428000Y-64135000D03*
X312798000Y-71755000D03*
X326648000Y-69215000D03*
X363478000Y-61595000D03*
X349628000Y-64135000D03*
X401578000Y-61595000D03*
X387728000Y-64135000D03*
X99158800Y-80645000D03*
X85308800Y-83185000D03*
X139640000Y-80645000D03*
X125790000Y-83185000D03*
X177740000Y-80645000D03*
X163890000Y-83185000D03*
X253940000Y-80645000D03*
X240090000Y-83185000D03*
X292040000Y-80645000D03*
X278190000Y-83185000D03*
X337284000Y-80645000D03*
X323434000Y-83185000D03*
X363478000Y-80645000D03*
X349628000Y-83185000D03*
X401578000Y-80645000D03*
X387728000Y-83185000D03*
X103921200Y-99695000D03*
X90071200Y-102235000D03*
X149165000Y-99695000D03*
X135315000Y-102235000D03*
X187265000Y-99695000D03*
X173415000Y-102235000D03*
X225365000Y-99695000D03*
X211515000Y-102235000D03*
X263465000Y-99695000D03*
X249615000Y-102235000D03*
X301565000Y-99695000D03*
X287715000Y-102235000D03*
X344428000Y-99695000D03*
X330578000Y-102235000D03*
X363478000Y-99695000D03*
X349628000Y-102235000D03*
X401578000Y-99695000D03*
X387728000Y-102235000D03*
X99158800Y-118745000D03*
X85308800Y-121285000D03*
X142021000Y-118745000D03*
X128171000Y-121285000D03*
X331848000Y-90805000D03*
X345698000Y-88265000D03*
X208696000Y-118745000D03*
X194846000Y-121285000D03*
X246796000Y-118745000D03*
X232946000Y-121285000D03*
X325378000Y-118745000D03*
X311528000Y-121285000D03*
X363478000Y-118745000D03*
X349628000Y-121285000D03*
X401578000Y-118745000D03*
X387728000Y-121285000D03*
X115828000Y-61595000D03*
X101978000Y-64135000D03*
X153928000Y-61595000D03*
X140078000Y-64135000D03*
X192028000Y-61595000D03*
X178178000Y-64135000D03*
X230128000Y-61595000D03*
X216278000Y-64135000D03*
X268228000Y-61595000D03*
X254378000Y-64135000D03*
X293748000Y-71755000D03*
X307598000Y-69215000D03*
X344428000Y-61595000D03*
X330578000Y-64135000D03*
X382528000Y-61595000D03*
X368678000Y-64135000D03*
X360422000Y-128905000D03*
X374272000Y-126365000D03*
X120590000Y-80645000D03*
X106740000Y-83185000D03*
X158690000Y-80645000D03*
X144840000Y-83185000D03*
X196790000Y-80645000D03*
X182940000Y-83185000D03*
X234890000Y-80645000D03*
X221040000Y-83185000D03*
X272990000Y-80645000D03*
X259140000Y-83185000D03*
X311090000Y-80645000D03*
X297240000Y-83185000D03*
X305654000Y-90805000D03*
X319504000Y-88265000D03*
X382528000Y-80645000D03*
X368678000Y-83185000D03*
X291366000Y-109855000D03*
X305216000Y-107315000D03*
X130115000Y-99695000D03*
X116265000Y-102235000D03*
X168215000Y-99695000D03*
X154365000Y-102235000D03*
X206315000Y-99695000D03*
X192465000Y-102235000D03*
X244415000Y-99695000D03*
X230565000Y-102235000D03*
X282515000Y-99695000D03*
X268665000Y-102235000D03*
X322996000Y-99695000D03*
X309146000Y-102235000D03*
X315852000Y-61595000D03*
X302002000Y-64135000D03*
X382528000Y-99695000D03*
X368678000Y-102235000D03*
X312798000Y-109855000D03*
X326648000Y-107315000D03*
X120590000Y-118745000D03*
X106740000Y-121285000D03*
X175359000Y-118745000D03*
X161509000Y-121285000D03*
X222984000Y-118745000D03*
X209134000Y-121285000D03*
X212785000Y-128905000D03*
X226635000Y-126365000D03*
X261084000Y-118745000D03*
X247234000Y-121285000D03*
X306328000Y-118745000D03*
X292478000Y-121285000D03*
X344428000Y-118745000D03*
X330578000Y-121285000D03*
X382528000Y-118745000D03*
X368678000Y-121285000D03*
X215840000Y-80645000D03*
X201990000Y-83185000D03*
D11*
X93637500Y-71918800D03*
X87337500Y-71918800D03*
X93637500Y-75718800D03*
X87337500Y-75718800D03*
D12*
X109538000Y-96936900D03*
X109538000Y-94736900D03*
D13*
X239663000Y-58137170D03*
X240438000Y-58137170D03*
D14*
X241138000Y-58137170D03*
X241638000Y-58137170D03*
X242138000Y-58137170D03*
X242638000Y-58137170D03*
X243138000Y-58137170D03*
X243638000Y-58137170D03*
X244138000Y-58137170D03*
X244638000Y-58137170D03*
D13*
X245338000Y-58137170D03*
X246113000Y-58137170D03*
D12*
X111919000Y-96945300D03*
X111919000Y-94745300D03*
X114300000Y-94745300D03*
X114300000Y-96945300D03*
X114895000Y-91173500D03*
X114895000Y-93373500D03*
D15*
X110969000Y-91123500D03*
X111919000Y-91123500D03*
X112869000Y-91123500D03*
X112869000Y-93423500D03*
X111919000Y-93423500D03*
X110969000Y-93423500D03*
D12*
X108942000Y-93373500D03*
X108942000Y-91173500D03*
D16*
X270533000Y-127231000D03*
X270533000Y-125181000D03*
D17*
X116681000Y-96845300D03*
X116681000Y-94845300D03*
D18*
X98317200Y-113109000D03*
X100517200Y-113109000D03*
D19*
X98417200Y-111323000D03*
X100417200Y-111323000D03*
D17*
X104775000Y-94845300D03*
X104775000Y-96845300D03*
D19*
X121848000Y-114895000D03*
X119848000Y-114895000D03*
D17*
X107156000Y-94845300D03*
X107156000Y-96845300D03*
D19*
X125420000Y-114895000D03*
X123420000Y-114895000D03*
D20*
X123570000Y-113069000D03*
X125270000Y-110769000D03*
X123570000Y-110769000D03*
X125270000Y-113069000D03*
D19*
X125420000Y-108942000D03*
X123420000Y-108942000D03*
D18*
X119748000Y-108942000D03*
X121948000Y-108942000D03*
D21*
X111335082Y-101488064D03*
X111900767Y-102053750D03*
X112466452Y-102619435D03*
X113032138Y-103185120D03*
X113597823Y-103750806D03*
X114163509Y-104316491D03*
X114729194Y-104882177D03*
X115294880Y-105447862D03*
X115860565Y-106013548D03*
X116426250Y-106579233D03*
X116991936Y-107144918D03*
D22*
X116991936Y-109549082D03*
X116426250Y-110114767D03*
X115860565Y-110680452D03*
X115294880Y-111246138D03*
X114729194Y-111811823D03*
X114163509Y-112377509D03*
X113597823Y-112943194D03*
X113032138Y-113508880D03*
X112466452Y-114074565D03*
X111900767Y-114640250D03*
X111335082Y-115205936D03*
D21*
X108930918Y-115205936D03*
X108365233Y-114640250D03*
X107799548Y-114074565D03*
X107233862Y-113508880D03*
X106668177Y-112943194D03*
X106102491Y-112377509D03*
X105536806Y-111811823D03*
X104971120Y-111246138D03*
X104405435Y-110680452D03*
X103839750Y-110114767D03*
X103274064Y-109549082D03*
D22*
X103274064Y-107144918D03*
X103839750Y-106579233D03*
X104405435Y-106013548D03*
X104971120Y-105447862D03*
X105536806Y-104882177D03*
X106102491Y-104316491D03*
X106668177Y-103750806D03*
X107233862Y-103185120D03*
X107799548Y-102619435D03*
X108365233Y-102053750D03*
X108930918Y-101488064D03*
D19*
X121848000Y-110728000D03*
X119848000Y-110728000D03*
D16*
X330399000Y-68890600D03*
X330399000Y-66840600D03*
X98487500Y-67700000D03*
X98487500Y-65650000D03*
X120514000Y-70081200D03*
X120514000Y-68031200D03*
X174688000Y-67700000D03*
X174688000Y-65650000D03*
X212788000Y-67700000D03*
X212788000Y-65650000D03*
X250888000Y-67700000D03*
X250888000Y-65650000D03*
X288988000Y-67700000D03*
X288988000Y-65650000D03*
D23*
X327254000Y-63268800D03*
X327254000Y-65318800D03*
D16*
X365188000Y-67700000D03*
X365188000Y-65650000D03*
X386618000Y-70081200D03*
X386618000Y-68031200D03*
X84795300Y-89131200D03*
X84795300Y-87081200D03*
X141350000Y-86750000D03*
X141350000Y-84700000D03*
X179450000Y-86750000D03*
X179450000Y-84700000D03*
X217550000Y-86750000D03*
X217550000Y-84700000D03*
X255650000Y-86750000D03*
X255650000Y-84700000D03*
X277676000Y-89131200D03*
X277676000Y-87081200D03*
X322920000Y-89131200D03*
X322920000Y-87081200D03*
X365188000Y-86750000D03*
X365188000Y-84700000D03*
X390190000Y-89726500D03*
X390190000Y-87676500D03*
X89557800Y-108181000D03*
X89557800Y-106131000D03*
X150875000Y-105800000D03*
X150875000Y-103750000D03*
X188975000Y-105800000D03*
X188975000Y-103750000D03*
X227075000Y-105800000D03*
X227075000Y-103750000D03*
X265175000Y-105800000D03*
X265175000Y-103750000D03*
X287202000Y-108181000D03*
X287202000Y-106131000D03*
X346138000Y-105800000D03*
X346138000Y-103750000D03*
X365188000Y-105800000D03*
X365188000Y-103750000D03*
X386618000Y-108181000D03*
X386618000Y-106131000D03*
X84795300Y-127231000D03*
X84795300Y-125181000D03*
X143731000Y-124850000D03*
X143731000Y-122800000D03*
X194846000Y-127231000D03*
X194846000Y-125181000D03*
X232433000Y-127231000D03*
X232433000Y-125181000D03*
X327088000Y-124850000D03*
X327088000Y-122800000D03*
X349114000Y-127231000D03*
X349114000Y-125181000D03*
D23*
X390190000Y-125777000D03*
X390190000Y-127827000D03*
D16*
X117538000Y-67700000D03*
X117538000Y-65650000D03*
X155638000Y-67700000D03*
X155638000Y-65650000D03*
X193738000Y-67700000D03*
X193738000Y-65650000D03*
X231838000Y-67700000D03*
X231838000Y-65650000D03*
X269938000Y-67700000D03*
X269938000Y-65650000D03*
D23*
X292247000Y-65428300D03*
X292247000Y-67478300D03*
D16*
X384238000Y-67700000D03*
X384238000Y-65650000D03*
X122300000Y-86750000D03*
X122300000Y-84700000D03*
X160400000Y-86750000D03*
X160400000Y-84700000D03*
X182427000Y-89131200D03*
X182427000Y-87081200D03*
X236600000Y-86750000D03*
X236600000Y-84700000D03*
X274700000Y-86750000D03*
X274700000Y-84700000D03*
X300038000Y-90321900D03*
X300038000Y-88271900D03*
X368164000Y-89131200D03*
X368164000Y-87081200D03*
X131825000Y-105800000D03*
X131825000Y-103750000D03*
X169925000Y-105800000D03*
X169925000Y-103750000D03*
X208025000Y-105800000D03*
X208025000Y-103750000D03*
X246125000Y-105800000D03*
X246125000Y-103750000D03*
X284225000Y-105800000D03*
X284225000Y-103750000D03*
X308633000Y-108181000D03*
X308633000Y-106131000D03*
X384238000Y-105800000D03*
X384238000Y-103750000D03*
X122300000Y-124850000D03*
X122300000Y-122800000D03*
X177069000Y-124850000D03*
X177069000Y-122800000D03*
X308038000Y-124850000D03*
X308038000Y-122800000D03*
X346138000Y-124850000D03*
X346138000Y-122800000D03*
X385167000Y-120683000D03*
X385167000Y-118633000D03*
M02*
