G04 #@! TF.GenerationSoftware,KiCad,Pcbnew,(5.99.0-11177-g6c67dfa032)*
G04 #@! TF.CreationDate,2021-08-04T18:30:16+03:00*
G04 #@! TF.ProjectId,lyra_beta,6c797261-5f62-4657-9461-2e6b69636164,rev?*
G04 #@! TF.SameCoordinates,Original*
G04 #@! TF.FileFunction,Paste,Bot*
G04 #@! TF.FilePolarity,Positive*
%FSLAX46Y46*%
G04 Gerber Fmt 4.6, Leading zero omitted, Abs format (unit mm)*
G04 Created by KiCad (PCBNEW (5.99.0-11177-g6c67dfa032)) date 2021-08-04 18:30:16*
%MOMM*%
%LPD*%
G01*
G04 APERTURE LIST*
G04 Aperture macros list*
%AMRoundRect*
0 Rectangle with rounded corners*
0 $1 Rounding radius*
0 $2 $3 $4 $5 $6 $7 $8 $9 X,Y pos of 4 corners*
0 Add a 4 corners polygon primitive as box body*
4,1,4,$2,$3,$4,$5,$6,$7,$8,$9,$2,$3,0*
0 Add four circle primitives for the rounded corners*
1,1,$1+$1,$2,$3*
1,1,$1+$1,$4,$5*
1,1,$1+$1,$6,$7*
1,1,$1+$1,$8,$9*
0 Add four rect primitives between the rounded corners*
20,1,$1+$1,$2,$3,$4,$5,0*
20,1,$1+$1,$4,$5,$6,$7,0*
20,1,$1+$1,$6,$7,$8,$9,0*
20,1,$1+$1,$8,$9,$2,$3,0*%
%AMRotRect*
0 Rectangle, with rotation*
0 The origin of the aperture is its center*
0 $1 length*
0 $2 width*
0 $3 Rotation angle, in degrees counterclockwise*
0 Add horizontal line*
21,1,$1,$2,0,0,$3*%
G04 Aperture macros list end*
%ADD10R,2.550000X2.500000*%
%ADD11R,1.700000X1.000000*%
%ADD12R,1.300000X1.000000*%
%ADD13R,0.600000X1.450000*%
%ADD14R,0.300000X1.450000*%
%ADD15R,0.600000X1.200000*%
%ADD16RoundRect,0.250000X0.450000X-0.325000X0.450000X0.325000X-0.450000X0.325000X-0.450000X-0.325000X0*%
%ADD17R,1.250000X1.000000*%
%ADD18R,1.000000X1.300000*%
%ADD19R,1.000000X1.250000*%
%ADD20R,1.300000X1.500000*%
%ADD21RotRect,1.500000X0.550000X225.000000*%
%ADD22RotRect,1.500000X0.550000X135.000000*%
%ADD23RoundRect,0.250000X-0.450000X0.325000X-0.450000X-0.325000X0.450000X-0.325000X0.450000X0.325000X0*%
G04 APERTURE END LIST*
D10*
X342046000Y-118745000D03*
X328196000Y-121285000D03*
X153927500Y-61595000D03*
X140077500Y-64135000D03*
X192028000Y-61595000D03*
X178178000Y-64135000D03*
X230128000Y-61595000D03*
X216278000Y-64135000D03*
X268228000Y-61595000D03*
X254378000Y-64135000D03*
X306328000Y-61595000D03*
X292478000Y-64135000D03*
X344428000Y-61595000D03*
X330578000Y-64135000D03*
X369948000Y-71755000D03*
X383798000Y-69215000D03*
X96778000Y-61595000D03*
X82928000Y-64135000D03*
X134878000Y-61595000D03*
X121028000Y-64135000D03*
X156308800Y-80645000D03*
X142458800Y-83185000D03*
X196790000Y-80645000D03*
X182940000Y-83185000D03*
X234890000Y-80645000D03*
X221040000Y-83185000D03*
X311090000Y-80645000D03*
X297240000Y-83185000D03*
X349190000Y-80645000D03*
X335340000Y-83185000D03*
X394434000Y-80645000D03*
X380584000Y-83185000D03*
X96778000Y-80645000D03*
X82928000Y-83185000D03*
X161071200Y-99695000D03*
X147221200Y-102235000D03*
X206315000Y-99695000D03*
X192465000Y-102235000D03*
X244415000Y-99695000D03*
X230565000Y-102235000D03*
X282515000Y-99695000D03*
X268665000Y-102235000D03*
X320615000Y-99695000D03*
X306765000Y-102235000D03*
X358715000Y-99695000D03*
X344865000Y-102235000D03*
X401578000Y-99695000D03*
X387728000Y-102235000D03*
X96778000Y-99695000D03*
X82928000Y-102235000D03*
X134878000Y-99695000D03*
X121028000Y-102235000D03*
X156308800Y-118745000D03*
X142458800Y-121285000D03*
X199171000Y-118745000D03*
X185321000Y-121285000D03*
X388998000Y-90805000D03*
X402848000Y-88265000D03*
X265846000Y-118745000D03*
X251996000Y-121285000D03*
X303946000Y-118745000D03*
X290096000Y-121285000D03*
X382528000Y-118745000D03*
X368678000Y-121285000D03*
X96778000Y-118745000D03*
X82928000Y-121285000D03*
X134878000Y-118745000D03*
X121028000Y-121285000D03*
X172978000Y-61595000D03*
X159128000Y-64135000D03*
X211078000Y-61595000D03*
X197228000Y-64135000D03*
X249178000Y-61595000D03*
X235328000Y-64135000D03*
X287278000Y-61595000D03*
X273428000Y-64135000D03*
X325378000Y-61595000D03*
X311528000Y-64135000D03*
X350898000Y-71755000D03*
X364748000Y-69215000D03*
X401578000Y-61595000D03*
X387728000Y-64135000D03*
X115828000Y-61595000D03*
X101978000Y-64135000D03*
X93722000Y-128905000D03*
X107572000Y-126365000D03*
X177740000Y-80645000D03*
X163890000Y-83185000D03*
X215840000Y-80645000D03*
X201990000Y-83185000D03*
X253940000Y-80645000D03*
X240090000Y-83185000D03*
X292040000Y-80645000D03*
X278190000Y-83185000D03*
X330140000Y-80645000D03*
X316290000Y-83185000D03*
X368240000Y-80645000D03*
X354390000Y-83185000D03*
X362804000Y-90805000D03*
X376654000Y-88265000D03*
X115828000Y-80645000D03*
X101978000Y-83185000D03*
X348516000Y-109855000D03*
X362366000Y-107315000D03*
X187265000Y-99695000D03*
X173415000Y-102235000D03*
X225365000Y-99695000D03*
X211515000Y-102235000D03*
X263465000Y-99695000D03*
X249615000Y-102235000D03*
X301565000Y-99695000D03*
X287715000Y-102235000D03*
X339665000Y-99695000D03*
X325815000Y-102235000D03*
X380146000Y-99695000D03*
X366296000Y-102235000D03*
X373002000Y-61595000D03*
X359152000Y-64135000D03*
X115828000Y-99695000D03*
X101978000Y-102235000D03*
X369948000Y-109855000D03*
X383798000Y-107315000D03*
X177740000Y-118745000D03*
X163890000Y-121285000D03*
X232509000Y-118745000D03*
X218659000Y-121285000D03*
X280134000Y-118745000D03*
X266284000Y-121285000D03*
X269935000Y-128905000D03*
X283785000Y-126365000D03*
X318234000Y-118745000D03*
X304384000Y-121285000D03*
X363478000Y-118745000D03*
X349628000Y-121285000D03*
X401578000Y-118745000D03*
X387728000Y-121285000D03*
X115828000Y-118745000D03*
X101978000Y-121285000D03*
X272990000Y-80645000D03*
X259140000Y-83185000D03*
X134878000Y-80645000D03*
X121028000Y-83185000D03*
D11*
X87337500Y-71918800D03*
X93637500Y-71918800D03*
X87337500Y-75718800D03*
X93637500Y-75718800D03*
D12*
X166688000Y-96936900D03*
X166688000Y-94736900D03*
D13*
X239663000Y-58137170D03*
X240438000Y-58137170D03*
D14*
X241138000Y-58137170D03*
X241638000Y-58137170D03*
X242138000Y-58137170D03*
X242638000Y-58137170D03*
X243138000Y-58137170D03*
X243638000Y-58137170D03*
X244138000Y-58137170D03*
X244638000Y-58137170D03*
D13*
X245338000Y-58137170D03*
X246113000Y-58137170D03*
D12*
X169069000Y-96945300D03*
X169069000Y-94745300D03*
X171450000Y-94745300D03*
X171450000Y-96945300D03*
X172045000Y-91173500D03*
X172045000Y-93373500D03*
D15*
X168119000Y-91123500D03*
X169069000Y-91123500D03*
X170019000Y-91123500D03*
X170019000Y-93423500D03*
X169069000Y-93423500D03*
X168119000Y-93423500D03*
D12*
X166092000Y-93373500D03*
X166092000Y-91173500D03*
D16*
X330263000Y-128660000D03*
X330263000Y-126610000D03*
D17*
X173831000Y-96845300D03*
X173831000Y-94845300D03*
D18*
X155467200Y-113109000D03*
X157667200Y-113109000D03*
D19*
X155567200Y-111323000D03*
X157567200Y-111323000D03*
D17*
X161925000Y-94845300D03*
X161925000Y-96845300D03*
D19*
X178998000Y-114895000D03*
X176998000Y-114895000D03*
D17*
X164306000Y-94845300D03*
X164306000Y-96845300D03*
D19*
X182570000Y-114895000D03*
X180570000Y-114895000D03*
D20*
X180720000Y-113069000D03*
X182420000Y-110769000D03*
X182420000Y-113069000D03*
X180720000Y-110769000D03*
D19*
X182570000Y-108942000D03*
X180570000Y-108942000D03*
D18*
X176898000Y-108942000D03*
X179098000Y-108942000D03*
D21*
X168485082Y-101488064D03*
X169050767Y-102053750D03*
X169616452Y-102619435D03*
X170182138Y-103185120D03*
X170747823Y-103750806D03*
X171313509Y-104316491D03*
X171879194Y-104882177D03*
X172444880Y-105447862D03*
X173010565Y-106013548D03*
X173576250Y-106579233D03*
X174141936Y-107144918D03*
D22*
X174141936Y-109549082D03*
X173576250Y-110114767D03*
X173010565Y-110680452D03*
X172444880Y-111246138D03*
X171879194Y-111811823D03*
X171313509Y-112377509D03*
X170747823Y-112943194D03*
X170182138Y-113508880D03*
X169616452Y-114074565D03*
X169050767Y-114640250D03*
X168485082Y-115205936D03*
D21*
X166080918Y-115205936D03*
X165515233Y-114640250D03*
X164949548Y-114074565D03*
X164383862Y-113508880D03*
X163818177Y-112943194D03*
X163252491Y-112377509D03*
X162686806Y-111811823D03*
X162121120Y-111246138D03*
X161555435Y-110680452D03*
X160989750Y-110114767D03*
X160424064Y-109549082D03*
D22*
X160424064Y-107144918D03*
X160989750Y-106579233D03*
X161555435Y-106013548D03*
X162121120Y-105447862D03*
X162686806Y-104882177D03*
X163252491Y-104316491D03*
X163818177Y-103750806D03*
X164383862Y-103185120D03*
X164949548Y-102619435D03*
X165515233Y-102053750D03*
X166080918Y-101488064D03*
D19*
X178998000Y-110728000D03*
X176998000Y-110728000D03*
D16*
X387549000Y-68890600D03*
X387549000Y-66840600D03*
X155511500Y-67954000D03*
X155511500Y-65904000D03*
X177664000Y-70081200D03*
X177664000Y-68031200D03*
X231838000Y-67700000D03*
X231838000Y-65650000D03*
X269938000Y-67700000D03*
X269938000Y-65650000D03*
X308038000Y-67700000D03*
X308038000Y-65650000D03*
X347408500Y-64534000D03*
X347408500Y-62484000D03*
D23*
X384404000Y-63268800D03*
X384404000Y-65318800D03*
D16*
X98488000Y-67700000D03*
X98488000Y-65650000D03*
X119918000Y-70081200D03*
X119918000Y-68031200D03*
X141945300Y-89131200D03*
X141945300Y-87081200D03*
X198500000Y-86750000D03*
X198500000Y-84700000D03*
X236600000Y-86750000D03*
X236600000Y-84700000D03*
X256095500Y-88274000D03*
X256095500Y-86224000D03*
X312800000Y-86750000D03*
X312800000Y-84700000D03*
X334826000Y-89131200D03*
X334826000Y-87081200D03*
X380070000Y-89131200D03*
X380070000Y-87081200D03*
X95249500Y-89726500D03*
X95249500Y-87676500D03*
X123490000Y-89726500D03*
X123490000Y-87676500D03*
X146707800Y-108181000D03*
X146707800Y-106131000D03*
X208025000Y-105800000D03*
X208025000Y-103750000D03*
X246125000Y-105800000D03*
X246125000Y-103750000D03*
X284225000Y-105800000D03*
X284225000Y-103750000D03*
X322325000Y-105800000D03*
X322325000Y-103750000D03*
X344352000Y-108181000D03*
X344352000Y-106131000D03*
X390207000Y-109661600D03*
X390207000Y-107611600D03*
X98488000Y-105800000D03*
X98488000Y-103750000D03*
X119918000Y-108181000D03*
X119918000Y-106131000D03*
X141945300Y-127231000D03*
X141945300Y-125181000D03*
X200881000Y-124850000D03*
X200881000Y-122800000D03*
X251996000Y-127231000D03*
X251996000Y-125181000D03*
X289583000Y-127231000D03*
X289583000Y-125181000D03*
X368109000Y-126298600D03*
X368109000Y-124248600D03*
X85407500Y-128660000D03*
X85407500Y-126610000D03*
D23*
X123490000Y-126655000D03*
X123490000Y-128705000D03*
D16*
X174688000Y-67700000D03*
X174688000Y-65650000D03*
X212788000Y-67700000D03*
X212788000Y-65650000D03*
X250888000Y-67700000D03*
X250888000Y-65650000D03*
X288988000Y-67700000D03*
X288988000Y-65650000D03*
X327088000Y-67700000D03*
X327088000Y-65650000D03*
D23*
X329374500Y-67682000D03*
X329374500Y-69732000D03*
D16*
X117538000Y-67700000D03*
X117538000Y-65650000D03*
X201866500Y-88401000D03*
X201866500Y-86351000D03*
X217550000Y-86750000D03*
X217550000Y-84700000D03*
X239577000Y-89131200D03*
X239577000Y-87081200D03*
X293750000Y-86750000D03*
X293750000Y-84700000D03*
X331850000Y-86750000D03*
X331850000Y-84700000D03*
X357188000Y-90321900D03*
X357188000Y-88271900D03*
X105219000Y-89726500D03*
X105219000Y-87676500D03*
X188975000Y-105800000D03*
X188975000Y-103750000D03*
X227075000Y-105800000D03*
X227075000Y-103750000D03*
X265175000Y-105800000D03*
X265175000Y-103750000D03*
X303275000Y-105800000D03*
X303275000Y-103750000D03*
X341375000Y-105800000D03*
X341375000Y-103750000D03*
X365783000Y-108181000D03*
X365783000Y-106131000D03*
X117538000Y-105800000D03*
X117538000Y-103750000D03*
X179450000Y-124850000D03*
X179450000Y-122800000D03*
X234219000Y-124850000D03*
X234219000Y-122800000D03*
X365188000Y-124850000D03*
X365188000Y-122800000D03*
X390207000Y-128660000D03*
X390207000Y-126610000D03*
X118467000Y-120683000D03*
X118467000Y-118633000D03*
M02*
