G04 #@! TF.GenerationSoftware,KiCad,Pcbnew,(5.99.0-10161-g3a96736b1f)*
G04 #@! TF.CreationDate,2021-06-27T22:26:18+03:00*
G04 #@! TF.ProjectId,lyra_beta,6c797261-5f62-4657-9461-2e6b69636164,rev?*
G04 #@! TF.SameCoordinates,Original*
G04 #@! TF.FileFunction,Soldermask,Top*
G04 #@! TF.FilePolarity,Negative*
%FSLAX46Y46*%
G04 Gerber Fmt 4.6, Leading zero omitted, Abs format (unit mm)*
G04 Created by KiCad (PCBNEW (5.99.0-10161-g3a96736b1f)) date 2021-06-27 22:26:18*
%MOMM*%
%LPD*%
G01*
G04 APERTURE LIST*
G04 Aperture macros list*
%AMRoundRect*
0 Rectangle with rounded corners*
0 $1 Rounding radius*
0 $2 $3 $4 $5 $6 $7 $8 $9 X,Y pos of 4 corners*
0 Add a 4 corners polygon primitive as box body*
4,1,4,$2,$3,$4,$5,$6,$7,$8,$9,$2,$3,0*
0 Add four circle primitives for the rounded corners*
1,1,$1+$1,$2,$3*
1,1,$1+$1,$4,$5*
1,1,$1+$1,$6,$7*
1,1,$1+$1,$8,$9*
0 Add four rect primitives between the rounded corners*
20,1,$1+$1,$2,$3,$4,$5,0*
20,1,$1+$1,$4,$5,$6,$7,0*
20,1,$1+$1,$6,$7,$8,$9,0*
20,1,$1+$1,$8,$9,$2,$3,0*%
G04 Aperture macros list end*
%ADD10C,1.803800*%
%ADD11C,4.089800*%
%ADD12C,3.102000*%
%ADD13C,3.152000*%
%ADD14C,4.102000*%
%ADD15RoundRect,0.051000X0.800000X0.425000X-0.800000X0.425000X-0.800000X-0.425000X0.800000X-0.425000X0*%
%ADD16C,5.902000*%
%ADD17C,0.702000*%
%ADD18C,2.102000*%
%ADD19C,0.752000*%
%ADD20O,1.102000X2.202000*%
%ADD21O,1.102000X1.702000*%
%ADD22RoundRect,0.051000X0.850000X0.850000X-0.850000X0.850000X-0.850000X-0.850000X0.850000X-0.850000X0*%
%ADD23O,1.802000X1.802000*%
G04 APERTURE END LIST*
D10*
X330676000Y-123825000D03*
D11*
X335756000Y-123825000D03*
D12*
X338296000Y-118745000D03*
X331946000Y-121285000D03*
D10*
X340836000Y-123825000D03*
D13*
X111912000Y-130825000D03*
X88112000Y-130825000D03*
D14*
X111912000Y-115585000D03*
X88112000Y-115585000D03*
D15*
X244638000Y-53262400D03*
X244638000Y-51512400D03*
X241138000Y-51512400D03*
X241138000Y-53262400D03*
D16*
X180974500Y-87808600D03*
D17*
X178942500Y-87808600D03*
X179537659Y-89245441D03*
X180974500Y-89840600D03*
X182411341Y-89245441D03*
X183006500Y-87808600D03*
X182411341Y-86371759D03*
X180974500Y-85776600D03*
X179537659Y-86371759D03*
D13*
X238118750Y-130825000D03*
D14*
X238118750Y-115585000D03*
D13*
X214318750Y-130825000D03*
D14*
X214318750Y-115585000D03*
D13*
X285744000Y-130825000D03*
D14*
X261944000Y-115585000D03*
D13*
X261944000Y-130825000D03*
D14*
X285744000Y-115585000D03*
X354812000Y-74915000D03*
D13*
X354812000Y-59675000D03*
X378612000Y-59675000D03*
D14*
X378612000Y-74915000D03*
D12*
X143827500Y-64135000D03*
D11*
X147637500Y-66675000D03*
D10*
X152717500Y-66675000D03*
X142557500Y-66675000D03*
D12*
X150177500Y-61595000D03*
D10*
X190818000Y-66675000D03*
X180658000Y-66675000D03*
D12*
X181928000Y-64135000D03*
D11*
X185738000Y-66675000D03*
D12*
X188278000Y-61595000D03*
D10*
X228918000Y-66675000D03*
D12*
X220028000Y-64135000D03*
D11*
X223838000Y-66675000D03*
D12*
X226378000Y-61595000D03*
D10*
X218758000Y-66675000D03*
D12*
X264478000Y-61595000D03*
D10*
X267018000Y-66675000D03*
X256858000Y-66675000D03*
D12*
X258128000Y-64135000D03*
D11*
X261938000Y-66675000D03*
X300038000Y-66675000D03*
D12*
X302578000Y-61595000D03*
D10*
X294958000Y-66675000D03*
X305118000Y-66675000D03*
D12*
X296228000Y-64135000D03*
X340678000Y-61595000D03*
X334328000Y-64135000D03*
D10*
X333058000Y-66675000D03*
D11*
X338138000Y-66675000D03*
D10*
X343218000Y-66675000D03*
X371158000Y-66675000D03*
D12*
X380048000Y-69215000D03*
D11*
X376238000Y-66675000D03*
D10*
X381318000Y-66675000D03*
D12*
X373698000Y-71755000D03*
D10*
X85408000Y-66675000D03*
X95568000Y-66675000D03*
D12*
X86678000Y-64135000D03*
X93028000Y-61595000D03*
D11*
X90488000Y-66675000D03*
D10*
X123508000Y-66675000D03*
D11*
X128588000Y-66675000D03*
D10*
X133668000Y-66675000D03*
D12*
X124778000Y-64135000D03*
X131128000Y-61595000D03*
D11*
X150018800Y-85725000D03*
D10*
X155098800Y-85725000D03*
D12*
X152558800Y-80645000D03*
D10*
X144938800Y-85725000D03*
D12*
X146208800Y-83185000D03*
D11*
X190500000Y-85725000D03*
D12*
X193040000Y-80645000D03*
D10*
X185420000Y-85725000D03*
D12*
X186690000Y-83185000D03*
D10*
X195580000Y-85725000D03*
D12*
X224790000Y-83185000D03*
D10*
X233680000Y-85725000D03*
D11*
X228600000Y-85725000D03*
D12*
X231140000Y-80645000D03*
D10*
X223520000Y-85725000D03*
D12*
X307340000Y-80645000D03*
D11*
X304800000Y-85725000D03*
D10*
X299720000Y-85725000D03*
X309880000Y-85725000D03*
D12*
X300990000Y-83185000D03*
X339090000Y-83185000D03*
X345440000Y-80645000D03*
D11*
X342900000Y-85725000D03*
D10*
X337820000Y-85725000D03*
X347980000Y-85725000D03*
X393224000Y-85725000D03*
D12*
X390684000Y-80645000D03*
X384334000Y-83185000D03*
D10*
X383064000Y-85725000D03*
D11*
X388144000Y-85725000D03*
D10*
X95568000Y-85725000D03*
D12*
X86678000Y-83185000D03*
D11*
X90488000Y-85725000D03*
D10*
X85408000Y-85725000D03*
D12*
X93028000Y-80645000D03*
D10*
X149701200Y-104775000D03*
D12*
X157321200Y-99695000D03*
X150971200Y-102235000D03*
D10*
X159861200Y-104775000D03*
D11*
X154781200Y-104775000D03*
X200025000Y-104775000D03*
D12*
X202565000Y-99695000D03*
D10*
X205105000Y-104775000D03*
D12*
X196215000Y-102235000D03*
D10*
X194945000Y-104775000D03*
D12*
X240665000Y-99695000D03*
D10*
X243205000Y-104775000D03*
D12*
X234315000Y-102235000D03*
D11*
X238125000Y-104775000D03*
D10*
X233045000Y-104775000D03*
D11*
X276225000Y-104775000D03*
D10*
X281305000Y-104775000D03*
D12*
X278765000Y-99695000D03*
D10*
X271145000Y-104775000D03*
D12*
X272415000Y-102235000D03*
D10*
X319405000Y-104775000D03*
D12*
X316865000Y-99695000D03*
D10*
X309245000Y-104775000D03*
D11*
X314325000Y-104775000D03*
D12*
X310515000Y-102235000D03*
X354965000Y-99695000D03*
D10*
X347345000Y-104775000D03*
X357505000Y-104775000D03*
D12*
X348615000Y-102235000D03*
D11*
X352425000Y-104775000D03*
D10*
X390208000Y-104775000D03*
D12*
X397828000Y-99695000D03*
D10*
X400368000Y-104775000D03*
D12*
X391478000Y-102235000D03*
D11*
X395288000Y-104775000D03*
X90488000Y-104775000D03*
D10*
X85408000Y-104775000D03*
X95568000Y-104775000D03*
D12*
X93028000Y-99695000D03*
X86678000Y-102235000D03*
D10*
X123508000Y-104775000D03*
D12*
X131128000Y-99695000D03*
D10*
X133668000Y-104775000D03*
D11*
X128588000Y-104775000D03*
D12*
X124778000Y-102235000D03*
D11*
X150018800Y-123825000D03*
D12*
X152558800Y-118745000D03*
D10*
X144938800Y-123825000D03*
D12*
X146208800Y-121285000D03*
D10*
X155098800Y-123825000D03*
X197961000Y-123825000D03*
D11*
X192881000Y-123825000D03*
D10*
X187801000Y-123825000D03*
D12*
X189071000Y-121285000D03*
X195421000Y-118745000D03*
D11*
X395288000Y-85725000D03*
D12*
X392748000Y-90805000D03*
D10*
X400368000Y-85725000D03*
D12*
X399098000Y-88265000D03*
D10*
X390208000Y-85725000D03*
D12*
X262096000Y-118745000D03*
X255746000Y-121285000D03*
D11*
X259556000Y-123825000D03*
D10*
X264636000Y-123825000D03*
X254476000Y-123825000D03*
X292576000Y-123825000D03*
D12*
X300196000Y-118745000D03*
X293846000Y-121285000D03*
D11*
X297656000Y-123825000D03*
D10*
X302736000Y-123825000D03*
D12*
X372428000Y-121285000D03*
D10*
X371158000Y-123825000D03*
X381318000Y-123825000D03*
D11*
X376238000Y-123825000D03*
D12*
X378778000Y-118745000D03*
D11*
X90488000Y-123825000D03*
D12*
X86678000Y-121285000D03*
D10*
X95568000Y-123825000D03*
X85408000Y-123825000D03*
D12*
X93028000Y-118745000D03*
D10*
X133668000Y-123825000D03*
X123508000Y-123825000D03*
D12*
X131128000Y-118745000D03*
X124778000Y-121285000D03*
D11*
X128588000Y-123825000D03*
D12*
X169228000Y-61595000D03*
D11*
X166688000Y-66675000D03*
D10*
X161608000Y-66675000D03*
X171768000Y-66675000D03*
D12*
X162878000Y-64135000D03*
D11*
X204788000Y-66675000D03*
D10*
X209868000Y-66675000D03*
D12*
X200978000Y-64135000D03*
X207328000Y-61595000D03*
D10*
X199708000Y-66675000D03*
X237808000Y-66675000D03*
D11*
X242888000Y-66675000D03*
D10*
X247968000Y-66675000D03*
D12*
X245428000Y-61595000D03*
X239078000Y-64135000D03*
D10*
X275908000Y-66675000D03*
D12*
X277178000Y-64135000D03*
D10*
X286068000Y-66675000D03*
D12*
X283528000Y-61595000D03*
D11*
X280988000Y-66675000D03*
D10*
X324168000Y-66675000D03*
D12*
X321628000Y-61595000D03*
D11*
X319088000Y-66675000D03*
D10*
X314008000Y-66675000D03*
D12*
X315278000Y-64135000D03*
D10*
X362268000Y-66675000D03*
D12*
X354648000Y-71755000D03*
X360998000Y-69215000D03*
D10*
X352108000Y-66675000D03*
D11*
X357188000Y-66675000D03*
X395288000Y-66675000D03*
D10*
X390208000Y-66675000D03*
X400368000Y-66675000D03*
D12*
X397828000Y-61595000D03*
X391478000Y-64135000D03*
D11*
X109538000Y-66675000D03*
D12*
X105728000Y-64135000D03*
X112078000Y-61595000D03*
D10*
X114618000Y-66675000D03*
X104458000Y-66675000D03*
D12*
X103822000Y-126365000D03*
D11*
X100012000Y-123825000D03*
D12*
X97472000Y-128905000D03*
D10*
X94932000Y-123825000D03*
X105092000Y-123825000D03*
D12*
X167640000Y-83185000D03*
D10*
X176530000Y-85725000D03*
D11*
X171450000Y-85725000D03*
D10*
X166370000Y-85725000D03*
D12*
X173990000Y-80645000D03*
D10*
X214630000Y-85725000D03*
X204470000Y-85725000D03*
D11*
X209550000Y-85725000D03*
D12*
X205740000Y-83185000D03*
X212090000Y-80645000D03*
D10*
X252730000Y-85725000D03*
X242570000Y-85725000D03*
D12*
X250190000Y-80645000D03*
X243840000Y-83185000D03*
D11*
X247650000Y-85725000D03*
D10*
X290830000Y-85725000D03*
D11*
X285750000Y-85725000D03*
D12*
X288290000Y-80645000D03*
X281940000Y-83185000D03*
D10*
X280670000Y-85725000D03*
X328930000Y-85725000D03*
D12*
X320040000Y-83185000D03*
D11*
X323850000Y-85725000D03*
D10*
X318770000Y-85725000D03*
D12*
X326390000Y-80645000D03*
X358140000Y-83185000D03*
D11*
X361950000Y-85725000D03*
D10*
X356870000Y-85725000D03*
D12*
X364490000Y-80645000D03*
D10*
X367030000Y-85725000D03*
X374174000Y-85725000D03*
D12*
X366554000Y-90805000D03*
D10*
X364014000Y-85725000D03*
D11*
X369094000Y-85725000D03*
D12*
X372904000Y-88265000D03*
D10*
X114618000Y-85725000D03*
D11*
X109538000Y-85725000D03*
D10*
X104458000Y-85725000D03*
D12*
X105728000Y-83185000D03*
X112078000Y-80645000D03*
D10*
X349726000Y-104775000D03*
D12*
X358616000Y-107315000D03*
D10*
X359886000Y-104775000D03*
D11*
X354806000Y-104775000D03*
D12*
X352266000Y-109855000D03*
D10*
X175895000Y-104775000D03*
X186055000Y-104775000D03*
D11*
X180975000Y-104775000D03*
D12*
X177165000Y-102235000D03*
X183515000Y-99695000D03*
X215265000Y-102235000D03*
D10*
X213995000Y-104775000D03*
D12*
X221615000Y-99695000D03*
D11*
X219075000Y-104775000D03*
D10*
X224155000Y-104775000D03*
D11*
X257175000Y-104775000D03*
D12*
X253365000Y-102235000D03*
D10*
X252095000Y-104775000D03*
X262255000Y-104775000D03*
D12*
X259715000Y-99695000D03*
D10*
X300355000Y-104775000D03*
D12*
X297815000Y-99695000D03*
D10*
X290195000Y-104775000D03*
D12*
X291465000Y-102235000D03*
D11*
X295275000Y-104775000D03*
D12*
X335915000Y-99695000D03*
X329565000Y-102235000D03*
D10*
X328295000Y-104775000D03*
X338455000Y-104775000D03*
D11*
X333375000Y-104775000D03*
D10*
X378936000Y-104775000D03*
D12*
X376396000Y-99695000D03*
D10*
X368776000Y-104775000D03*
D11*
X373856000Y-104775000D03*
D12*
X370046000Y-102235000D03*
D10*
X371792000Y-66675000D03*
D11*
X366712000Y-66675000D03*
D12*
X369252000Y-61595000D03*
X362902000Y-64135000D03*
D10*
X361632000Y-66675000D03*
D12*
X112078000Y-99695000D03*
D11*
X109538000Y-104775000D03*
D12*
X105728000Y-102235000D03*
D10*
X104458000Y-104775000D03*
X114618000Y-104775000D03*
X371158000Y-104775000D03*
X381318000Y-104775000D03*
D12*
X373698000Y-109855000D03*
X380048000Y-107315000D03*
D11*
X376238000Y-104775000D03*
D12*
X167640000Y-121285000D03*
D10*
X176530000Y-123825000D03*
X166370000Y-123825000D03*
D12*
X173990000Y-118745000D03*
D11*
X171450000Y-123825000D03*
D12*
X222409000Y-121285000D03*
D11*
X226219000Y-123825000D03*
D10*
X231299000Y-123825000D03*
D12*
X228759000Y-118745000D03*
D10*
X221139000Y-123825000D03*
D12*
X270034000Y-121285000D03*
D11*
X273844000Y-123825000D03*
D10*
X278924000Y-123825000D03*
D12*
X276384000Y-118745000D03*
D10*
X268764000Y-123825000D03*
D12*
X273685000Y-128905000D03*
D10*
X271145000Y-123825000D03*
D12*
X280035000Y-126365000D03*
D10*
X281305000Y-123825000D03*
D11*
X276225000Y-123825000D03*
D10*
X317024000Y-123825000D03*
D12*
X314484000Y-118745000D03*
X308134000Y-121285000D03*
D11*
X311944000Y-123825000D03*
D10*
X306864000Y-123825000D03*
D11*
X357188000Y-123825000D03*
D12*
X359728000Y-118745000D03*
D10*
X362268000Y-123825000D03*
D12*
X353378000Y-121285000D03*
D10*
X352108000Y-123825000D03*
D12*
X391478000Y-121285000D03*
X397828000Y-118745000D03*
D10*
X400368000Y-123825000D03*
D11*
X395288000Y-123825000D03*
D10*
X390208000Y-123825000D03*
D11*
X109538000Y-123825000D03*
D10*
X104458000Y-123825000D03*
X114618000Y-123825000D03*
D12*
X112078000Y-118745000D03*
X105728000Y-121285000D03*
D16*
X347662000Y-68758600D03*
D17*
X345630000Y-68758600D03*
X346225159Y-70195441D03*
X347662000Y-70790600D03*
X349098841Y-70195441D03*
X349694000Y-68758600D03*
X349098841Y-67321759D03*
X347662000Y-66726600D03*
X346225159Y-67321759D03*
D10*
X261620000Y-85725000D03*
D12*
X262890000Y-83185000D03*
D10*
X271780000Y-85725000D03*
D12*
X269240000Y-80645000D03*
D11*
X266700000Y-85725000D03*
D16*
X276224500Y-87808600D03*
D17*
X274192500Y-87808600D03*
X274787659Y-89245441D03*
X276224500Y-89840600D03*
X277661341Y-89245441D03*
X278256500Y-87808600D03*
X277661341Y-86371759D03*
X276224500Y-85776600D03*
X274787659Y-86371759D03*
D16*
X352424500Y-87808600D03*
D17*
X350392500Y-87808600D03*
X350987659Y-89245441D03*
X352424500Y-89840600D03*
X353861341Y-89245441D03*
X354456500Y-87808600D03*
X353861341Y-86371759D03*
X352424500Y-85776600D03*
X350987659Y-86371759D03*
D16*
X100012000Y-87808600D03*
D17*
X97980000Y-87808600D03*
X98575159Y-89245441D03*
X100012000Y-89840600D03*
X101448841Y-89245441D03*
X102044000Y-87808600D03*
X101448841Y-86371759D03*
X100012000Y-85776600D03*
X98575159Y-86371759D03*
D16*
X385762000Y-125909000D03*
D17*
X383730000Y-125909000D03*
X384325159Y-127345841D03*
X385762000Y-127941000D03*
X387198841Y-127345841D03*
X387794000Y-125909000D03*
X387198841Y-124472159D03*
X385762000Y-123877000D03*
X384325159Y-124472159D03*
D16*
X205549500Y-125908600D03*
D17*
X203517500Y-125908600D03*
X204112659Y-127345441D03*
X205549500Y-127940600D03*
X206986341Y-127345441D03*
X207581500Y-125908600D03*
X206986341Y-124471759D03*
X205549500Y-123876600D03*
X204112659Y-124471759D03*
D16*
X119062000Y-125909000D03*
D17*
X117030000Y-125909000D03*
X117625159Y-127345841D03*
X119062000Y-127941000D03*
X120498841Y-127345841D03*
X121094000Y-125909000D03*
X120498841Y-124472159D03*
X119062000Y-123877000D03*
X117625159Y-124472159D03*
D13*
X309556000Y-130825000D03*
X285756000Y-130825000D03*
D14*
X309556000Y-115585000D03*
X285756000Y-115585000D03*
X214318500Y-115585000D03*
X314318500Y-115585000D03*
D13*
X314318500Y-130825000D03*
X214318500Y-130825000D03*
D16*
X138112500Y-68758600D03*
D17*
X136080500Y-68758600D03*
X136675659Y-70195441D03*
X138112500Y-70790600D03*
X139549341Y-70195441D03*
X140144500Y-68758600D03*
X139549341Y-67321759D03*
X138112500Y-66726600D03*
X136675659Y-67321759D03*
D16*
X323849500Y-125909000D03*
D17*
X321817500Y-125909000D03*
X322412659Y-127345841D03*
X323849500Y-127941000D03*
X325286341Y-127345841D03*
X325881500Y-125909000D03*
X325286341Y-124472159D03*
X323849500Y-123877000D03*
X322412659Y-124472159D03*
D11*
X128588000Y-85725000D03*
D12*
X124778000Y-83185000D03*
X131128000Y-80645000D03*
D10*
X133668000Y-85725000D03*
X123508000Y-85725000D03*
D18*
X83770000Y-91866400D03*
X83770100Y-97819000D03*
X83770100Y-94842900D03*
D19*
X245778000Y-56692170D03*
X239998000Y-56692170D03*
D20*
X238568000Y-57222170D03*
D21*
X238568000Y-53042170D03*
D20*
X247208000Y-57222170D03*
D21*
X247208000Y-53042170D03*
D18*
X83770000Y-88889800D03*
D22*
X206824500Y-111760000D03*
D23*
X204284500Y-111760000D03*
X206824500Y-114300000D03*
X204284500Y-114300000D03*
X206824500Y-116840000D03*
X204284500Y-116840000D03*
G36*
X103903665Y-124528482D02*
G01*
X103975335Y-124580553D01*
X103975863Y-124581740D01*
X103977294Y-124581977D01*
X104008058Y-124604328D01*
X104179919Y-124680846D01*
X104363935Y-124719959D01*
X104504904Y-124719959D01*
X104506636Y-124720959D01*
X104506636Y-124722959D01*
X104505613Y-124723829D01*
X104443343Y-124747438D01*
X104402137Y-124803106D01*
X104397570Y-124872214D01*
X104431145Y-124932923D01*
X104456478Y-124950478D01*
X104457332Y-124952287D01*
X104456193Y-124953930D01*
X104454622Y-124953989D01*
X104259347Y-124879029D01*
X104016139Y-124828221D01*
X103836344Y-124820056D01*
X103834659Y-124818978D01*
X103834750Y-124816980D01*
X103836388Y-124816059D01*
X103910614Y-124814310D01*
X103910598Y-124813626D01*
X103911557Y-124811871D01*
X103912284Y-124811604D01*
X103966922Y-124802935D01*
X104018600Y-124756825D01*
X104037145Y-124690097D01*
X104016653Y-124623883D01*
X103974759Y-124585062D01*
X103974422Y-124583973D01*
X103973183Y-124583917D01*
X103942638Y-124566846D01*
X103942318Y-124566623D01*
X103901193Y-124531623D01*
X103900522Y-124529739D01*
X103901818Y-124528216D01*
X103903665Y-124528482D01*
G37*
G36*
X271875993Y-124355220D02*
G01*
X271924309Y-124523716D01*
X271934593Y-124546814D01*
X271934384Y-124548803D01*
X271932557Y-124549616D01*
X271931133Y-124548782D01*
X271895700Y-124498672D01*
X271831489Y-124472717D01*
X271763242Y-124485635D01*
X271754995Y-124490898D01*
X271752997Y-124490987D01*
X271751921Y-124489301D01*
X271752433Y-124487874D01*
X271872584Y-124354433D01*
X271874486Y-124353815D01*
X271875993Y-124355220D01*
G37*
G36*
X278198487Y-124356749D02*
G01*
X278198635Y-124356897D01*
X278318912Y-124490478D01*
X278319328Y-124492434D01*
X278317842Y-124493772D01*
X278316611Y-124493643D01*
X278265594Y-124470890D01*
X278197132Y-124481355D01*
X278145049Y-124527302D01*
X278134945Y-124547605D01*
X278133278Y-124548710D01*
X278131487Y-124547819D01*
X278131275Y-124546030D01*
X278188757Y-124388099D01*
X278195193Y-124357819D01*
X278196531Y-124356333D01*
X278198487Y-124356749D01*
G37*
G36*
X271924333Y-123125338D02*
G01*
X271924301Y-123126312D01*
X271875993Y-123294780D01*
X271874554Y-123296170D01*
X271872584Y-123295567D01*
X271749955Y-123159375D01*
X271749539Y-123157419D01*
X271751025Y-123156081D01*
X271752230Y-123156199D01*
X271805108Y-123178902D01*
X271873419Y-123167482D01*
X271921034Y-123124280D01*
X271922989Y-123123857D01*
X271924333Y-123125338D01*
G37*
G36*
X278099284Y-123004431D02*
G01*
X278103228Y-123012072D01*
X278103336Y-123012321D01*
X278133279Y-123096876D01*
X278174030Y-123153249D01*
X278238509Y-123178530D01*
X278306616Y-123164898D01*
X278311893Y-123161439D01*
X278313889Y-123161326D01*
X278314986Y-123162999D01*
X278314475Y-123164450D01*
X278198635Y-123293103D01*
X278196733Y-123293721D01*
X278195247Y-123292383D01*
X278195193Y-123292181D01*
X278188757Y-123261901D01*
X278095628Y-123006032D01*
X278095975Y-123004062D01*
X278097854Y-123003378D01*
X278099284Y-123004431D01*
G37*
G36*
X105157778Y-122725217D02*
G01*
X105395383Y-122797861D01*
X105627350Y-122829636D01*
X105628931Y-122830861D01*
X105628659Y-122832843D01*
X105627485Y-122833575D01*
X105571384Y-122845208D01*
X105521937Y-122893701D01*
X105506555Y-122961229D01*
X105530148Y-123026420D01*
X105569821Y-123060993D01*
X105570282Y-123062336D01*
X105571730Y-123062392D01*
X105596954Y-123076030D01*
X105597278Y-123076248D01*
X105643815Y-123114748D01*
X105644512Y-123116623D01*
X105643237Y-123118164D01*
X105641364Y-123117907D01*
X105569603Y-123065769D01*
X105568979Y-123064366D01*
X105567331Y-123064119D01*
X105541942Y-123045672D01*
X105370081Y-122969154D01*
X105186065Y-122930041D01*
X105042101Y-122930041D01*
X105040369Y-122929041D01*
X105040369Y-122927041D01*
X105041366Y-122926181D01*
X105103712Y-122901542D01*
X105144136Y-122845305D01*
X105147738Y-122776140D01*
X105113326Y-122715920D01*
X105074161Y-122690515D01*
X105037782Y-122675780D01*
X105037510Y-122675645D01*
X104987402Y-122645834D01*
X104986425Y-122644089D01*
X104987448Y-122642370D01*
X104989308Y-122642320D01*
X105157778Y-122725217D01*
G37*
G36*
X313550937Y-117484797D02*
G01*
X313574431Y-117492430D01*
X313575769Y-117493916D01*
X313575151Y-117495818D01*
X313574937Y-117495986D01*
X313513394Y-117537811D01*
X313404111Y-117641154D01*
X313402166Y-117641618D01*
X313400791Y-117640164D01*
X313401326Y-117638283D01*
X313426963Y-117612780D01*
X313460458Y-117551818D01*
X313455698Y-117482724D01*
X313414228Y-117427023D01*
X313390937Y-117413230D01*
X313348606Y-117394117D01*
X313348366Y-117393988D01*
X313322903Y-117378015D01*
X313321967Y-117376248D01*
X313323030Y-117374553D01*
X313324843Y-117374523D01*
X313550937Y-117484797D01*
G37*
G36*
X111144437Y-117484797D02*
G01*
X111168269Y-117492540D01*
X111169607Y-117494026D01*
X111168989Y-117495928D01*
X111168775Y-117496096D01*
X111107394Y-117537811D01*
X110998124Y-117641142D01*
X110996179Y-117641606D01*
X110994804Y-117640152D01*
X110995339Y-117638271D01*
X111020807Y-117612936D01*
X111054302Y-117551974D01*
X111049542Y-117482880D01*
X111008072Y-117427180D01*
X110984782Y-117413387D01*
X110942110Y-117394119D01*
X110941870Y-117393990D01*
X110916407Y-117378017D01*
X110915471Y-117376250D01*
X110916534Y-117374555D01*
X110918347Y-117374525D01*
X111144437Y-117484797D01*
G37*
G36*
X261176437Y-117484797D02*
G01*
X261190797Y-117489463D01*
X261192135Y-117490949D01*
X261191517Y-117492851D01*
X261191303Y-117493019D01*
X261125394Y-117537811D01*
X261016126Y-117641140D01*
X261014181Y-117641604D01*
X261012806Y-117640150D01*
X261013341Y-117638269D01*
X261043178Y-117608588D01*
X261076673Y-117547626D01*
X261071913Y-117478532D01*
X261030443Y-117422832D01*
X261007152Y-117409039D01*
X260974112Y-117394121D01*
X260973872Y-117393992D01*
X260948402Y-117378015D01*
X260947466Y-117376248D01*
X260948529Y-117374553D01*
X260950342Y-117374523D01*
X261176437Y-117484797D01*
G37*
G36*
X263052592Y-117308631D02*
G01*
X263052047Y-117310004D01*
X263005380Y-117359462D01*
X262992629Y-117427536D01*
X263018757Y-117491824D01*
X263047253Y-117517921D01*
X263047499Y-117518084D01*
X263047740Y-117518271D01*
X263110034Y-117574657D01*
X263110647Y-117576561D01*
X263109305Y-117578044D01*
X263107423Y-117577685D01*
X262980037Y-117473049D01*
X262874345Y-117411535D01*
X262873351Y-117409799D01*
X262874351Y-117408074D01*
X263049592Y-117306899D01*
X263051592Y-117306899D01*
X263052592Y-117308631D01*
G37*
G36*
X315434151Y-117304555D02*
G01*
X315433606Y-117305928D01*
X315387043Y-117355276D01*
X315374292Y-117423349D01*
X315400420Y-117487637D01*
X315428921Y-117513740D01*
X315435503Y-117518088D01*
X315435743Y-117518274D01*
X315498032Y-117574655D01*
X315498645Y-117576559D01*
X315497303Y-117578042D01*
X315495421Y-117577683D01*
X315368037Y-117473049D01*
X315255623Y-117407622D01*
X315254629Y-117405886D01*
X315255629Y-117404161D01*
X315431151Y-117302823D01*
X315433151Y-117302823D01*
X315434151Y-117304555D01*
G37*
G36*
X113027912Y-117304405D02*
G01*
X113027367Y-117305778D01*
X112980809Y-117355122D01*
X112968058Y-117423195D01*
X112994186Y-117487483D01*
X113022683Y-117513582D01*
X113029504Y-117518089D01*
X113029743Y-117518275D01*
X113092024Y-117574649D01*
X113092637Y-117576553D01*
X113091295Y-117578036D01*
X113089413Y-117577677D01*
X112962037Y-117473049D01*
X112849374Y-117407477D01*
X112848380Y-117405741D01*
X112849380Y-117404016D01*
X113024912Y-117302673D01*
X113026912Y-117302673D01*
X113027912Y-117304405D01*
G37*
G36*
X371888234Y-105306062D02*
G01*
X371936308Y-105473713D01*
X371946976Y-105497673D01*
X371946767Y-105499663D01*
X371944940Y-105500476D01*
X371943516Y-105499642D01*
X371907911Y-105449289D01*
X371843700Y-105423334D01*
X371775452Y-105436252D01*
X371767755Y-105441164D01*
X371765757Y-105441253D01*
X371764681Y-105439567D01*
X371765193Y-105438140D01*
X371884825Y-105305275D01*
X371886727Y-105304657D01*
X371888234Y-105306062D01*
G37*
G36*
X350456993Y-105305220D02*
G01*
X350505309Y-105473716D01*
X350515593Y-105496814D01*
X350515384Y-105498803D01*
X350513557Y-105499616D01*
X350512133Y-105498782D01*
X350476700Y-105448672D01*
X350412489Y-105422717D01*
X350344242Y-105435635D01*
X350335995Y-105440898D01*
X350333997Y-105440987D01*
X350332921Y-105439301D01*
X350333433Y-105437874D01*
X350453584Y-105304433D01*
X350455486Y-105303815D01*
X350456993Y-105305220D01*
G37*
G36*
X378211296Y-105307647D02*
G01*
X378211444Y-105307795D01*
X378331374Y-105440991D01*
X378331790Y-105442947D01*
X378330304Y-105444285D01*
X378329073Y-105444156D01*
X378278350Y-105421534D01*
X378209888Y-105431999D01*
X378157803Y-105477948D01*
X378147738Y-105498171D01*
X378146071Y-105499276D01*
X378144281Y-105498385D01*
X378144069Y-105496596D01*
X378201757Y-105338099D01*
X378208002Y-105308717D01*
X378209340Y-105307231D01*
X378211296Y-105307647D01*
G37*
G36*
X356779487Y-105306749D02*
G01*
X356779635Y-105306897D01*
X356899912Y-105440478D01*
X356900328Y-105442434D01*
X356898842Y-105443772D01*
X356897611Y-105443643D01*
X356846594Y-105420890D01*
X356778132Y-105431355D01*
X356726049Y-105477302D01*
X356715945Y-105497605D01*
X356714278Y-105498710D01*
X356712487Y-105497819D01*
X356712275Y-105496030D01*
X356769757Y-105338099D01*
X356776193Y-105307819D01*
X356777531Y-105306333D01*
X356779487Y-105306749D01*
G37*
G36*
X350505333Y-104075338D02*
G01*
X350505301Y-104076312D01*
X350456993Y-104244780D01*
X350455554Y-104246170D01*
X350453584Y-104245567D01*
X350330955Y-104109375D01*
X350330539Y-104107419D01*
X350332025Y-104106081D01*
X350333230Y-104106199D01*
X350386108Y-104128902D01*
X350454419Y-104117482D01*
X350502034Y-104074280D01*
X350503989Y-104073857D01*
X350505333Y-104075338D01*
G37*
G36*
X371936608Y-104074664D02*
G01*
X371936480Y-104075901D01*
X371936308Y-104076288D01*
X371888234Y-104243938D01*
X371886795Y-104245328D01*
X371884825Y-104244725D01*
X371762507Y-104108877D01*
X371762091Y-104106921D01*
X371763577Y-104105583D01*
X371764782Y-104105701D01*
X371817340Y-104128267D01*
X371885651Y-104116847D01*
X371933309Y-104073606D01*
X371935264Y-104073183D01*
X371936608Y-104074664D01*
G37*
G36*
X356680284Y-103954431D02*
G01*
X356684228Y-103962072D01*
X356684336Y-103962321D01*
X356714279Y-104046876D01*
X356755030Y-104103249D01*
X356819509Y-104128530D01*
X356887616Y-104114898D01*
X356892893Y-104111439D01*
X356894889Y-104111326D01*
X356895986Y-104112999D01*
X356895475Y-104114450D01*
X356779635Y-104243103D01*
X356777733Y-104243721D01*
X356776247Y-104242383D01*
X356776193Y-104242181D01*
X356769757Y-104211901D01*
X356676628Y-103956032D01*
X356676975Y-103954062D01*
X356678854Y-103953378D01*
X356680284Y-103954431D01*
G37*
G36*
X378112284Y-103954431D02*
G01*
X378116228Y-103962072D01*
X378116336Y-103962321D01*
X378146057Y-104046250D01*
X378186808Y-104102623D01*
X378251286Y-104127904D01*
X378319393Y-104114272D01*
X378324147Y-104111156D01*
X378326143Y-104111043D01*
X378327240Y-104112716D01*
X378326729Y-104114167D01*
X378211444Y-104242205D01*
X378209542Y-104242823D01*
X378208056Y-104241485D01*
X378208002Y-104241283D01*
X378201757Y-104211901D01*
X378108628Y-103956032D01*
X378108975Y-103954062D01*
X378110854Y-103953378D01*
X378112284Y-103954431D01*
G37*
G36*
X353707102Y-72980525D02*
G01*
X353854847Y-73085522D01*
X353873791Y-73094843D01*
X353874904Y-73096505D01*
X353874021Y-73098300D01*
X353873785Y-73098436D01*
X353787498Y-73140521D01*
X353599834Y-73267102D01*
X353597839Y-73267242D01*
X353596721Y-73265584D01*
X353597466Y-73263883D01*
X353640380Y-73229502D01*
X353640603Y-73229347D01*
X353700520Y-73193488D01*
X353747723Y-73142399D01*
X353759761Y-73074194D01*
X353732938Y-73010129D01*
X353715675Y-72992753D01*
X353704672Y-72983699D01*
X353703970Y-72981827D01*
X353705241Y-72980282D01*
X353707102Y-72980525D01*
G37*
G36*
X355832804Y-72752041D02*
G01*
X355832372Y-72753989D01*
X355705408Y-72892788D01*
X355674823Y-72955257D01*
X355682833Y-73024052D01*
X355726894Y-73077753D01*
X355746613Y-73088677D01*
X355762889Y-73095822D01*
X355763130Y-73095948D01*
X355857816Y-73153972D01*
X355858770Y-73155729D01*
X355857725Y-73157435D01*
X355855771Y-73157409D01*
X355710218Y-73073374D01*
X355554285Y-73010373D01*
X355553053Y-73008797D01*
X355553797Y-73006947D01*
X355700451Y-72891541D01*
X355829424Y-72751285D01*
X355831332Y-72750687D01*
X355832804Y-72752041D01*
G37*
G36*
X361077663Y-67378481D02*
G01*
X361149342Y-67430559D01*
X361149569Y-67431069D01*
X361150185Y-67431171D01*
X361182058Y-67454328D01*
X361353919Y-67530846D01*
X361537935Y-67569959D01*
X361680269Y-67569959D01*
X361682001Y-67570959D01*
X361682001Y-67572959D01*
X361680978Y-67573829D01*
X361619057Y-67597306D01*
X361577851Y-67652973D01*
X361573284Y-67722082D01*
X361606859Y-67782791D01*
X361632264Y-67800396D01*
X361633118Y-67802205D01*
X361631979Y-67803848D01*
X361630408Y-67803907D01*
X361435347Y-67729029D01*
X361192139Y-67678221D01*
X361012344Y-67670056D01*
X361010659Y-67668978D01*
X361010750Y-67666980D01*
X361012388Y-67666059D01*
X361086614Y-67664310D01*
X361086580Y-67662876D01*
X361087538Y-67661121D01*
X361088266Y-67660854D01*
X361140295Y-67652613D01*
X361191983Y-67606514D01*
X361210544Y-67539790D01*
X361190068Y-67473574D01*
X361147649Y-67434256D01*
X361147551Y-67433939D01*
X361147190Y-67433923D01*
X361116640Y-67416848D01*
X361116320Y-67416625D01*
X361075191Y-67381622D01*
X361074520Y-67379738D01*
X361075816Y-67378215D01*
X361077663Y-67378481D01*
G37*
G36*
X362331778Y-65575217D02*
G01*
X362569383Y-65647861D01*
X362803323Y-65679907D01*
X362804904Y-65681132D01*
X362804632Y-65683114D01*
X362803458Y-65683846D01*
X362747739Y-65695399D01*
X362698291Y-65743892D01*
X362682909Y-65811419D01*
X362706502Y-65876610D01*
X362746633Y-65911582D01*
X362746899Y-65912357D01*
X362747726Y-65912389D01*
X362772952Y-65926028D01*
X362773276Y-65926246D01*
X362819818Y-65964749D01*
X362820515Y-65966624D01*
X362819240Y-65968165D01*
X362817367Y-65967908D01*
X362745599Y-65915766D01*
X362745199Y-65914867D01*
X362744143Y-65914708D01*
X362717942Y-65895672D01*
X362546081Y-65819154D01*
X362362065Y-65780041D01*
X362216844Y-65780041D01*
X362215112Y-65779041D01*
X362215112Y-65777041D01*
X362216109Y-65776181D01*
X362278078Y-65751691D01*
X362318502Y-65695454D01*
X362322104Y-65626290D01*
X362287692Y-65566069D01*
X362248528Y-65540664D01*
X362211781Y-65525780D01*
X362211509Y-65525645D01*
X362161398Y-65495832D01*
X362160421Y-65494087D01*
X362161444Y-65492368D01*
X362163304Y-65492318D01*
X362331778Y-65575217D01*
G37*
M02*
