M48
; DRILL file {KiCad (5.99.0-11177-g6c67dfa032)} date Wednesday, August 04, 2021 at 06:30:21 PM
; FORMAT={-:-/ absolute / inch / decimal}
; #@! TF.CreationDate,2021-08-04T18:30:21+03:00
; #@! TF.GenerationSoftware,Kicad,Pcbnew,(5.99.0-11177-g6c67dfa032)
; #@! TF.FileFunction,NonPlated,1,2,NPTH
FMAT,2
INCH
; #@! TA.AperFunction,NonPlated,NPTH,ComponentDrill
T1C0.0256
; #@! TA.AperFunction,NonPlated,NPTH,ComponentDrill
T2C0.0670
; #@! TA.AperFunction,NonPlated,NPTH,ComponentDrill
T3C0.1181
; #@! TA.AperFunction,NonPlated,NPTH,ComponentDrill
T4C0.1201
; #@! TA.AperFunction,NonPlated,NPTH,ComponentDrill
T5C0.1570
; #@! TA.AperFunction,NonPlated,NPTH,ComponentDrill
T6C0.1575
%
G90
G05
T1
X9.4487Y-2.232
X9.6763Y-2.232
T2
X3.3625Y-2.625
X3.3625Y-3.375
X3.3625Y-4.125
X3.3625Y-4.875
X3.7375Y-4.875
X3.7625Y-2.625
X3.7625Y-3.375
X3.7625Y-4.125
X3.7625Y-4.875
X4.1125Y-2.625
X4.1125Y-3.375
X4.1125Y-4.125
X4.1125Y-4.875
X4.1375Y-4.875
X4.5125Y-2.625
X4.5125Y-3.375
X4.5125Y-4.125
X4.5125Y-4.875
X4.8625Y-2.625
X4.8625Y-3.375
X4.8625Y-4.125
X4.8625Y-4.875
X5.2625Y-2.625
X5.2625Y-3.375
X5.2625Y-4.125
X5.2625Y-4.875
X5.6125Y-2.625
X5.7063Y-3.375
X5.7063Y-4.875
X5.8937Y-4.125
X6.0125Y-2.625
X6.1063Y-3.375
X6.1063Y-4.875
X6.2937Y-4.125
X6.3625Y-2.625
X6.55Y-3.375
X6.55Y-4.875
X6.7625Y-2.625
X6.925Y-4.125
X6.95Y-3.375
X6.95Y-4.875
X7.1125Y-2.625
X7.3Y-3.375
X7.325Y-4.125
X7.3937Y-4.875
X7.5125Y-2.625
X7.675Y-4.125
X7.7Y-3.375
X7.7937Y-4.875
X7.8625Y-2.625
X8.05Y-3.375
X8.075Y-4.125
X8.2625Y-2.625
X8.425Y-4.125
X8.45Y-3.375
X8.6125Y-2.625
X8.7063Y-4.875
X8.8Y-3.375
X8.825Y-4.125
X9.0125Y-2.625
X9.1063Y-4.875
X9.175Y-4.125
X9.2Y-3.375
X9.3625Y-2.625
X9.55Y-3.375
X9.575Y-4.125
X9.7625Y-2.625
X9.925Y-4.125
X9.95Y-3.375
X10.0187Y-4.875
X10.1125Y-2.625
X10.3Y-3.375
X10.325Y-4.125
X10.4187Y-4.875
X10.5125Y-2.625
X10.5813Y-4.875
X10.675Y-4.125
X10.675Y-4.875
X10.7Y-3.375
X10.8625Y-2.625
X10.9813Y-4.875
X11.05Y-3.375
X11.075Y-4.125
X11.075Y-4.875
X11.2625Y-2.625
X11.425Y-4.125
X11.45Y-3.375
X11.5187Y-4.875
X11.6125Y-2.625
X11.8Y-3.375
X11.825Y-4.125
X11.9187Y-4.875
X12.0125Y-2.625
X12.0813Y-4.875
X12.175Y-4.125
X12.2Y-3.375
X12.3625Y-2.625
X12.4813Y-4.875
X12.55Y-3.375
X12.575Y-4.125
X12.7625Y-2.625
X12.925Y-4.125
X12.95Y-3.375
X13.0187Y-4.875
X13.1125Y-2.625
X13.3Y-3.375
X13.325Y-4.125
X13.4187Y-4.875
X13.5125Y-2.625
X13.675Y-4.125
X13.7Y-3.375
X13.7687Y-4.125
X13.8625Y-2.625
X13.8625Y-4.875
X14.05Y-3.375
X14.075Y-4.125
X14.1687Y-4.125
X14.2375Y-2.625
X14.2625Y-2.625
X14.2625Y-4.875
X14.3313Y-3.375
X14.45Y-3.375
X14.5187Y-4.125
X14.6125Y-2.625
X14.6125Y-4.125
X14.6125Y-4.875
X14.6375Y-2.625
X14.7313Y-3.375
X14.9187Y-4.125
X15.0125Y-2.625
X15.0125Y-4.125
X15.0125Y-4.875
X15.0813Y-3.375
X15.3625Y-2.625
X15.3625Y-3.375
X15.3625Y-4.125
X15.3625Y-4.875
X15.4813Y-3.375
X15.7625Y-2.625
X15.7625Y-3.375
X15.7625Y-4.125
X15.7625Y-4.875
T3
X3.4125Y-2.525
X3.4125Y-3.275
X3.4125Y-4.025
X3.4125Y-4.775
X3.6625Y-2.425
X3.6625Y-3.175
X3.6625Y-3.925
X3.6625Y-4.675
X3.8375Y-5.075
X4.0875Y-4.975
X4.1625Y-2.525
X4.1625Y-3.275
X4.1625Y-4.025
X4.1625Y-4.775
X4.4125Y-2.425
X4.4125Y-3.175
X4.4125Y-3.925
X4.4125Y-4.675
X4.9125Y-2.525
X4.9125Y-3.275
X4.9125Y-4.025
X4.9125Y-4.775
X5.1625Y-2.425
X5.1625Y-3.175
X5.1625Y-3.925
X5.1625Y-4.675
X5.6625Y-2.525
X5.7563Y-3.275
X5.7563Y-4.775
X5.9125Y-2.425
X5.9437Y-4.025
X6.0063Y-3.175
X6.0063Y-4.675
X6.1937Y-3.925
X6.4125Y-2.525
X6.6Y-3.275
X6.6Y-4.775
X6.6625Y-2.425
X6.85Y-3.175
X6.85Y-4.675
X6.975Y-4.025
X7.1625Y-2.525
X7.225Y-3.925
X7.35Y-3.275
X7.4125Y-2.425
X7.4437Y-4.775
X7.6Y-3.175
X7.6937Y-4.675
X7.725Y-4.025
X7.9125Y-2.525
X7.975Y-3.925
X8.1Y-3.275
X8.1625Y-2.425
X8.35Y-3.175
X8.475Y-4.025
X8.6625Y-2.525
X8.725Y-3.925
X8.7563Y-4.775
X8.85Y-3.275
X8.9125Y-2.425
X9.0063Y-4.675
X9.1Y-3.175
X9.225Y-4.025
X9.4125Y-2.525
X9.475Y-3.925
X9.6Y-3.275
X9.6625Y-2.425
X9.85Y-3.175
X9.975Y-4.025
X10.0687Y-4.775
X10.1625Y-2.525
X10.225Y-3.925
X10.3187Y-4.675
X10.35Y-3.275
X10.4125Y-2.425
X10.6Y-3.175
X10.6313Y-4.775
X10.725Y-4.025
X10.775Y-5.075
X10.8813Y-4.675
X10.9125Y-2.525
X10.975Y-3.925
X11.025Y-4.975
X11.1Y-3.275
X11.1625Y-2.425
X11.35Y-3.175
X11.475Y-4.025
X11.5687Y-4.775
X11.6625Y-2.525
X11.725Y-3.925
X11.8187Y-4.675
X11.85Y-3.275
X11.9125Y-2.425
X12.1Y-3.175
X12.1313Y-4.775
X12.225Y-4.025
X12.3813Y-4.675
X12.4125Y-2.525
X12.475Y-3.925
X12.6Y-3.275
X12.6625Y-2.425
X12.85Y-3.175
X12.975Y-4.025
X13.0687Y-4.775
X13.1625Y-2.525
X13.225Y-3.925
X13.3187Y-4.675
X13.35Y-3.275
X13.4125Y-2.425
X13.6Y-3.175
X13.725Y-4.025
X13.8687Y-4.325
X13.9125Y-4.775
X13.9625Y-2.825
X13.975Y-3.925
X14.1Y-3.275
X14.1187Y-4.225
X14.1625Y-4.675
X14.2125Y-2.725
X14.2875Y-2.525
X14.35Y-3.175
X14.4313Y-3.575
X14.5375Y-2.425
X14.5687Y-4.025
X14.6625Y-4.775
X14.6813Y-3.475
X14.7125Y-2.825
X14.7125Y-4.325
X14.8187Y-3.925
X14.9125Y-4.675
X14.9625Y-2.725
X14.9625Y-4.225
X15.1313Y-3.275
X15.3813Y-3.175
X15.4125Y-2.525
X15.4125Y-4.025
X15.4125Y-4.775
X15.4625Y-3.575
X15.6625Y-2.425
X15.6625Y-3.925
X15.6625Y-4.675
X15.7125Y-3.475
T4
X3.469Y-5.1506
X4.406Y-5.1506
X8.4377Y-5.1506
X8.4377Y-5.1506
X9.3748Y-5.1506
X10.3128Y-5.1506
X11.2498Y-5.1506
X11.2502Y-5.1506
X12.1872Y-5.1506
X12.3747Y-5.1506
X13.969Y-2.3494
X14.906Y-2.3494
T5
X3.5625Y-2.625
X3.5625Y-3.375
X3.5625Y-4.125
X3.5625Y-4.875
X3.9375Y-4.875
X4.3125Y-2.625
X4.3125Y-3.375
X4.3125Y-4.125
X4.3125Y-4.875
X5.0625Y-2.625
X5.0625Y-3.375
X5.0625Y-4.125
X5.0625Y-4.875
X5.8125Y-2.625
X5.9063Y-3.375
X5.9063Y-4.875
X6.0937Y-4.125
X6.5625Y-2.625
X6.75Y-3.375
X6.75Y-4.875
X7.125Y-4.125
X7.3125Y-2.625
X7.5Y-3.375
X7.5937Y-4.875
X7.875Y-4.125
X8.0625Y-2.625
X8.25Y-3.375
X8.625Y-4.125
X8.8125Y-2.625
X8.9063Y-4.875
X9.0Y-3.375
X9.375Y-4.125
X9.5625Y-2.625
X9.75Y-3.375
X10.125Y-4.125
X10.2187Y-4.875
X10.3125Y-2.625
X10.5Y-3.375
X10.7813Y-4.875
X10.875Y-4.125
X10.875Y-4.875
X11.0625Y-2.625
X11.25Y-3.375
X11.625Y-4.125
X11.7187Y-4.875
X11.8125Y-2.625
X12.0Y-3.375
X12.2813Y-4.875
X12.375Y-4.125
X12.5625Y-2.625
X12.75Y-3.375
X13.125Y-4.125
X13.2187Y-4.875
X13.3125Y-2.625
X13.5Y-3.375
X13.875Y-4.125
X13.9687Y-4.125
X14.0625Y-2.625
X14.0625Y-4.875
X14.25Y-3.375
X14.4375Y-2.625
X14.5313Y-3.375
X14.7187Y-4.125
X14.8125Y-2.625
X14.8125Y-4.125
X14.8125Y-4.875
X15.2813Y-3.375
X15.5625Y-2.625
X15.5625Y-3.375
X15.5625Y-4.125
X15.5625Y-4.875
T6
X3.469Y-4.5506
X4.406Y-4.5506
X8.4377Y-4.5506
X8.4377Y-4.5506
X9.3748Y-4.5506
X10.3128Y-4.5506
X11.2498Y-4.5506
X11.2502Y-4.5506
X12.1872Y-4.5506
X12.3747Y-4.5506
X13.969Y-2.9494
X14.906Y-2.9494
T0
M30
