G04 #@! TF.GenerationSoftware,KiCad,Pcbnew,(5.99.0-10161-g3a96736b1f)*
G04 #@! TF.CreationDate,2021-06-27T22:26:18+03:00*
G04 #@! TF.ProjectId,lyra_beta,6c797261-5f62-4657-9461-2e6b69636164,rev?*
G04 #@! TF.SameCoordinates,Original*
G04 #@! TF.FileFunction,Legend,Bot*
G04 #@! TF.FilePolarity,Positive*
%FSLAX46Y46*%
G04 Gerber Fmt 4.6, Leading zero omitted, Abs format (unit mm)*
G04 Created by KiCad (PCBNEW (5.99.0-10161-g3a96736b1f)) date 2021-06-27 22:26:18*
%MOMM*%
%LPD*%
G01*
G04 APERTURE LIST*
%ADD10C,0.150000*%
%ADD11C,0.120000*%
G04 APERTURE END LIST*
D10*
X88367728Y-91937828D02*
X87605823Y-91937828D01*
X87986776Y-92318780D02*
X87986776Y-91556876D01*
X86653443Y-91318780D02*
X87129633Y-91318780D01*
X87177252Y-91794971D01*
X87129633Y-91747352D01*
X87034395Y-91699733D01*
X86796300Y-91699733D01*
X86701062Y-91747352D01*
X86653443Y-91794971D01*
X86605823Y-91890209D01*
X86605823Y-92128304D01*
X86653443Y-92223542D01*
X86701062Y-92271161D01*
X86796300Y-92318780D01*
X87034395Y-92318780D01*
X87129633Y-92271161D01*
X87177252Y-92223542D01*
X86272490Y-91652114D02*
X86034395Y-92318780D01*
X85796300Y-91652114D01*
X87034495Y-97747571D02*
X86891638Y-97795190D01*
X86844019Y-97842809D01*
X86796400Y-97938047D01*
X86796400Y-98080904D01*
X86844019Y-98176142D01*
X86891638Y-98223761D01*
X86986876Y-98271380D01*
X87367828Y-98271380D01*
X87367828Y-97271380D01*
X87034495Y-97271380D01*
X86939257Y-97319000D01*
X86891638Y-97366619D01*
X86844019Y-97461857D01*
X86844019Y-97557095D01*
X86891638Y-97652333D01*
X86939257Y-97699952D01*
X87034495Y-97747571D01*
X87367828Y-97747571D01*
X86177352Y-97271380D02*
X86082114Y-97271380D01*
X85986876Y-97319000D01*
X85939257Y-97366619D01*
X85891638Y-97461857D01*
X85844019Y-97652333D01*
X85844019Y-97890428D01*
X85891638Y-98080904D01*
X85939257Y-98176142D01*
X85986876Y-98223761D01*
X86082114Y-98271380D01*
X86177352Y-98271380D01*
X86272590Y-98223761D01*
X86320209Y-98176142D01*
X86367828Y-98080904D01*
X86415447Y-97890428D01*
X86415447Y-97652333D01*
X86367828Y-97461857D01*
X86320209Y-97366619D01*
X86272590Y-97319000D01*
X86177352Y-97271380D01*
X87034495Y-94771471D02*
X86891638Y-94819090D01*
X86844019Y-94866709D01*
X86796400Y-94961947D01*
X86796400Y-95104804D01*
X86844019Y-95200042D01*
X86891638Y-95247661D01*
X86986876Y-95295280D01*
X87367828Y-95295280D01*
X87367828Y-94295280D01*
X87034495Y-94295280D01*
X86939257Y-94342900D01*
X86891638Y-94390519D01*
X86844019Y-94485757D01*
X86844019Y-94580995D01*
X86891638Y-94676233D01*
X86939257Y-94723852D01*
X87034495Y-94771471D01*
X87367828Y-94771471D01*
X86463066Y-94295280D02*
X85796400Y-94295280D01*
X86224971Y-95295280D01*
X166371333Y-97862061D02*
X166338000Y-97895394D01*
X166304666Y-97962061D01*
X166304666Y-98128728D01*
X166338000Y-98195394D01*
X166371333Y-98228728D01*
X166438000Y-98262061D01*
X166504666Y-98262061D01*
X166604666Y-98228728D01*
X167004666Y-97828728D01*
X167004666Y-98262061D01*
X166371333Y-98528728D02*
X166338000Y-98562061D01*
X166304666Y-98628728D01*
X166304666Y-98795394D01*
X166338000Y-98862061D01*
X166371333Y-98895394D01*
X166438000Y-98928728D01*
X166504666Y-98928728D01*
X166604666Y-98895394D01*
X167004666Y-98495394D01*
X167004666Y-98928728D01*
X171133465Y-97862061D02*
X171100132Y-97895394D01*
X171066798Y-97962061D01*
X171066798Y-98128728D01*
X171100132Y-98195394D01*
X171133465Y-98228728D01*
X171200132Y-98262061D01*
X171266798Y-98262061D01*
X171366798Y-98228728D01*
X171766798Y-97828728D01*
X171766798Y-98262061D01*
X171133465Y-98528728D02*
X171100132Y-98562061D01*
X171066798Y-98628728D01*
X171066798Y-98795394D01*
X171100132Y-98862061D01*
X171133465Y-98895394D01*
X171200132Y-98928728D01*
X171266798Y-98928728D01*
X171366798Y-98895394D01*
X171766798Y-98495394D01*
X171766798Y-98928728D01*
X171662111Y-88680179D02*
X171662111Y-88346846D01*
X171995445Y-88313512D01*
X171962111Y-88346846D01*
X171928778Y-88413512D01*
X171928778Y-88580179D01*
X171962111Y-88646846D01*
X171995445Y-88680179D01*
X172062111Y-88713512D01*
X172228778Y-88713512D01*
X172295445Y-88680179D01*
X172328778Y-88646846D01*
X172362111Y-88580179D01*
X172362111Y-88413512D01*
X172328778Y-88346846D01*
X172295445Y-88313512D01*
X172295445Y-89013512D02*
X172328778Y-89046846D01*
X172362111Y-89013512D01*
X172328778Y-88980179D01*
X172295445Y-89013512D01*
X172362111Y-89013512D01*
X172362111Y-89713512D02*
X172362111Y-89313512D01*
X172362111Y-89513512D02*
X171662111Y-89513512D01*
X171762111Y-89446846D01*
X171828778Y-89380179D01*
X171862111Y-89313512D01*
X172362111Y-90013512D02*
X171662111Y-90013512D01*
X172095445Y-90080179D02*
X172362111Y-90280179D01*
X171895445Y-90280179D02*
X172162111Y-90013512D01*
X87939153Y-88389800D02*
X88034391Y-88342180D01*
X88177248Y-88342180D01*
X88320105Y-88389800D01*
X88415343Y-88485038D01*
X88462962Y-88580276D01*
X88510581Y-88770752D01*
X88510581Y-88913609D01*
X88462962Y-89104085D01*
X88415343Y-89199323D01*
X88320105Y-89294561D01*
X88177248Y-89342180D01*
X88082010Y-89342180D01*
X87939153Y-89294561D01*
X87891534Y-89246942D01*
X87891534Y-88913609D01*
X88082010Y-88913609D01*
X87462962Y-89342180D02*
X87462962Y-88342180D01*
X86891534Y-89342180D01*
X86891534Y-88342180D01*
X86415343Y-89342180D02*
X86415343Y-88342180D01*
X86177248Y-88342180D01*
X86034391Y-88389800D01*
X85939153Y-88485038D01*
X85891534Y-88580276D01*
X85843915Y-88770752D01*
X85843915Y-88913609D01*
X85891534Y-89104085D01*
X85939153Y-89199323D01*
X86034391Y-89294561D01*
X86177248Y-89342180D01*
X86415343Y-89342180D01*
X165708981Y-88680179D02*
X165708981Y-88346846D01*
X166042315Y-88313512D01*
X166008981Y-88346846D01*
X165975648Y-88413512D01*
X165975648Y-88580179D01*
X166008981Y-88646846D01*
X166042315Y-88680179D01*
X166108981Y-88713512D01*
X166275648Y-88713512D01*
X166342315Y-88680179D01*
X166375648Y-88646846D01*
X166408981Y-88580179D01*
X166408981Y-88413512D01*
X166375648Y-88346846D01*
X166342315Y-88313512D01*
X166342315Y-89013512D02*
X166375648Y-89046846D01*
X166408981Y-89013512D01*
X166375648Y-88980179D01*
X166342315Y-89013512D01*
X166408981Y-89013512D01*
X166408981Y-89713512D02*
X166408981Y-89313512D01*
X166408981Y-89513512D02*
X165708981Y-89513512D01*
X165808981Y-89446846D01*
X165875648Y-89380179D01*
X165908981Y-89313512D01*
X166408981Y-90013512D02*
X165708981Y-90013512D01*
X166142315Y-90080179D02*
X166408981Y-90280179D01*
X165942315Y-90280179D02*
X166208981Y-90013512D01*
X175933989Y-95880809D02*
X175933989Y-95480809D01*
X175933989Y-95680809D02*
X175233989Y-95680809D01*
X175333989Y-95614142D01*
X175400656Y-95547476D01*
X175433989Y-95480809D01*
X175467323Y-96480809D02*
X175933989Y-96480809D01*
X175467323Y-96180809D02*
X175833989Y-96180809D01*
X175900656Y-96214142D01*
X175933989Y-96280809D01*
X175933989Y-96380809D01*
X175900656Y-96447476D01*
X175867323Y-96480809D01*
X156840847Y-115211971D02*
X157240847Y-115211971D01*
X157040847Y-115211971D02*
X157040847Y-114511971D01*
X157107514Y-114611971D01*
X157174181Y-114678638D01*
X157240847Y-114711971D01*
X156407514Y-114511971D02*
X156340847Y-114511971D01*
X156274181Y-114545305D01*
X156240847Y-114578638D01*
X156207514Y-114645305D01*
X156174181Y-114778638D01*
X156174181Y-114945305D01*
X156207514Y-115078638D01*
X156240847Y-115145305D01*
X156274181Y-115178638D01*
X156340847Y-115211971D01*
X156407514Y-115211971D01*
X156474181Y-115178638D01*
X156507514Y-115145305D01*
X156540847Y-115078638D01*
X156574181Y-114945305D01*
X156574181Y-114778638D01*
X156540847Y-114645305D01*
X156507514Y-114578638D01*
X156474181Y-114545305D01*
X156407514Y-114511971D01*
X155874181Y-115211971D02*
X155874181Y-114511971D01*
X155807514Y-114945305D02*
X155607514Y-115211971D01*
X155607514Y-114745305D02*
X155874181Y-115011971D01*
X157474181Y-109154154D02*
X157407514Y-109154154D01*
X157340847Y-109187488D01*
X157307514Y-109220821D01*
X157274181Y-109287488D01*
X157240847Y-109420821D01*
X157240847Y-109587488D01*
X157274181Y-109720821D01*
X157307514Y-109787488D01*
X157340847Y-109820821D01*
X157407514Y-109854154D01*
X157474181Y-109854154D01*
X157540847Y-109820821D01*
X157574181Y-109787488D01*
X157607514Y-109720821D01*
X157640847Y-109587488D01*
X157640847Y-109420821D01*
X157607514Y-109287488D01*
X157574181Y-109220821D01*
X157540847Y-109187488D01*
X157474181Y-109154154D01*
X156940847Y-109787488D02*
X156907514Y-109820821D01*
X156940847Y-109854154D01*
X156974181Y-109820821D01*
X156940847Y-109787488D01*
X156940847Y-109854154D01*
X156240847Y-109854154D02*
X156640847Y-109854154D01*
X156440847Y-109854154D02*
X156440847Y-109154154D01*
X156507514Y-109254154D01*
X156574181Y-109320821D01*
X156640847Y-109354154D01*
X155640847Y-109387488D02*
X155640847Y-109854154D01*
X155940847Y-109387488D02*
X155940847Y-109754154D01*
X155907514Y-109820821D01*
X155840847Y-109854154D01*
X155740847Y-109854154D01*
X155674181Y-109820821D01*
X155640847Y-109787488D01*
X159755851Y-94938415D02*
X159755851Y-95005081D01*
X159789185Y-95071748D01*
X159822518Y-95105081D01*
X159889185Y-95138415D01*
X160022518Y-95171748D01*
X160189185Y-95171748D01*
X160322518Y-95138415D01*
X160389185Y-95105081D01*
X160422518Y-95071748D01*
X160455851Y-95005081D01*
X160455851Y-94938415D01*
X160422518Y-94871748D01*
X160389185Y-94838415D01*
X160322518Y-94805081D01*
X160189185Y-94771748D01*
X160022518Y-94771748D01*
X159889185Y-94805081D01*
X159822518Y-94838415D01*
X159789185Y-94871748D01*
X159755851Y-94938415D01*
X160389185Y-95471748D02*
X160422518Y-95505081D01*
X160455851Y-95471748D01*
X160422518Y-95438415D01*
X160389185Y-95471748D01*
X160455851Y-95471748D01*
X160455851Y-96171748D02*
X160455851Y-95771748D01*
X160455851Y-95971748D02*
X159755851Y-95971748D01*
X159855851Y-95905081D01*
X159922518Y-95838415D01*
X159955851Y-95771748D01*
X159989185Y-96771748D02*
X160455851Y-96771748D01*
X159989185Y-96471748D02*
X160355851Y-96471748D01*
X160422518Y-96505081D01*
X160455851Y-96571748D01*
X160455851Y-96671748D01*
X160422518Y-96738415D01*
X160389185Y-96771748D01*
X178791701Y-116297910D02*
X178725034Y-116297910D01*
X178658367Y-116331244D01*
X178625034Y-116364577D01*
X178591701Y-116431244D01*
X178558367Y-116564577D01*
X178558367Y-116731244D01*
X178591701Y-116864577D01*
X178625034Y-116931244D01*
X178658367Y-116964577D01*
X178725034Y-116997910D01*
X178791701Y-116997910D01*
X178858367Y-116964577D01*
X178891701Y-116931244D01*
X178925034Y-116864577D01*
X178958367Y-116731244D01*
X178958367Y-116564577D01*
X178925034Y-116431244D01*
X178891701Y-116364577D01*
X178858367Y-116331244D01*
X178791701Y-116297910D01*
X178258367Y-116931244D02*
X178225034Y-116964577D01*
X178258367Y-116997910D01*
X178291701Y-116964577D01*
X178258367Y-116931244D01*
X178258367Y-116997910D01*
X177558367Y-116997910D02*
X177958367Y-116997910D01*
X177758367Y-116997910D02*
X177758367Y-116297910D01*
X177825034Y-116397910D01*
X177891701Y-116464577D01*
X177958367Y-116497910D01*
X176958367Y-116531244D02*
X176958367Y-116997910D01*
X177258367Y-116531244D02*
X177258367Y-116897910D01*
X177225034Y-116964577D01*
X177158367Y-116997910D01*
X177058367Y-116997910D01*
X176991701Y-116964577D01*
X176958367Y-116931244D01*
X164156376Y-98138520D02*
X164623042Y-98138520D01*
X163889709Y-97971854D02*
X164389709Y-97805187D01*
X164389709Y-98238520D01*
X164556376Y-98505187D02*
X164589709Y-98538520D01*
X164623042Y-98505187D01*
X164589709Y-98471854D01*
X164556376Y-98505187D01*
X164623042Y-98505187D01*
X163923042Y-98771854D02*
X163923042Y-99238520D01*
X164623042Y-98938520D01*
X164156376Y-99805187D02*
X164623042Y-99805187D01*
X164156376Y-99505187D02*
X164523042Y-99505187D01*
X164589709Y-99538520D01*
X164623042Y-99605187D01*
X164623042Y-99705187D01*
X164589709Y-99771854D01*
X164556376Y-99805187D01*
X182530245Y-116364577D02*
X182496912Y-116331244D01*
X182430245Y-116297910D01*
X182263579Y-116297910D01*
X182196912Y-116331244D01*
X182163579Y-116364577D01*
X182130245Y-116431244D01*
X182130245Y-116497910D01*
X182163579Y-116597910D01*
X182563579Y-116997910D01*
X182130245Y-116997910D01*
X181863579Y-116364577D02*
X181830245Y-116331244D01*
X181763579Y-116297910D01*
X181596912Y-116297910D01*
X181530245Y-116331244D01*
X181496912Y-116364577D01*
X181463579Y-116431244D01*
X181463579Y-116497910D01*
X181496912Y-116597910D01*
X181896912Y-116997910D01*
X181463579Y-116997910D01*
X181163579Y-116531244D02*
X181163579Y-117231244D01*
X181163579Y-116564577D02*
X181096912Y-116531244D01*
X180963579Y-116531244D01*
X180896912Y-116564577D01*
X180863579Y-116597910D01*
X180830245Y-116664577D01*
X180830245Y-116864577D01*
X180863579Y-116931244D01*
X180896912Y-116964577D01*
X180963579Y-116997910D01*
X181096912Y-116997910D01*
X181163579Y-116964577D01*
X182533166Y-107028333D02*
X182499833Y-106995000D01*
X182433166Y-106961666D01*
X182266500Y-106961666D01*
X182199833Y-106995000D01*
X182166500Y-107028333D01*
X182133166Y-107095000D01*
X182133166Y-107161666D01*
X182166500Y-107261666D01*
X182566500Y-107661666D01*
X182133166Y-107661666D01*
X181866500Y-107028333D02*
X181833166Y-106995000D01*
X181766500Y-106961666D01*
X181599833Y-106961666D01*
X181533166Y-106995000D01*
X181499833Y-107028333D01*
X181466500Y-107095000D01*
X181466500Y-107161666D01*
X181499833Y-107261666D01*
X181899833Y-107661666D01*
X181466500Y-107661666D01*
X181166500Y-107195000D02*
X181166500Y-107895000D01*
X181166500Y-107228333D02*
X181099833Y-107195000D01*
X180966500Y-107195000D01*
X180899833Y-107228333D01*
X180866500Y-107261666D01*
X180833166Y-107328333D01*
X180833166Y-107528333D01*
X180866500Y-107595000D01*
X180899833Y-107628333D01*
X180966500Y-107661666D01*
X181099833Y-107661666D01*
X181166500Y-107628333D01*
X178867428Y-107472902D02*
X179267428Y-107472902D01*
X179067428Y-107472902D02*
X179067428Y-106772902D01*
X179134095Y-106872902D01*
X179200762Y-106939569D01*
X179267428Y-106972902D01*
X178434095Y-106772902D02*
X178367428Y-106772902D01*
X178300762Y-106806236D01*
X178267428Y-106839569D01*
X178234095Y-106906236D01*
X178200762Y-107039569D01*
X178200762Y-107206236D01*
X178234095Y-107339569D01*
X178267428Y-107406236D01*
X178300762Y-107439569D01*
X178367428Y-107472902D01*
X178434095Y-107472902D01*
X178500762Y-107439569D01*
X178534095Y-107406236D01*
X178567428Y-107339569D01*
X178600762Y-107206236D01*
X178600762Y-107039569D01*
X178567428Y-106906236D01*
X178534095Y-106839569D01*
X178500762Y-106806236D01*
X178434095Y-106772902D01*
X177900762Y-107472902D02*
X177900762Y-106772902D01*
X177834095Y-107206236D02*
X177634095Y-107472902D01*
X177634095Y-107006236D02*
X177900762Y-107272902D01*
X177005762Y-111535406D02*
X176939095Y-111535406D01*
X176872428Y-111568740D01*
X176839095Y-111602073D01*
X176805762Y-111668740D01*
X176772428Y-111802073D01*
X176772428Y-111968740D01*
X176805762Y-112102073D01*
X176839095Y-112168740D01*
X176872428Y-112202073D01*
X176939095Y-112235406D01*
X177005762Y-112235406D01*
X177072428Y-112202073D01*
X177105762Y-112168740D01*
X177139095Y-112102073D01*
X177172428Y-111968740D01*
X177172428Y-111802073D01*
X177139095Y-111668740D01*
X177105762Y-111602073D01*
X177072428Y-111568740D01*
X177005762Y-111535406D01*
X176472428Y-112168740D02*
X176439095Y-112202073D01*
X176472428Y-112235406D01*
X176505762Y-112202073D01*
X176472428Y-112168740D01*
X176472428Y-112235406D01*
X175772428Y-112235406D02*
X176172428Y-112235406D01*
X175972428Y-112235406D02*
X175972428Y-111535406D01*
X176039095Y-111635406D01*
X176105762Y-111702073D01*
X176172428Y-111735406D01*
X175172428Y-111768740D02*
X175172428Y-112235406D01*
X175472428Y-111768740D02*
X175472428Y-112135406D01*
X175439095Y-112202073D01*
X175372428Y-112235406D01*
X175272428Y-112235406D01*
X175205762Y-112202073D01*
X175172428Y-112168740D01*
X206498510Y-109876500D02*
X206498510Y-108876500D01*
X206069939Y-109828881D02*
X205927081Y-109876500D01*
X205688986Y-109876500D01*
X205593748Y-109828881D01*
X205546129Y-109781262D01*
X205498510Y-109686024D01*
X205498510Y-109590786D01*
X205546129Y-109495548D01*
X205593748Y-109447929D01*
X205688986Y-109400310D01*
X205879462Y-109352691D01*
X205974700Y-109305072D01*
X206022320Y-109257453D01*
X206069939Y-109162215D01*
X206069939Y-109066977D01*
X206022320Y-108971739D01*
X205974700Y-108924120D01*
X205879462Y-108876500D01*
X205641367Y-108876500D01*
X205498510Y-108924120D01*
X205069939Y-109876500D02*
X205069939Y-108876500D01*
X204688986Y-108876500D01*
X204593748Y-108924120D01*
X204546129Y-108971739D01*
X204498510Y-109066977D01*
X204498510Y-109209834D01*
X204546129Y-109305072D01*
X204593748Y-109352691D01*
X204688986Y-109400310D01*
X205069939Y-109400310D01*
D11*
X91737500Y-71068800D02*
X89237500Y-71068800D01*
X92187500Y-71518800D02*
X91737500Y-71068800D01*
X87737500Y-72818800D02*
X87737500Y-74818800D01*
X88787500Y-76118800D02*
X89237500Y-76568800D01*
X88787500Y-71518800D02*
X89237500Y-71068800D01*
X93237500Y-72818800D02*
X93237500Y-74818800D01*
X91737500Y-76568800D02*
X89237500Y-76568800D01*
X92187500Y-76118800D02*
X91737500Y-76568800D01*
X167568000Y-96436900D02*
X167568000Y-95236900D01*
X165808000Y-95236900D02*
X165808000Y-96436900D01*
X169949000Y-96445300D02*
X169949000Y-95245300D01*
X168189000Y-95245300D02*
X168189000Y-96445300D01*
X172330000Y-96445300D02*
X172330000Y-95245300D01*
X170570000Y-95245300D02*
X170570000Y-96445300D01*
X171165000Y-91673500D02*
X171165000Y-92873500D01*
X172925000Y-92873500D02*
X172925000Y-91673500D01*
X167459000Y-93173500D02*
X167459000Y-90723500D01*
X170679000Y-91373500D02*
X170679000Y-93173500D01*
X166972000Y-92873500D02*
X166972000Y-91673500D01*
X165212000Y-91673500D02*
X165212000Y-92873500D01*
X331223000Y-129495000D02*
X329303000Y-129495000D01*
X331223000Y-126635000D02*
X331223000Y-129495000D01*
X329303000Y-129495000D02*
X329303000Y-126635000D01*
X172981000Y-96345300D02*
X172981000Y-95345300D01*
X174681000Y-95345300D02*
X174681000Y-96345300D01*
X155967200Y-113989000D02*
X157167200Y-113989000D01*
X157167200Y-112229000D02*
X155967200Y-112229000D01*
X157067200Y-112173000D02*
X156067200Y-112173000D01*
X156067200Y-110473000D02*
X157067200Y-110473000D01*
X161075000Y-96345300D02*
X161075000Y-95345300D01*
X162775000Y-95345300D02*
X162775000Y-96345300D01*
X177498000Y-114045000D02*
X178498000Y-114045000D01*
X178498000Y-115745000D02*
X177498000Y-115745000D01*
X163456000Y-96345300D02*
X163456000Y-95345300D01*
X165156000Y-95345300D02*
X165156000Y-96345300D01*
X181070000Y-114045000D02*
X182070000Y-114045000D01*
X182070000Y-115745000D02*
X181070000Y-115745000D01*
D10*
X181170000Y-111919000D02*
X181570000Y-111519000D01*
X181170000Y-111919000D02*
X180320000Y-111919000D01*
X179970000Y-112119000D02*
X179970000Y-111719000D01*
X183070000Y-112119000D02*
X183070000Y-111719000D01*
X181570000Y-111519000D02*
X181570000Y-110319000D01*
D11*
X181070000Y-108092000D02*
X182070000Y-108092000D01*
X182070000Y-109792000D02*
X181070000Y-109792000D01*
X178598000Y-108062000D02*
X177398000Y-108062000D01*
X177398000Y-109822000D02*
X178598000Y-109822000D01*
D10*
X167283000Y-101028445D02*
X166805703Y-101505742D01*
X167283000Y-115665555D02*
X167760297Y-115188258D01*
X167283000Y-115665555D02*
X166805703Y-115188258D01*
X167283000Y-101028445D02*
X167689586Y-101435031D01*
X167372803Y-99995362D02*
X167283000Y-100085164D01*
X174601555Y-108347000D02*
X174124258Y-107869703D01*
X159964445Y-108347000D02*
X160441742Y-108824297D01*
X159964445Y-108347000D02*
X160441742Y-107869703D01*
X174601555Y-108347000D02*
X174124258Y-108824297D01*
X167410001Y-100085164D02*
G75*
G03*
X167410001Y-100085164I-127001J0D01*
G01*
X167684610Y-100085164D02*
G75*
G03*
X167684610Y-100085164I-401610J0D01*
G01*
X167806635Y-100085164D02*
G75*
G03*
X167806635Y-100085164I-523635J0D01*
G01*
X167537000Y-100085164D02*
G75*
G03*
X167537000Y-100085164I-254000J0D01*
G01*
X167566981Y-100085164D02*
G75*
G03*
X167566981Y-100085164I-283981J0D01*
G01*
D11*
X177498000Y-109878000D02*
X178498000Y-109878000D01*
X178498000Y-111578000D02*
X177498000Y-111578000D01*
X386589000Y-69725600D02*
X386589000Y-66865600D01*
X388509000Y-69725600D02*
X386589000Y-69725600D01*
X388509000Y-66865600D02*
X388509000Y-69725600D01*
X154551500Y-68789000D02*
X154551500Y-65929000D01*
X156471500Y-68789000D02*
X154551500Y-68789000D01*
X156471500Y-65929000D02*
X156471500Y-68789000D01*
X178624000Y-70916200D02*
X176704000Y-70916200D01*
X178624000Y-68056200D02*
X178624000Y-70916200D01*
X176704000Y-70916200D02*
X176704000Y-68056200D01*
X232798000Y-68535000D02*
X230878000Y-68535000D01*
X230878000Y-68535000D02*
X230878000Y-65675000D01*
X232798000Y-65675000D02*
X232798000Y-68535000D01*
X270898000Y-68535000D02*
X268978000Y-68535000D01*
X270898000Y-65675000D02*
X270898000Y-68535000D01*
X268978000Y-68535000D02*
X268978000Y-65675000D01*
X308998000Y-65675000D02*
X308998000Y-68535000D01*
X307078000Y-68535000D02*
X307078000Y-65675000D01*
X308998000Y-68535000D02*
X307078000Y-68535000D01*
X348368500Y-62509000D02*
X348368500Y-65369000D01*
X346448500Y-65369000D02*
X346448500Y-62509000D01*
X348368500Y-65369000D02*
X346448500Y-65369000D01*
X383444000Y-65293800D02*
X383444000Y-62433800D01*
X385364000Y-62433800D02*
X385364000Y-65293800D01*
X383444000Y-62433800D02*
X385364000Y-62433800D01*
X97528000Y-68535000D02*
X97528000Y-65675000D01*
X99448000Y-65675000D02*
X99448000Y-68535000D01*
X99448000Y-68535000D02*
X97528000Y-68535000D01*
X120878000Y-68056200D02*
X120878000Y-70916200D01*
X120878000Y-70916200D02*
X118958000Y-70916200D01*
X118958000Y-70916200D02*
X118958000Y-68056200D01*
X142905300Y-89966200D02*
X140985300Y-89966200D01*
X140985300Y-89966200D02*
X140985300Y-87106200D01*
X142905300Y-87106200D02*
X142905300Y-89966200D01*
X199460000Y-87585000D02*
X197540000Y-87585000D01*
X199460000Y-84725000D02*
X199460000Y-87585000D01*
X197540000Y-87585000D02*
X197540000Y-84725000D01*
X237560000Y-87585000D02*
X235640000Y-87585000D01*
X235640000Y-87585000D02*
X235640000Y-84725000D01*
X237560000Y-84725000D02*
X237560000Y-87585000D01*
X257055500Y-86249000D02*
X257055500Y-89109000D01*
X257055500Y-89109000D02*
X255135500Y-89109000D01*
X255135500Y-89109000D02*
X255135500Y-86249000D01*
X313760000Y-84725000D02*
X313760000Y-87585000D01*
X311840000Y-87585000D02*
X311840000Y-84725000D01*
X313760000Y-87585000D02*
X311840000Y-87585000D01*
X333866000Y-89966200D02*
X333866000Y-87106200D01*
X335786000Y-89966200D02*
X333866000Y-89966200D01*
X335786000Y-87106200D02*
X335786000Y-89966200D01*
X381030000Y-87106200D02*
X381030000Y-89966200D01*
X381030000Y-89966200D02*
X379110000Y-89966200D01*
X379110000Y-89966200D02*
X379110000Y-87106200D01*
X96209500Y-90561500D02*
X94289500Y-90561500D01*
X94289500Y-90561500D02*
X94289500Y-87701500D01*
X96209500Y-87701500D02*
X96209500Y-90561500D01*
X122530000Y-90561500D02*
X122530000Y-87701500D01*
X124450000Y-87701500D02*
X124450000Y-90561500D01*
X124450000Y-90561500D02*
X122530000Y-90561500D01*
X145747800Y-109016000D02*
X145747800Y-106156000D01*
X147667800Y-109016000D02*
X145747800Y-109016000D01*
X147667800Y-106156000D02*
X147667800Y-109016000D01*
X208985000Y-106635000D02*
X207065000Y-106635000D01*
X207065000Y-106635000D02*
X207065000Y-103775000D01*
X208985000Y-103775000D02*
X208985000Y-106635000D01*
X247085000Y-106635000D02*
X245165000Y-106635000D01*
X245165000Y-106635000D02*
X245165000Y-103775000D01*
X247085000Y-103775000D02*
X247085000Y-106635000D01*
X285185000Y-106635000D02*
X283265000Y-106635000D01*
X283265000Y-106635000D02*
X283265000Y-103775000D01*
X285185000Y-103775000D02*
X285185000Y-106635000D01*
X323285000Y-106635000D02*
X321365000Y-106635000D01*
X323285000Y-103775000D02*
X323285000Y-106635000D01*
X321365000Y-106635000D02*
X321365000Y-103775000D01*
X345312000Y-106156000D02*
X345312000Y-109016000D01*
X343392000Y-109016000D02*
X343392000Y-106156000D01*
X345312000Y-109016000D02*
X343392000Y-109016000D01*
X391167000Y-110496600D02*
X389247000Y-110496600D01*
X391167000Y-107636600D02*
X391167000Y-110496600D01*
X389247000Y-110496600D02*
X389247000Y-107636600D01*
X97528000Y-106635000D02*
X97528000Y-103775000D01*
X99448000Y-103775000D02*
X99448000Y-106635000D01*
X99448000Y-106635000D02*
X97528000Y-106635000D01*
X120878000Y-109016000D02*
X118958000Y-109016000D01*
X120878000Y-106156000D02*
X120878000Y-109016000D01*
X118958000Y-109016000D02*
X118958000Y-106156000D01*
X142905300Y-128066000D02*
X140985300Y-128066000D01*
X140985300Y-128066000D02*
X140985300Y-125206000D01*
X142905300Y-125206000D02*
X142905300Y-128066000D01*
X201841000Y-122825000D02*
X201841000Y-125685000D01*
X201841000Y-125685000D02*
X199921000Y-125685000D01*
X199921000Y-125685000D02*
X199921000Y-122825000D01*
X252956000Y-128066000D02*
X251036000Y-128066000D01*
X252956000Y-125206000D02*
X252956000Y-128066000D01*
X251036000Y-128066000D02*
X251036000Y-125206000D01*
X290543000Y-128066000D02*
X288623000Y-128066000D01*
X290543000Y-125206000D02*
X290543000Y-128066000D01*
X288623000Y-128066000D02*
X288623000Y-125206000D01*
X369069000Y-124273600D02*
X369069000Y-127133600D01*
X369069000Y-127133600D02*
X367149000Y-127133600D01*
X367149000Y-127133600D02*
X367149000Y-124273600D01*
X86367500Y-126635000D02*
X86367500Y-129495000D01*
X84447500Y-129495000D02*
X84447500Y-126635000D01*
X86367500Y-129495000D02*
X84447500Y-129495000D01*
X124450000Y-125820000D02*
X124450000Y-128680000D01*
X122530000Y-125820000D02*
X124450000Y-125820000D01*
X122530000Y-128680000D02*
X122530000Y-125820000D01*
X173728000Y-68535000D02*
X173728000Y-65675000D01*
X175648000Y-65675000D02*
X175648000Y-68535000D01*
X175648000Y-68535000D02*
X173728000Y-68535000D01*
X213748000Y-65675000D02*
X213748000Y-68535000D01*
X211828000Y-68535000D02*
X211828000Y-65675000D01*
X213748000Y-68535000D02*
X211828000Y-68535000D01*
X249928000Y-68535000D02*
X249928000Y-65675000D01*
X251848000Y-68535000D02*
X249928000Y-68535000D01*
X251848000Y-65675000D02*
X251848000Y-68535000D01*
X289948000Y-68535000D02*
X288028000Y-68535000D01*
X288028000Y-68535000D02*
X288028000Y-65675000D01*
X289948000Y-65675000D02*
X289948000Y-68535000D01*
X328048000Y-68535000D02*
X326128000Y-68535000D01*
X326128000Y-68535000D02*
X326128000Y-65675000D01*
X328048000Y-65675000D02*
X328048000Y-68535000D01*
X330334500Y-66847000D02*
X330334500Y-69707000D01*
X328414500Y-66847000D02*
X330334500Y-66847000D01*
X328414500Y-69707000D02*
X328414500Y-66847000D01*
X118498000Y-68535000D02*
X116578000Y-68535000D01*
X116578000Y-68535000D02*
X116578000Y-65675000D01*
X118498000Y-65675000D02*
X118498000Y-68535000D01*
X202826500Y-89236000D02*
X200906500Y-89236000D01*
X202826500Y-86376000D02*
X202826500Y-89236000D01*
X200906500Y-89236000D02*
X200906500Y-86376000D01*
X216590000Y-87585000D02*
X216590000Y-84725000D01*
X218510000Y-84725000D02*
X218510000Y-87585000D01*
X218510000Y-87585000D02*
X216590000Y-87585000D01*
X238617000Y-89966200D02*
X238617000Y-87106200D01*
X240537000Y-87106200D02*
X240537000Y-89966200D01*
X240537000Y-89966200D02*
X238617000Y-89966200D01*
X292790000Y-87585000D02*
X292790000Y-84725000D01*
X294710000Y-87585000D02*
X292790000Y-87585000D01*
X294710000Y-84725000D02*
X294710000Y-87585000D01*
X332810000Y-84725000D02*
X332810000Y-87585000D01*
X332810000Y-87585000D02*
X330890000Y-87585000D01*
X330890000Y-87585000D02*
X330890000Y-84725000D01*
X356228000Y-91156900D02*
X356228000Y-88296900D01*
X358148000Y-91156900D02*
X356228000Y-91156900D01*
X358148000Y-88296900D02*
X358148000Y-91156900D01*
X104259000Y-90561500D02*
X104259000Y-87701500D01*
X106179000Y-87701500D02*
X106179000Y-90561500D01*
X106179000Y-90561500D02*
X104259000Y-90561500D01*
X189935000Y-106635000D02*
X188015000Y-106635000D01*
X188015000Y-106635000D02*
X188015000Y-103775000D01*
X189935000Y-103775000D02*
X189935000Y-106635000D01*
X228035000Y-103775000D02*
X228035000Y-106635000D01*
X228035000Y-106635000D02*
X226115000Y-106635000D01*
X226115000Y-106635000D02*
X226115000Y-103775000D01*
X266135000Y-103775000D02*
X266135000Y-106635000D01*
X266135000Y-106635000D02*
X264215000Y-106635000D01*
X264215000Y-106635000D02*
X264215000Y-103775000D01*
X304235000Y-106635000D02*
X302315000Y-106635000D01*
X302315000Y-106635000D02*
X302315000Y-103775000D01*
X304235000Y-103775000D02*
X304235000Y-106635000D01*
X340415000Y-106635000D02*
X340415000Y-103775000D01*
X342335000Y-106635000D02*
X340415000Y-106635000D01*
X342335000Y-103775000D02*
X342335000Y-106635000D01*
X366743000Y-109016000D02*
X364823000Y-109016000D01*
X364823000Y-109016000D02*
X364823000Y-106156000D01*
X366743000Y-106156000D02*
X366743000Y-109016000D01*
X116578000Y-106635000D02*
X116578000Y-103775000D01*
X118498000Y-106635000D02*
X116578000Y-106635000D01*
X118498000Y-103775000D02*
X118498000Y-106635000D01*
X180410000Y-125685000D02*
X178490000Y-125685000D01*
X180410000Y-122825000D02*
X180410000Y-125685000D01*
X178490000Y-125685000D02*
X178490000Y-122825000D01*
X235179000Y-122825000D02*
X235179000Y-125685000D01*
X233259000Y-125685000D02*
X233259000Y-122825000D01*
X235179000Y-125685000D02*
X233259000Y-125685000D01*
X366148000Y-122825000D02*
X366148000Y-125685000D01*
X364228000Y-125685000D02*
X364228000Y-122825000D01*
X366148000Y-125685000D02*
X364228000Y-125685000D01*
X391167000Y-126635000D02*
X391167000Y-129495000D01*
X389247000Y-129495000D02*
X389247000Y-126635000D01*
X391167000Y-129495000D02*
X389247000Y-129495000D01*
X117507000Y-121518000D02*
X117507000Y-118658000D01*
X119427000Y-118658000D02*
X119427000Y-121518000D01*
X119427000Y-121518000D02*
X117507000Y-121518000D01*
X202954500Y-110430000D02*
X202954500Y-118170000D01*
X208154500Y-113030000D02*
X205554500Y-113030000D01*
X205554500Y-113030000D02*
X205554500Y-110430000D01*
X208154500Y-118170000D02*
X202954500Y-118170000D01*
X205554500Y-110430000D02*
X202954500Y-110430000D01*
X208154500Y-110430000D02*
X206824500Y-110430000D01*
X208154500Y-113030000D02*
X208154500Y-118170000D01*
X208154500Y-111760000D02*
X208154500Y-110430000D01*
M02*
