M48
; DRILL file {KiCad (5.99.0-11177-g6c67dfa032)} date Wednesday, August 04, 2021 at 06:30:21 PM
; FORMAT={-:-/ absolute / inch / decimal}
; #@! TF.CreationDate,2021-08-04T18:30:21+03:00
; #@! TF.GenerationSoftware,Kicad,Pcbnew,(5.99.0-11177-g6c67dfa032)
; #@! TF.FileFunction,Plated,1,2,PTH
FMAT,2
INCH
; #@! TA.AperFunction,Plated,PTH,ViaDrill
T1C0.0157
; #@! TA.AperFunction,Plated,PTH,ComponentDrill
T2C0.0157
; #@! TA.AperFunction,Plated,PTH,ComponentDrill
T3C0.0197
; #@! TA.AperFunction,Plated,PTH,ComponentDrill
T4C0.0236
; #@! TA.AperFunction,Plated,PTH,ComponentDrill
T5C0.0335
; #@! TA.AperFunction,Plated,PTH,ComponentDrill
T6C0.0394
; #@! TA.AperFunction,Plated,PTH,ComponentDrill
T7C0.0827
%
G90
G05
T1
X3.2475Y-3.437
X3.2875Y-5.115
X3.7579Y-3.0578
X4.0225Y-5.15
X4.1025Y-3.14
X4.2525Y-3.905
X4.2855Y-2.4759
X4.5375Y-3.642
X4.6275Y-3.325
X4.6634Y-4.6039
X4.72Y-3.5614
X4.72Y-4.1045
X4.8575Y-2.777
X4.9365Y-4.969
X4.9475Y-3.905
X4.9515Y-5.092
X5.004Y-4.9685
X5.0556Y-2.4819
X5.3575Y-4.8
X5.4325Y-3.33
X5.5175Y-4.9695
X5.5275Y-3.165
X5.8044Y-3.4567
X5.8055Y-2.4027
X5.87Y-4.2195
X5.8717Y-3.6472
X5.8725Y-3.8895
X5.9184Y-4.2182
X5.9725Y-2.725
X5.9748Y-3.6823
X5.9754Y-4.1825
X6.0065Y-3.7806
X6.0175Y-4.2595
X6.0343Y-4.4673
X6.0405Y-3.5965
X6.0966Y-3.5033
X6.0974Y-3.5593
X6.1124Y-3.8435
X6.1265Y-4.4902
X6.1375Y-2.52
X6.145Y-4.762
X6.1475Y-2.997
X6.1675Y-4.302
X6.2011Y-3.5516
X6.2063Y-3.3456
X6.2525Y-4.565
X6.2659Y-4.003
X6.2793Y-3.7132
X6.3312Y-4.3878
X6.3371Y-4.4931
X6.3755Y-3.7815
X6.3903Y-4.2037
X6.4122Y-4.3503
X6.4129Y-4.1811
X6.4157Y-3.6823
X6.4211Y-4.4757
X6.4221Y-3.9082
X6.424Y-3.9717
X6.4345Y-4.1594
X6.4414Y-4.499
X6.4492Y-3.6937
X6.4691Y-3.8435
X6.4725Y-3.445
X6.4755Y-3.6623
X6.4775Y-2.385
X6.5125Y-4.155
X6.5231Y-4.4616
X6.5363Y-3.874
X6.56Y-4.6424
X6.5725Y-4.37
X6.5875Y-3.442
X6.593Y-3.8465
X6.6375Y-4.6945
X6.6609Y-4.564
X6.6629Y-3.9656
X6.6647Y-4.6281
X6.6964Y-3.7323
X6.7052Y-4.5197
X6.7075Y-4.237
X6.7259Y-4.0256
X6.7265Y-3.59
X6.7495Y-4.2844
X6.7689Y-2.7035
X6.783Y-4.2047
X6.7968Y-4.4289
X6.8009Y-4.3063
X6.8095Y-3.9358
X6.8263Y-4.2835
X6.8387Y-3.6494
X6.843Y-4.1319
X6.8607Y-4.3819
X6.8863Y-4.2215
X6.8876Y-4.5234
X6.8893Y-2.7945
X6.905Y-3.9175
X6.9425Y-3.85
X6.9625Y-2.37
X6.9687Y-4.4774
X6.9958Y-4.1199
X7.1506Y-4.6293
X7.1631Y-4.8542
X7.1709Y-4.6697
X7.2975Y-4.6775
X7.436Y-4.5813
X7.4429Y-4.924
X7.4462Y-4.6628
X7.4557Y-4.5518
X7.4719Y-4.9486
X7.5525Y-4.1292
X7.5734Y-4.5781
X7.78Y-4.805
X7.8175Y-3.53
X7.8536Y-4.4921
X7.8976Y-4.7649
X7.9125Y-4.715
X7.9272Y-4.7767
X8.1625Y-3.165
X8.243Y-5.0673
X8.5161Y-4.2567
X8.5547Y-4.2059
X8.602Y-4.9118
X8.7639Y-3.4645
X8.7848Y-3.4854
X8.7975Y-3.512
X8.8443Y-3.165
X8.8815Y-4.5452
X8.8955Y-4.7139
X8.9084Y-4.2132
X9.0925Y-2.715
X9.1172Y-3.8437
X9.1199Y-2.755
X9.1875Y-2.62
X9.1887Y-2.4341
X9.2492Y-2.3267
X9.3204Y-4.7193
X9.327Y-3.573
X9.3533Y-3.5364
X9.3568Y-4.7192
X9.3575Y-2.755
X9.36Y-3.185
X9.3805Y-2.3317
X9.4576Y-4.7159
X9.5221Y-2.496
X9.5325Y-2.342
X9.5325Y-2.3795
X9.591Y-4.9149
X9.7336Y-2.3652
X9.76Y-2.352
X9.9622Y-2.6291
X9.9625Y-2.76
X10.1273Y-5.0041
X10.2237Y-2.324
X10.3225Y-2.3842
X10.4304Y-2.5952
X10.5596Y-4.697
X10.595Y-4.697
X10.7619Y-4.5763
X11.128Y-4.6875
X11.3272Y-3.9071
X11.3272Y-4.9252
X11.3717Y-4.611
X11.3906Y-3.3047
X11.4835Y-2.6409
X11.5425Y-5.095
X11.665Y-4.7338
X11.8431Y-4.8565
X11.8898Y-4.748
X11.9725Y-4.9063
X11.9993Y-2.5236
X12.0559Y-4.5311
X12.8288Y-4.8011
X13.2025Y-5.11
X13.5024Y-4.8484
X14.0391Y-4.7344
X14.3438Y-2.3672
X15.0325Y-2.39
X15.5156Y-4.7344
X15.6797Y-4.0547
X15.8181Y-5.0476
T2
X3.8575Y-3.457
X3.8809Y-3.4005
X3.8809Y-3.5136
X3.9375Y-3.377
X3.9375Y-3.537
X3.994Y-3.4005
X3.994Y-3.5136
X4.0175Y-3.457
X4.6075Y-4.957
X4.6309Y-4.9005
X4.6309Y-5.0136
X4.6875Y-4.877
X4.6875Y-5.037
X4.744Y-4.9005
X4.744Y-5.0136
X4.7675Y-4.957
X5.3575Y-2.707
X5.3809Y-2.6505
X5.3809Y-2.7636
X5.4375Y-2.627
X5.4375Y-2.787
X5.4941Y-2.6505
X5.4941Y-2.7636
X5.5175Y-2.707
X7.045Y-3.457
X7.0684Y-3.4005
X7.0684Y-3.5136
X7.125Y-3.377
X7.125Y-3.537
X7.1815Y-3.4005
X7.1815Y-3.5136
X7.205Y-3.457
X8.0125Y-4.957
X8.0359Y-4.9005
X8.0359Y-5.0136
X8.0925Y-4.877
X8.0925Y-5.037
X8.1491Y-4.9005
X8.1491Y-5.0136
X8.1725Y-4.957
X10.795Y-3.457
X10.8184Y-3.4005
X10.8184Y-3.5136
X10.875Y-3.377
X10.875Y-3.537
X10.9315Y-3.4005
X10.9315Y-3.5136
X10.955Y-3.457
X12.67Y-4.957
X12.6934Y-4.9005
X12.6934Y-5.0136
X12.75Y-4.877
X12.75Y-5.037
X12.8065Y-4.9005
X12.8065Y-5.0136
X12.83Y-4.957
X13.6075Y-2.707
X13.6309Y-2.6505
X13.6309Y-2.7636
X13.6875Y-2.627
X13.6875Y-2.787
X13.744Y-2.6505
X13.744Y-2.7636
X13.7675Y-2.707
X13.795Y-3.457
X13.8184Y-3.4005
X13.8184Y-3.5136
X13.875Y-3.377
X13.875Y-3.537
X13.9315Y-3.4005
X13.9315Y-3.5136
X13.955Y-3.457
X15.1075Y-4.957
X15.1309Y-4.9005
X15.1309Y-5.0136
X15.1875Y-4.877
X15.1875Y-5.037
X15.244Y-4.9005
X15.244Y-5.0136
X15.2675Y-4.957
T3
X3.2649Y-2.525
X3.2649Y-3.275
X3.2649Y-4.025
X3.2649Y-4.775
X3.6898Y-5.075
X3.8102Y-2.425
X3.8102Y-3.175
X3.8102Y-3.925
X3.8102Y-4.675
X4.0149Y-2.525
X4.0149Y-3.275
X4.0149Y-4.025
X4.0149Y-4.775
X4.2351Y-4.975
X4.5602Y-2.425
X4.5602Y-3.175
X4.5602Y-3.925
X4.5602Y-4.675
X4.7649Y-2.525
X4.7649Y-3.275
X4.7649Y-4.025
X4.7649Y-4.775
X5.3102Y-2.425
X5.3102Y-3.175
X5.3102Y-3.925
X5.3102Y-4.675
X5.5149Y-2.525
X5.6086Y-3.275
X5.6086Y-4.775
X5.7961Y-4.025
X6.0601Y-2.425
X6.1539Y-3.175
X6.1539Y-4.675
X6.2649Y-2.525
X6.3414Y-3.925
X6.4524Y-3.275
X6.4524Y-4.775
X6.8102Y-2.425
X6.8274Y-4.025
X6.9976Y-3.175
X6.9976Y-4.675
X7.0149Y-2.525
X7.2024Y-3.275
X7.2961Y-4.775
X7.3726Y-3.925
X7.5602Y-2.425
X7.5774Y-4.025
X7.7476Y-3.175
X7.7649Y-2.525
X7.8414Y-4.675
X7.9524Y-3.275
X8.1226Y-3.925
X8.3102Y-2.425
X8.3274Y-4.025
X8.4976Y-3.175
X8.5149Y-2.525
X8.6086Y-4.775
X8.7024Y-3.275
X8.8726Y-3.925
X9.0602Y-2.425
X9.0774Y-4.025
X9.1539Y-4.675
X9.2476Y-3.175
X9.2649Y-2.525
X9.4524Y-3.275
X9.6226Y-3.925
X9.8102Y-2.425
X9.8274Y-4.025
X9.9211Y-4.775
X9.9976Y-3.175
X10.0149Y-2.525
X10.2024Y-3.275
X10.3726Y-3.925
X10.4664Y-4.675
X10.4836Y-4.775
X10.5602Y-2.425
X10.5774Y-4.025
X10.6274Y-5.075
X10.7476Y-3.175
X10.7649Y-2.525
X10.9524Y-3.275
X11.0289Y-4.675
X11.1226Y-3.925
X11.1726Y-4.975
X11.3102Y-2.425
X11.3274Y-4.025
X11.4211Y-4.775
X11.4976Y-3.175
X11.5149Y-2.525
X11.7024Y-3.275
X11.8726Y-3.925
X11.9664Y-4.675
X11.9836Y-4.775
X12.0602Y-2.425
X12.0774Y-4.025
X12.2476Y-3.175
X12.2649Y-2.525
X12.4524Y-3.275
X12.5289Y-4.675
X12.6226Y-3.925
X12.8102Y-2.425
X12.8274Y-4.025
X12.9211Y-4.775
X12.9976Y-3.175
X13.0149Y-2.525
X13.2024Y-3.275
X13.3726Y-3.925
X13.4664Y-4.675
X13.5602Y-2.425
X13.5774Y-4.025
X13.7211Y-4.325
X13.7476Y-3.175
X13.7649Y-4.775
X13.8149Y-2.825
X13.9524Y-3.275
X14.1226Y-3.925
X14.1398Y-2.525
X14.2664Y-4.225
X14.2836Y-3.575
X14.3102Y-4.675
X14.3602Y-2.725
X14.4211Y-4.025
X14.4976Y-3.175
X14.5149Y-4.775
X14.5649Y-2.825
X14.5649Y-4.325
X14.6851Y-2.425
X14.8289Y-3.475
X14.9664Y-3.925
X14.9836Y-3.275
X15.0602Y-4.675
X15.1102Y-2.725
X15.1102Y-4.225
X15.2649Y-2.525
X15.2649Y-4.025
X15.2649Y-4.775
X15.3149Y-3.575
X15.5289Y-3.175
X15.8102Y-2.425
X15.8102Y-3.925
X15.8102Y-4.675
X15.8602Y-3.475
T5
X8.0427Y-4.4
X8.0427Y-4.5
X8.0427Y-4.6
X8.1427Y-4.4
X8.1427Y-4.5
X8.1427Y-4.6
T6
X3.298Y-3.4996
X3.298Y-3.6168
X3.298Y-3.734
X3.298Y-3.8511
T7
X3.9375Y-3.457
X4.6875Y-4.957
X5.4375Y-2.707
X7.125Y-3.457
X8.0925Y-4.957
X10.875Y-3.457
X12.75Y-4.957
X13.6875Y-2.707
X13.875Y-3.457
X15.1875Y-4.957
T4
G00X9.3924Y-2.0765
M15
G01X9.3924Y-2.1001
M16
G05
G00X9.3924Y-2.2312
M15
G01X9.3924Y-2.2745
M16
G05
G00X9.7326Y-2.0765
M15
G01X9.7326Y-2.1001
M16
G05
G00X9.7326Y-2.2312
M15
G01X9.7326Y-2.2745
M16
G05
T0
M30
