G04 #@! TF.GenerationSoftware,KiCad,Pcbnew,(5.99.0-11177-g6c67dfa032)*
G04 #@! TF.CreationDate,2021-08-04T18:30:17+03:00*
G04 #@! TF.ProjectId,lyra_beta,6c797261-5f62-4657-9461-2e6b69636164,rev?*
G04 #@! TF.SameCoordinates,Original*
G04 #@! TF.FileFunction,Profile,NP*
%FSLAX46Y46*%
G04 Gerber Fmt 4.6, Leading zero omitted, Abs format (unit mm)*
G04 Created by KiCad (PCBNEW (5.99.0-11177-g6c67dfa032)) date 2021-08-04 18:30:17*
%MOMM*%
%LPD*%
G01*
G04 APERTURE LIST*
%ADD10C,0.200000*%
G04 APERTURE END LIST*
D10*
X385763100Y-61350000D02*
X385466596Y-61335027D01*
X385178656Y-61291085D01*
X384900738Y-61219634D01*
X384634300Y-61122135D01*
X384380799Y-61000050D01*
X384141693Y-60854840D01*
X383918441Y-60687965D01*
X383712500Y-60500887D01*
X383525327Y-60295067D01*
X383358381Y-60071967D01*
X383213119Y-59833048D01*
X383091000Y-59579770D01*
X382993480Y-59313595D01*
X382922018Y-59035984D01*
X382878072Y-58748399D01*
X382863100Y-58452300D01*
X110916800Y-132549800D02*
X111104895Y-132456882D01*
X111160300Y-132299900D01*
X235087100Y-57949200D02*
X198659000Y-57950000D01*
X388663100Y-58450000D02*
X388648127Y-58746503D01*
X388604181Y-59034443D01*
X388532719Y-59312361D01*
X388435200Y-59578800D01*
X388313080Y-59832300D01*
X388167818Y-60071406D01*
X388000872Y-60294658D01*
X387813700Y-60500600D01*
X387607758Y-60687772D01*
X387384506Y-60854718D01*
X387145400Y-60999980D01*
X386891900Y-61122100D01*
X386625461Y-61219619D01*
X386347543Y-61291081D01*
X386059603Y-61335027D01*
X385763100Y-61350000D01*
X141512000Y-132549800D02*
X212320200Y-132550099D01*
X135212699Y-132051899D02*
X135212600Y-132049800D01*
X309556100Y-131325699D02*
X309779122Y-131359418D01*
X309975426Y-131453790D01*
X310134832Y-131598634D01*
X310247159Y-131783770D01*
X310302227Y-131999018D01*
X310306100Y-132075699D01*
X310957300Y-132550000D02*
X311557300Y-132550000D01*
X404011899Y-110898700D02*
X404011899Y-60050000D01*
X377862300Y-58424300D02*
X377862300Y-58200000D01*
X250135300Y-132048900D02*
X250135200Y-132071700D01*
X377612300Y-57950000D02*
X376931656Y-57950000D01*
X376251013Y-57950000D01*
X375570371Y-57950000D01*
X374889729Y-57950000D01*
X374209087Y-57950000D01*
X373528446Y-57950000D01*
X372847806Y-57950000D01*
X372167165Y-57950000D01*
X371486525Y-57950000D01*
X370805885Y-57950000D01*
X370125246Y-57950000D01*
X369444606Y-57950000D01*
X368763967Y-57950000D01*
X368083328Y-57950000D01*
X367402689Y-57950000D01*
X366722050Y-57950000D01*
X366041410Y-57950000D01*
X365360771Y-57950000D01*
X364680132Y-57950000D01*
X363999493Y-57950000D01*
X363318853Y-57950000D01*
X362638214Y-57950000D01*
X361957574Y-57950000D01*
X361276934Y-57950000D01*
X360596293Y-57950000D01*
X359915653Y-57950000D01*
X359235012Y-57950000D01*
X358554370Y-57950000D01*
X357873728Y-57950000D01*
X357193086Y-57950000D01*
X356512443Y-57950000D01*
X355831800Y-57950000D01*
X82245800Y-111400500D02*
X82262100Y-111400300D01*
X261944000Y-131325699D02*
X262167022Y-131359418D01*
X262363326Y-131453790D01*
X262522732Y-131598634D01*
X262635059Y-131783770D01*
X262690127Y-131999018D01*
X262694000Y-132075699D01*
X87129799Y-132549900D02*
X87314863Y-132468005D01*
X87379799Y-132299900D01*
X236910800Y-56049600D02*
X236890766Y-56310589D01*
X236832323Y-56568986D01*
X236737956Y-56819750D01*
X236610150Y-57057842D01*
X236451392Y-57278222D01*
X236264168Y-57475849D01*
X236050963Y-57645686D01*
X235814262Y-57782690D01*
X235556552Y-57881824D01*
X235280319Y-57938046D01*
X235087100Y-57949200D01*
X353758900Y-57950000D02*
X293912700Y-57950000D01*
X403533600Y-111398200D02*
X403742375Y-111342581D01*
X403903726Y-111209354D01*
X403997041Y-111020103D01*
X404011899Y-110898700D01*
X389162900Y-57950000D02*
X388951727Y-57996698D01*
X388784546Y-58123588D01*
X388682994Y-58310860D01*
X388662900Y-58433700D01*
X88879799Y-132299900D02*
X88961693Y-132484964D01*
X89129799Y-132549900D01*
X404011899Y-117698399D02*
X403963247Y-117482910D01*
X403831797Y-117314211D01*
X403639306Y-117214888D01*
X403514000Y-117198000D01*
X214338300Y-131325699D02*
X214561322Y-131359418D01*
X214757626Y-131453790D01*
X214917032Y-131598634D01*
X215029359Y-131783770D01*
X215084427Y-131999018D01*
X215088300Y-132075699D01*
X285775600Y-131325699D02*
X285998622Y-131359418D01*
X286194926Y-131453790D01*
X286354332Y-131598634D01*
X286466659Y-131783770D01*
X286521727Y-131999018D01*
X286525600Y-132075699D01*
X237413500Y-132075699D02*
X237447219Y-131852676D01*
X237541591Y-131656372D01*
X237686435Y-131496966D01*
X237871571Y-131384639D01*
X238086819Y-131329571D01*
X238163500Y-131325699D01*
X81762100Y-60050000D02*
X81762100Y-110900500D01*
X103412000Y-57950000D02*
X103200826Y-57996698D01*
X103033645Y-58123588D01*
X102932094Y-58310860D01*
X102912000Y-58433700D01*
X215088300Y-132075699D02*
X215088300Y-132300000D01*
X134712300Y-132549800D02*
X134927789Y-132501148D01*
X135096488Y-132369697D01*
X135195810Y-132177205D01*
X135212699Y-132051899D01*
X81762100Y-130449999D02*
X81773000Y-130663805D01*
X81804981Y-130871644D01*
X81856965Y-131072433D01*
X81927873Y-131265094D01*
X82016625Y-131448548D01*
X82122143Y-131621713D01*
X82243349Y-131783511D01*
X82379162Y-131932862D01*
X82528505Y-132068686D01*
X82690298Y-132189903D01*
X82863462Y-132295433D01*
X83046920Y-132384198D01*
X83239591Y-132455117D01*
X83440397Y-132507109D01*
X83648260Y-132539097D01*
X83862100Y-132550000D01*
X212320200Y-132550099D02*
X212320200Y-132550000D01*
X83862100Y-57950000D02*
X83648144Y-57960892D01*
X83440196Y-57992853D01*
X83239331Y-58044805D01*
X83046624Y-58115675D01*
X82863152Y-58204384D01*
X82689990Y-58309859D01*
X82528214Y-58431023D01*
X82378899Y-58566800D01*
X82243122Y-58716114D01*
X82121959Y-58877890D01*
X82016484Y-59051052D01*
X81927774Y-59234525D01*
X81856905Y-59427231D01*
X81804953Y-59628096D01*
X81772992Y-59836044D01*
X81762100Y-60050000D01*
X81762100Y-117700200D02*
X81762100Y-130449999D01*
X350563000Y-132048900D02*
X350562900Y-132071700D01*
X344763000Y-132050000D02*
X344777972Y-131753495D01*
X344821918Y-131465555D01*
X344893380Y-131187637D01*
X344990900Y-130921199D01*
X345113019Y-130667698D01*
X345258281Y-130428593D01*
X345425227Y-130205340D01*
X345612400Y-129999399D01*
X345818341Y-129812227D01*
X346041593Y-129645280D01*
X346280699Y-129500019D01*
X346534200Y-129377899D01*
X346800638Y-129280380D01*
X347078556Y-129208918D01*
X347366496Y-129164972D01*
X347663000Y-129150000D01*
X250686900Y-57950000D02*
X250400319Y-57925365D01*
X250130356Y-57854776D01*
X249879537Y-57743204D01*
X249650390Y-57595619D01*
X249445440Y-57416993D01*
X249267214Y-57212296D01*
X249118240Y-56986500D01*
X249001045Y-56744576D01*
X248918154Y-56491494D01*
X248872095Y-56232227D01*
X248863100Y-56058400D01*
X113911499Y-132549900D02*
X134712300Y-132549800D01*
X247235300Y-129150000D02*
X247531879Y-129164973D01*
X247820026Y-129208920D01*
X248098253Y-129280381D01*
X248365070Y-129377896D01*
X248618990Y-129500006D01*
X248858525Y-129645249D01*
X249082187Y-129812167D01*
X249288487Y-129999300D01*
X249475938Y-130205187D01*
X249643050Y-130428369D01*
X249788337Y-130667386D01*
X249910310Y-130920778D01*
X250007481Y-131187085D01*
X250078362Y-131464848D01*
X250121464Y-131752606D01*
X250135300Y-132048900D01*
X350562900Y-132071700D02*
X350618518Y-132280476D01*
X350751745Y-132441826D01*
X350940996Y-132535142D01*
X351062400Y-132550000D01*
X378612300Y-59174300D02*
X378389277Y-59140580D01*
X378192973Y-59046208D01*
X378033567Y-58901364D01*
X377921240Y-58716228D01*
X377866172Y-58500980D01*
X377862300Y-58424300D01*
X110910300Y-132549900D02*
X110916800Y-132549800D01*
X243835000Y-132550000D02*
X244050489Y-132501348D01*
X244219188Y-132369897D01*
X244318511Y-132177406D01*
X244335400Y-132052100D01*
X287613000Y-58444500D02*
X287562021Y-58229723D01*
X287429187Y-58062630D01*
X287237057Y-57965512D01*
X287113000Y-57950000D01*
X262694000Y-132300000D02*
X262775894Y-132485064D01*
X262944000Y-132550000D01*
X379612300Y-57950000D02*
X379427235Y-58031894D01*
X379362300Y-58200000D01*
X83862100Y-132550000D02*
X87129799Y-132549900D01*
X284195800Y-132550000D02*
X284775600Y-132550000D01*
X212320200Y-132550000D02*
X213338300Y-132550000D01*
X403510800Y-111398100D02*
X403533600Y-111398200D01*
X238011000Y-50449900D02*
X237790923Y-50472503D01*
X237585198Y-50537218D01*
X237398446Y-50639406D01*
X237235287Y-50774425D01*
X237100342Y-50937634D01*
X236998232Y-51124393D01*
X236933578Y-51330062D01*
X236911000Y-51550000D01*
X88129799Y-131325600D02*
X88352821Y-131359319D01*
X88549125Y-131453691D01*
X88708531Y-131598535D01*
X88820858Y-131783671D01*
X88875926Y-131998919D01*
X88879799Y-132075600D01*
X310306100Y-132075699D02*
X310306100Y-132300000D01*
X287612900Y-58452300D02*
X287613000Y-58444500D01*
X87379799Y-132299900D02*
X87379799Y-132075600D01*
X382863200Y-58444500D02*
X382812221Y-58229723D01*
X382679387Y-58062630D01*
X382487257Y-57965512D01*
X382363200Y-57950000D01*
X403511899Y-117198100D02*
X403215395Y-117183127D01*
X402927455Y-117139181D01*
X402649537Y-117067719D01*
X402383099Y-116970200D01*
X402129598Y-116848080D01*
X401890493Y-116702818D01*
X401667241Y-116535872D01*
X401461299Y-116348700D01*
X401274127Y-116142758D01*
X401107181Y-115919506D01*
X400961919Y-115680400D01*
X400839799Y-115426900D01*
X400742280Y-115160461D01*
X400670818Y-114882543D01*
X400626872Y-114594603D01*
X400611900Y-114298100D01*
X382863100Y-58452300D02*
X382863200Y-58444500D01*
X285025600Y-132300000D02*
X285025600Y-132075699D01*
X354081800Y-58424300D02*
X354081800Y-58200000D01*
X244335300Y-132050000D02*
X244337731Y-131753792D01*
X244372369Y-131466073D01*
X244437421Y-131188306D01*
X244531095Y-130921959D01*
X244651598Y-130668496D01*
X244797138Y-130429384D01*
X244965924Y-130206088D01*
X245156162Y-130000075D01*
X245366061Y-129812808D01*
X245593828Y-129645755D01*
X245837671Y-129500382D01*
X246095798Y-129378153D01*
X246366417Y-129280534D01*
X246647734Y-129208992D01*
X246937960Y-129164992D01*
X247235300Y-129150000D01*
X237163500Y-132550000D02*
X237348564Y-132468105D01*
X237413500Y-132300000D01*
X286775600Y-132550000D02*
X287456243Y-132550000D01*
X288136886Y-132550000D01*
X288817528Y-132550000D01*
X289498170Y-132550000D01*
X290178812Y-132550000D01*
X290859453Y-132550000D01*
X291540093Y-132550000D01*
X292220734Y-132550000D01*
X292901374Y-132550000D01*
X293582014Y-132550000D01*
X294262653Y-132550000D01*
X294943293Y-132550000D01*
X295623932Y-132550000D01*
X296304571Y-132550000D01*
X296985210Y-132550000D01*
X297665850Y-132550000D01*
X298346489Y-132550000D01*
X299027128Y-132550000D01*
X299707767Y-132550000D01*
X300388406Y-132550000D01*
X301069046Y-132550000D01*
X301749685Y-132550000D01*
X302430325Y-132550000D01*
X303110965Y-132550000D01*
X303791606Y-132550000D01*
X304472246Y-132550000D01*
X305152887Y-132550000D01*
X305833529Y-132550000D01*
X306514171Y-132550000D01*
X307194813Y-132550000D01*
X307875456Y-132550000D01*
X308556100Y-132550000D01*
X293912700Y-57950000D02*
X293701527Y-57996698D01*
X293534346Y-58123588D01*
X293432794Y-58310860D01*
X293412700Y-58433700D01*
X285025600Y-132075699D02*
X285059319Y-131852676D01*
X285153691Y-131656372D01*
X285298535Y-131496966D01*
X285483671Y-131384639D01*
X285698919Y-131329571D01*
X285775600Y-131325699D01*
X112660300Y-132075600D02*
X112660300Y-132299900D01*
X111910300Y-131325600D02*
X112133322Y-131359319D01*
X112329626Y-131453691D01*
X112489032Y-131598535D01*
X112601359Y-131783671D01*
X112656427Y-131998919D01*
X112660300Y-132075600D01*
X310556100Y-132550000D02*
X310957300Y-132550000D01*
X213338300Y-132550000D02*
X213523364Y-132468105D01*
X213588300Y-132300000D01*
X87379799Y-132075600D02*
X87413518Y-131852577D01*
X87507891Y-131656273D01*
X87652735Y-131496867D01*
X87837871Y-131384540D01*
X88053118Y-131329472D01*
X88129799Y-131325600D01*
X100012200Y-61350000D02*
X99715695Y-61335027D01*
X99427755Y-61291085D01*
X99149837Y-61219634D01*
X98883399Y-61122135D01*
X98629898Y-61000050D01*
X98390793Y-60854840D01*
X98167540Y-60687965D01*
X97961599Y-60500887D01*
X97774427Y-60295067D01*
X97607480Y-60071967D01*
X97462219Y-59833048D01*
X97340099Y-59579770D01*
X97242580Y-59313595D01*
X97171118Y-59035984D01*
X97127172Y-58748399D01*
X97112200Y-58452300D01*
X192359300Y-58444500D02*
X192308321Y-58229723D01*
X192175487Y-58062630D01*
X191983357Y-57965512D01*
X191859300Y-57950000D01*
X191859300Y-57950000D02*
X103412000Y-57950000D01*
X248863100Y-56058400D02*
X248863100Y-51550000D01*
X354081800Y-58200000D02*
X353999905Y-58014935D01*
X353831800Y-57950000D01*
X239163500Y-132550000D02*
X239455473Y-132550000D01*
X239747445Y-132550000D01*
X240039415Y-132550000D01*
X240331384Y-132550000D01*
X240623351Y-132550000D01*
X240915318Y-132550000D01*
X241207284Y-132550000D01*
X241499250Y-132550000D01*
X241791215Y-132550000D01*
X242083181Y-132550000D01*
X242375148Y-132550000D01*
X242667115Y-132550000D01*
X242959084Y-132550000D01*
X243251054Y-132550000D01*
X243543026Y-132550000D01*
X243835000Y-132550000D01*
X314318600Y-131325699D02*
X314541622Y-131359418D01*
X314737926Y-131453790D01*
X314897332Y-131598634D01*
X315009659Y-131783770D01*
X315064727Y-131999018D01*
X315068600Y-132075699D01*
X403514000Y-117198000D02*
X403511899Y-117198100D01*
X260944000Y-132550000D02*
X261129064Y-132468105D01*
X261194000Y-132300000D01*
X388662900Y-58433700D02*
X388663100Y-58450000D01*
X250634700Y-132550000D02*
X250956862Y-132550000D01*
X251279026Y-132550000D01*
X251601189Y-132550000D01*
X251923354Y-132550000D01*
X252245519Y-132550000D01*
X252567684Y-132550000D01*
X252889849Y-132550000D01*
X253212015Y-132550000D01*
X253534181Y-132550000D01*
X253856348Y-132550000D01*
X254178514Y-132550000D01*
X254500681Y-132550000D01*
X254822848Y-132550000D01*
X255145015Y-132550000D01*
X255467182Y-132550000D01*
X255789350Y-132550000D01*
X256111517Y-132550000D01*
X256433684Y-132550000D01*
X256755851Y-132550000D01*
X257078018Y-132550000D01*
X257400185Y-132550000D01*
X257722351Y-132550000D01*
X258044518Y-132550000D01*
X258366684Y-132550000D01*
X258688850Y-132550000D01*
X259011015Y-132550000D01*
X259333180Y-132550000D01*
X259655345Y-132550000D01*
X259977510Y-132550000D01*
X260299673Y-132550000D01*
X260621837Y-132550000D01*
X260944000Y-132550000D01*
X141012500Y-132071500D02*
X141068118Y-132280276D01*
X141201345Y-132441626D01*
X141390596Y-132534942D01*
X141512000Y-132549800D01*
X89129799Y-132549900D02*
X110910300Y-132549900D01*
X192359200Y-58452300D02*
X192359300Y-58444500D01*
X198159200Y-58450000D02*
X198144227Y-58746503D01*
X198100281Y-59034443D01*
X198028819Y-59312361D01*
X197931299Y-59578800D01*
X197809180Y-59832300D01*
X197663918Y-60071406D01*
X197496972Y-60294658D01*
X197309799Y-60500600D01*
X197103858Y-60687772D01*
X196880605Y-60854718D01*
X196641500Y-60999980D01*
X196387999Y-61122100D01*
X196121561Y-61219619D01*
X195843643Y-61291081D01*
X195555703Y-61335027D01*
X195259200Y-61350000D01*
X351062400Y-132550000D02*
X352478358Y-132550000D01*
X353915856Y-132550000D01*
X355373856Y-132550000D01*
X356851320Y-132550000D01*
X358347212Y-132550000D01*
X359860494Y-132550000D01*
X361390129Y-132550000D01*
X362935079Y-132550000D01*
X364494308Y-132550000D01*
X366066779Y-132550000D01*
X367651453Y-132550000D01*
X369247295Y-132550000D01*
X370853266Y-132550000D01*
X372468330Y-132550000D01*
X374091450Y-132550000D01*
X375721587Y-132550000D01*
X377357705Y-132550000D01*
X378998768Y-132550000D01*
X380643736Y-132550000D01*
X382291574Y-132550000D01*
X383941245Y-132550000D01*
X385591710Y-132550000D01*
X387241933Y-132550000D01*
X388890876Y-132550000D01*
X390537503Y-132550000D01*
X392180776Y-132550000D01*
X393819658Y-132550000D01*
X395453111Y-132550000D01*
X397080100Y-132550000D01*
X398699585Y-132550000D01*
X400310531Y-132550000D01*
X401911900Y-132550000D01*
X213588300Y-132075699D02*
X213622019Y-131852676D01*
X213716391Y-131656372D01*
X213861235Y-131496966D01*
X214046371Y-131384639D01*
X214261619Y-131329571D01*
X214338300Y-131325699D01*
X262944000Y-132550000D02*
X283757500Y-132550000D01*
X236911000Y-51550000D02*
X236910800Y-56049600D01*
X313568600Y-132075699D02*
X313602319Y-131852676D01*
X313696691Y-131656372D01*
X313841535Y-131496966D01*
X314026671Y-131384639D01*
X314241919Y-131329571D01*
X314318600Y-131325699D01*
X308806100Y-132075699D02*
X308839819Y-131852676D01*
X308934191Y-131656372D01*
X309079035Y-131496966D01*
X309264171Y-131384639D01*
X309479419Y-131329571D01*
X309556100Y-131325699D01*
X287113000Y-57950000D02*
X250686900Y-57950000D01*
X355581800Y-58424300D02*
X355548080Y-58647322D01*
X355453708Y-58843626D01*
X355308864Y-59003032D01*
X355123728Y-59115359D01*
X354908480Y-59170427D01*
X354831800Y-59174300D01*
X112910300Y-132549900D02*
X113911499Y-132549900D01*
X293412900Y-58450000D02*
X293397927Y-58746503D01*
X293353981Y-59034443D01*
X293282519Y-59312361D01*
X293185000Y-59578800D01*
X293062880Y-59832300D01*
X292917618Y-60071406D01*
X292750672Y-60294658D01*
X292563500Y-60500600D01*
X292357558Y-60687772D01*
X292134306Y-60854718D01*
X291895200Y-60999980D01*
X291641700Y-61122100D01*
X291375261Y-61219619D01*
X291097343Y-61291081D01*
X290809403Y-61335027D01*
X290512900Y-61350000D01*
X382363200Y-57950000D02*
X379612300Y-57950000D01*
X215088300Y-132300000D02*
X215170194Y-132485064D01*
X215338300Y-132550000D01*
X355831800Y-57950000D02*
X355646735Y-58031894D01*
X355581800Y-58200000D01*
X344262700Y-132550000D02*
X344478189Y-132501348D01*
X344646887Y-132369897D01*
X344746210Y-132177406D01*
X344763100Y-132052100D01*
X247763200Y-50449900D02*
X247458446Y-50449900D01*
X247153692Y-50449900D01*
X246848938Y-50449900D01*
X246544183Y-50449900D01*
X246239427Y-50449900D01*
X245934672Y-50449900D01*
X245629915Y-50449900D01*
X245325159Y-50449900D01*
X245020402Y-50449900D01*
X244715645Y-50449900D01*
X244410888Y-50449900D01*
X244106130Y-50449900D01*
X243801373Y-50449900D01*
X243496615Y-50449900D01*
X243191857Y-50449900D01*
X242887100Y-50449900D01*
X242582342Y-50449900D01*
X242277584Y-50449900D01*
X241972826Y-50449900D01*
X241668069Y-50449900D01*
X241363311Y-50449900D01*
X241058554Y-50449900D01*
X240753797Y-50449900D01*
X240449040Y-50449900D01*
X240144284Y-50449900D01*
X239839527Y-50449900D01*
X239534772Y-50449900D01*
X239230016Y-50449900D01*
X238925261Y-50449900D01*
X238620507Y-50449900D01*
X238315753Y-50449900D01*
X238011000Y-50449900D01*
X238913500Y-132075699D02*
X238913500Y-132300000D01*
X250135200Y-132071700D02*
X250190818Y-132280476D01*
X250324045Y-132441826D01*
X250513296Y-132535142D01*
X250634700Y-132550000D01*
X401911900Y-57950000D02*
X389162900Y-57950000D01*
X111160300Y-132299900D02*
X111160300Y-132075600D01*
X112903799Y-132549800D02*
X112910300Y-132549900D01*
X198659000Y-57950000D02*
X198447827Y-57996698D01*
X198280646Y-58123588D01*
X198179094Y-58310860D01*
X198159000Y-58433700D01*
X261194000Y-132075699D02*
X261227719Y-131852676D01*
X261322091Y-131656372D01*
X261466935Y-131496966D01*
X261652071Y-131384639D01*
X261867319Y-131329571D01*
X261944000Y-131325699D01*
X313568600Y-132300000D02*
X313568600Y-132075699D01*
X237413500Y-132300000D02*
X237413500Y-132075699D01*
X102912000Y-58433700D02*
X102912200Y-58450000D01*
X82256599Y-117200200D02*
X82041822Y-117251178D01*
X81874730Y-117384012D01*
X81777612Y-117576142D01*
X81762100Y-117700200D01*
X97112300Y-58444500D02*
X97061321Y-58229723D01*
X96928487Y-58062630D01*
X96736357Y-57965512D01*
X96612300Y-57950000D01*
X404011899Y-60050000D02*
X404001002Y-59836110D01*
X403969029Y-59628211D01*
X403917058Y-59427380D01*
X403846167Y-59234693D01*
X403757433Y-59051229D01*
X403651934Y-58878066D01*
X403530746Y-58716280D01*
X403394949Y-58566950D01*
X403245618Y-58431152D01*
X403083832Y-58309964D01*
X402910669Y-58204465D01*
X402727205Y-58115731D01*
X402534519Y-58044840D01*
X402333687Y-57992869D01*
X402125788Y-57960896D01*
X401911900Y-57950000D01*
X315068600Y-132300000D02*
X315150494Y-132485064D01*
X315318600Y-132550000D01*
X283757500Y-132550000D02*
X284195800Y-132550000D01*
X355581800Y-58200000D02*
X355581800Y-58424300D01*
X215338300Y-132550000D02*
X216020340Y-132550000D01*
X216702380Y-132550000D01*
X217384419Y-132550000D01*
X218066458Y-132550000D01*
X218748496Y-132550000D01*
X219430534Y-132550000D01*
X220112572Y-132550000D01*
X220794609Y-132550000D01*
X221476646Y-132550000D01*
X222158683Y-132550000D01*
X222840719Y-132550000D01*
X223522755Y-132550000D01*
X224204792Y-132550000D01*
X224886828Y-132550000D01*
X225568864Y-132550000D01*
X226250900Y-132550000D01*
X226932935Y-132550000D01*
X227614971Y-132550000D01*
X228297007Y-132550000D01*
X228979044Y-132550000D01*
X229661080Y-132550000D01*
X230343116Y-132550000D01*
X231025153Y-132550000D01*
X231707190Y-132550000D01*
X232389227Y-132550000D01*
X233071265Y-132550000D01*
X233753303Y-132550000D01*
X234435341Y-132550000D01*
X235117380Y-132550000D01*
X235799419Y-132550000D01*
X236481459Y-132550000D01*
X237163500Y-132550000D01*
X311557300Y-132550000D02*
X313318600Y-132550000D01*
X96612300Y-57950000D02*
X96310139Y-57950000D01*
X95948983Y-57950000D01*
X95720711Y-57950000D01*
X95462481Y-57950000D01*
X95175672Y-57950000D01*
X94861662Y-57950000D01*
X94521831Y-57950000D01*
X94157557Y-57950000D01*
X93770218Y-57950000D01*
X93361193Y-57950000D01*
X92931860Y-57950000D01*
X92483600Y-57950000D01*
X92017789Y-57950000D01*
X91535806Y-57950000D01*
X91039031Y-57950000D01*
X90528842Y-57950000D01*
X90006618Y-57950000D01*
X89473737Y-57950000D01*
X88931577Y-57950000D01*
X88381518Y-57950000D01*
X87824938Y-57950000D01*
X87263216Y-57950000D01*
X86697730Y-57950000D01*
X86129860Y-57950000D01*
X85560983Y-57950000D01*
X84992478Y-57950000D01*
X84425724Y-57950000D01*
X83862100Y-57950000D01*
X313318600Y-132550000D02*
X313503664Y-132468105D01*
X313568600Y-132300000D01*
X213588300Y-132300000D02*
X213588300Y-132075699D01*
X290512900Y-61350000D02*
X290216396Y-61335027D01*
X289928456Y-61291085D01*
X289650538Y-61219634D01*
X289384100Y-61122135D01*
X289130599Y-61000050D01*
X288891493Y-60854840D01*
X288668241Y-60687965D01*
X288462300Y-60500887D01*
X288275127Y-60295067D01*
X288108181Y-60071967D01*
X287962919Y-59833048D01*
X287840800Y-59579770D01*
X287743280Y-59313595D01*
X287671818Y-59035984D01*
X287627872Y-58748399D01*
X287612900Y-58452300D01*
X401911900Y-132550000D02*
X402125690Y-132539096D01*
X402333515Y-132507105D01*
X402534296Y-132455108D01*
X402726952Y-132384184D01*
X402910403Y-132295413D01*
X403083569Y-132189876D01*
X403245369Y-132068653D01*
X403394724Y-131932824D01*
X403530553Y-131783469D01*
X403651776Y-131621669D01*
X403757313Y-131448503D01*
X403846083Y-131265052D01*
X403917007Y-131072396D01*
X403969004Y-130871615D01*
X404000995Y-130663789D01*
X404011899Y-130449999D01*
X82262100Y-111400300D02*
X82558603Y-111415272D01*
X82846543Y-111459218D01*
X83124461Y-111530680D01*
X83390900Y-111628200D01*
X83644400Y-111750319D01*
X83883506Y-111895581D01*
X84106758Y-112062527D01*
X84312700Y-112249700D01*
X84499872Y-112455641D01*
X84666818Y-112678893D01*
X84812080Y-112917999D01*
X84934200Y-113171500D01*
X85031719Y-113437938D01*
X85103181Y-113715856D01*
X85147127Y-114003796D01*
X85162100Y-114300300D01*
X261194000Y-132300000D02*
X261194000Y-132075699D01*
X293412700Y-58433700D02*
X293412900Y-58450000D01*
X310306100Y-132300000D02*
X310387994Y-132485064D01*
X310556100Y-132550000D01*
X315068600Y-132075699D02*
X315068600Y-132300000D01*
X112660300Y-132299900D02*
X112748654Y-132490639D01*
X112903799Y-132549800D01*
X377862300Y-58200000D02*
X377780405Y-58014935D01*
X377612300Y-57950000D01*
X81762100Y-110900500D02*
X81808798Y-111111672D01*
X81935688Y-111278853D01*
X82122960Y-111380405D01*
X82245800Y-111400500D01*
X82264400Y-117200300D02*
X82256599Y-117200200D01*
X238163500Y-131325699D02*
X238386522Y-131359418D01*
X238582826Y-131453790D01*
X238742232Y-131598634D01*
X238854559Y-131783770D01*
X238909627Y-131999018D01*
X238913500Y-132075699D01*
X284775600Y-132550000D02*
X284960664Y-132468105D01*
X285025600Y-132300000D01*
X286525600Y-132300000D02*
X286607494Y-132485064D01*
X286775600Y-132550000D01*
X400611900Y-114298100D02*
X400626872Y-114001596D01*
X400670816Y-113713656D01*
X400742273Y-113435738D01*
X400839782Y-113169300D01*
X400961885Y-112915799D01*
X401107123Y-112676693D01*
X401274035Y-112453441D01*
X401461162Y-112247500D01*
X401667045Y-112060327D01*
X401890225Y-111893381D01*
X402129241Y-111748119D01*
X402382635Y-111626000D01*
X402648948Y-111528480D01*
X402926719Y-111457018D01*
X403214489Y-111413072D01*
X403510800Y-111398100D01*
X85162100Y-114300300D02*
X85147127Y-114596803D01*
X85103185Y-114884743D01*
X85031734Y-115162661D01*
X84934235Y-115429100D01*
X84812150Y-115682600D01*
X84666940Y-115921706D01*
X84500065Y-116144958D01*
X84312987Y-116350900D01*
X84107167Y-116538072D01*
X83884067Y-116705018D01*
X83645148Y-116850280D01*
X83391870Y-116972400D01*
X83125695Y-117069919D01*
X82848084Y-117141381D01*
X82560499Y-117185327D01*
X82264400Y-117200300D01*
X135212600Y-132049800D02*
X135215031Y-131753592D01*
X135249669Y-131465872D01*
X135314721Y-131188106D01*
X135408395Y-130921758D01*
X135528898Y-130668296D01*
X135674438Y-130429184D01*
X135843224Y-130205888D01*
X136033462Y-129999874D01*
X136243361Y-129812608D01*
X136471128Y-129645555D01*
X136714971Y-129500181D01*
X136973098Y-129377952D01*
X137243717Y-129280334D01*
X137525034Y-129208792D01*
X137815260Y-129164792D01*
X138112600Y-129149800D01*
X141012600Y-132048700D02*
X141012500Y-132071500D01*
X286525600Y-132075699D02*
X286525600Y-132300000D01*
X308556100Y-132550000D02*
X308741164Y-132468105D01*
X308806100Y-132300000D01*
X344763100Y-132052100D02*
X344763000Y-132050000D01*
X244335400Y-132052100D02*
X244335300Y-132050000D01*
X88879799Y-132075600D02*
X88879799Y-132299900D01*
X316319800Y-132550000D02*
X344262700Y-132550000D01*
X111160300Y-132075600D02*
X111194019Y-131852577D01*
X111288391Y-131656273D01*
X111433235Y-131496867D01*
X111618371Y-131384540D01*
X111833619Y-131329472D01*
X111910300Y-131325600D01*
X195259200Y-61350000D02*
X194962696Y-61335027D01*
X194674756Y-61291085D01*
X194396838Y-61219634D01*
X194130400Y-61122135D01*
X193876899Y-61000050D01*
X193637793Y-60854840D01*
X193414541Y-60687965D01*
X193208600Y-60500887D01*
X193021427Y-60295067D01*
X192854481Y-60071967D01*
X192709219Y-59833048D01*
X192587100Y-59579770D01*
X192489580Y-59313595D01*
X192418118Y-59035984D01*
X192374172Y-58748399D01*
X192359200Y-58452300D01*
X262694000Y-132075699D02*
X262694000Y-132300000D01*
X353831800Y-57950000D02*
X353758900Y-57950000D01*
X102912200Y-58450000D02*
X102897227Y-58746503D01*
X102853281Y-59034443D01*
X102781819Y-59312361D01*
X102684300Y-59578800D01*
X102562180Y-59832300D01*
X102416918Y-60071406D01*
X102249972Y-60294658D01*
X102062800Y-60500600D01*
X101856858Y-60687772D01*
X101633606Y-60854718D01*
X101394500Y-60999980D01*
X101141000Y-61122100D01*
X100874561Y-61219619D01*
X100596643Y-61291081D01*
X100308703Y-61335027D01*
X100012200Y-61350000D01*
X308806100Y-132300000D02*
X308806100Y-132075699D01*
X347663000Y-129150000D02*
X347959503Y-129164972D01*
X348247443Y-129208916D01*
X348525361Y-129280373D01*
X348791800Y-129377882D01*
X349045300Y-129499985D01*
X349284406Y-129645222D01*
X349507658Y-129812134D01*
X349713600Y-129999262D01*
X349900772Y-130205145D01*
X350067718Y-130428324D01*
X350212980Y-130667341D01*
X350335100Y-130920735D01*
X350432619Y-131187047D01*
X350504081Y-131464819D01*
X350548027Y-131752589D01*
X350563000Y-132048900D01*
X404011899Y-130449999D02*
X404011899Y-117698399D01*
X354831800Y-59174300D02*
X354608777Y-59140580D01*
X354412473Y-59046208D01*
X354253067Y-58901364D01*
X354140740Y-58716228D01*
X354085672Y-58500980D01*
X354081800Y-58424300D01*
X315318600Y-132550000D02*
X316319800Y-132550000D01*
X379362300Y-58200000D02*
X379362300Y-58424300D01*
X248863100Y-51550000D02*
X248840665Y-51328942D01*
X248776360Y-51122748D01*
X248674685Y-50935920D01*
X248540137Y-50772962D01*
X248377216Y-50638377D01*
X248190420Y-50536670D01*
X247984248Y-50472343D01*
X247763200Y-50449900D01*
X379362300Y-58424300D02*
X379328580Y-58647322D01*
X379234208Y-58843626D01*
X379089364Y-59003032D01*
X378904228Y-59115359D01*
X378688980Y-59170427D01*
X378612300Y-59174300D01*
X238913500Y-132300000D02*
X238995394Y-132485064D01*
X239163500Y-132550000D01*
X138112600Y-129149800D02*
X138409179Y-129164777D01*
X138697326Y-129208737D01*
X138975553Y-129280216D01*
X139242370Y-129377753D01*
X139496290Y-129499886D01*
X139735825Y-129645155D01*
X139959487Y-129812096D01*
X140165787Y-129999250D01*
X140353238Y-130205153D01*
X140520350Y-130428344D01*
X140665637Y-130667363D01*
X140787610Y-130920746D01*
X140884781Y-131187033D01*
X140955662Y-131464762D01*
X140998764Y-131752472D01*
X141012600Y-132048700D01*
X97112200Y-58452300D02*
X97112300Y-58444500D01*
X198159000Y-58433700D02*
X198159200Y-58450000D01*
M02*
